;Layer: Drill PTH
;EasyEDA v6.3.22, 2020-01-23T21:12:46--5:00
;cdd6f56302204649af62c86a061be503,dfa15b47affc40b8846523cd8aea0214,10
;Gerber Generator version 0.2
M48
INCH,LZ,00.0000
;Holesize 1 = 0.012 INCH
T01C0.012
;Holesize 2 = 0.035 INCH
T02C0.035
;Holesize 3 = 0.035 INCH
T03C0.035
;Holesize 4 = 0.036 INCH
T04C0.036
;Holesize 5 = 0.051 INCH
T05C0.051
;Holesize 6 = 0.123 INCH
T06C0.123
%
G05
G90
T01
X+015207Y+012592
X+017103Y+032186
X+039272Y+019388
X+023481Y+006100
X+020285Y+015105
X+043764Y+015200
X+046563Y+017675
X+036077Y+014771
X+046898Y+011151
X+036085Y+010309
X+034556Y+013984
X+048227Y+013984
X+010192Y+032888
X+017871Y+022909
X+017893Y+022465
X+023189Y+015926
X+013731Y+020026
X+018122Y+023567
X+026817Y+016473
X+035122Y+017980
X+042617Y+024430
X+043956Y+023442
X+046776Y+026648
X+047339Y+018463
X+033757Y+014317
X+044936Y+007265
X+045452Y+007663
X+029607Y+026134
X+036857Y+023348
X+033514Y+014771
X+032850Y+021859
X+030957Y+014467
X+030686Y+011361
X+013928Y+021042
X+018319Y+022513
X+017896Y+031671
X+037689Y+019569
X+036259Y+018748
X+013826Y+008607
X+014597Y+030063
X+035990Y+015844
X+015572Y+018773
X+016668Y+017119
X+017402Y+017255
X+019967Y+028992
X+013431Y+020323
X+016839Y+032707
X+014530Y+032171
X+034647Y+006534
X+005185Y+032890
X+043656Y+023151
X+041193Y+027378
X+044752Y+023413
X+044654Y+028198
X+045492Y+022261
X+045117Y+027090
X+039939Y+018846
X+039702Y+016750
X+052000Y+032367
X+033929Y+029578
X+041573Y+023186
X+038385Y+020955
X+023646Y+012392
T02
X+035300Y+004750
X+035300Y+003750
X+034300Y+004750
X+034300Y+003750
X+033300Y+004750
X+033300Y+003750
X+032300Y+004750
X+032300Y+003750
X+031300Y+004750
X+031300Y+003750
X+030300Y+004750
X+030300Y+003750
X+055300Y+034250
X+055300Y+033250
X+054300Y+034250
X+054300Y+033250
X+053300Y+034250
X+053300Y+033250
X+052300Y+034250
X+052300Y+033250
X+051300Y+034250
X+051300Y+033250
X+050300Y+034250
X+050300Y+033250
X+049300Y+034250
X+049300Y+033250
X+048300Y+034250
X+048300Y+033250
X+047300Y+034250
X+047300Y+033250
X+046300Y+034250
X+046300Y+033250
X+045300Y+034250
X+045300Y+033250
X+044300Y+034250
X+044300Y+033250
X+043300Y+034250
X+043300Y+033250
X+055350Y+028600
X+055350Y+027600
X+054350Y+028600
X+054350Y+027600
X+053350Y+028600
X+053350Y+027600
X+052350Y+028600
X+052350Y+027600
X+051350Y+028600
X+051350Y+027600
X+050350Y+028600
X+050350Y+027600
X+049350Y+028600
X+049350Y+027600
X+048350Y+028600
X+048350Y+027600
X+047350Y+028600
X+047350Y+027600
X+046350Y+028600
X+046350Y+027600
X+045350Y+028600
X+045350Y+027600
X+044350Y+028600
X+044350Y+027600
X+043350Y+028600
X+043350Y+027600
X+055150Y+022750
X+055150Y+021750
X+054150Y+022750
X+054150Y+021750
X+053150Y+022750
X+053150Y+021750
X+052150Y+022750
X+052150Y+021750
X+051150Y+022750
X+051150Y+021750
X+050150Y+022750
X+050150Y+021750
X+049150Y+022750
X+049150Y+021750
X+048150Y+022750
X+048150Y+021750
X+047150Y+022750
X+047150Y+021750
X+046150Y+022750
X+046150Y+021750
X+045150Y+022750
X+045150Y+021750
X+044150Y+022750
X+044150Y+021750
X+043150Y+022750
X+043150Y+021750
X+055050Y+017250
X+055050Y+016250
X+054050Y+017250
X+054050Y+016250
X+053050Y+017250
X+053050Y+016250
X+052050Y+017250
X+052050Y+016250
X+051050Y+017250
X+051050Y+016250
X+050050Y+017250
X+050050Y+016250
X+049050Y+017250
X+049050Y+016250
X+048050Y+017250
X+048050Y+016250
X+047050Y+017250
X+047050Y+016250
X+046050Y+017250
X+046050Y+016250
X+045050Y+017250
X+045050Y+016250
X+044050Y+017250
X+044050Y+016250
X+043050Y+017250
X+043050Y+016250
X+055250Y+011800
X+055250Y+010800
X+054250Y+011800
X+054250Y+010800
X+053250Y+011800
X+053250Y+010800
X+052250Y+011800
X+052250Y+010800
X+051250Y+011800
X+051250Y+010800
X+050250Y+011800
X+050250Y+010800
X+049250Y+011800
X+049250Y+010800
X+048250Y+011800
X+048250Y+010800
X+047250Y+011800
X+047250Y+010800
X+046250Y+011800
X+046250Y+010800
X+045250Y+011800
X+045250Y+010800
X+044250Y+011800
X+044250Y+010800
X+043250Y+011800
X+043250Y+010800
X+055150Y+006100
X+055150Y+005100
X+054150Y+006100
X+054150Y+005100
X+053150Y+006100
X+053150Y+005100
X+052150Y+006100
X+052150Y+005100
X+051150Y+006100
X+051150Y+005100
X+050150Y+006100
X+050150Y+005100
X+049150Y+006100
X+049150Y+005100
X+048150Y+006100
X+048150Y+005100
X+047150Y+006100
X+047150Y+005100
X+046150Y+006100
X+046150Y+005100
X+045150Y+006100
X+045150Y+005100
X+044150Y+006100
X+044150Y+005100
X+043150Y+006100
X+043150Y+005100
X+036350Y+034250
X+036350Y+033250
X+035350Y+034250
X+035350Y+033250
X+034350Y+034250
X+034350Y+033250
X+033350Y+034250
X+033350Y+033250
X+032350Y+034250
X+032350Y+033250
X+031350Y+034250
X+031350Y+033250
X+030350Y+034250
X+030350Y+033250
X+029350Y+034250
X+029350Y+033250
X+028350Y+034250
X+028350Y+033250
X+027350Y+034250
X+027350Y+033250
X+026350Y+034250
X+026350Y+033250
X+025350Y+034250
X+025350Y+033250
X+024350Y+034250
X+024350Y+033250
X+036300Y+017250
X+036300Y+016250
X+035300Y+017250
X+035300Y+016250
X+034300Y+017250
X+034300Y+016250
X+033300Y+017250
X+033300Y+016250
X+032300Y+017250
X+032300Y+016250
X+031300Y+017250
X+031300Y+016250
X+030300Y+017250
X+030300Y+016250
X+029300Y+017250
X+029300Y+016250
X+028300Y+017250
X+028300Y+016250
X+027300Y+017250
X+027300Y+016250
X+026300Y+017250
X+026300Y+016250
X+025300Y+017250
X+025300Y+016250
X+024300Y+017250
X+024300Y+016250
X+036350Y+022750
X+036350Y+021750
X+035350Y+022750
X+035350Y+021750
X+034350Y+022750
X+034350Y+021750
X+033350Y+022750
X+033350Y+021750
X+032350Y+022750
X+032350Y+021750
X+031350Y+022750
X+031350Y+021750
X+030350Y+022750
X+030350Y+021750
X+029350Y+022750
X+029350Y+021750
X+028350Y+022750
X+028350Y+021750
X+027350Y+022750
X+027350Y+021750
X+026350Y+022750
X+026350Y+021750
X+025350Y+022750
X+025350Y+021750
X+024350Y+022750
X+024350Y+021750
X+036350Y+028600
X+036350Y+027600
X+035350Y+028600
X+035350Y+027600
X+034350Y+028600
X+034350Y+027600
X+033350Y+028600
X+033350Y+027600
X+032350Y+028600
X+032350Y+027600
X+031350Y+028600
X+031350Y+027600
X+030350Y+028600
X+030350Y+027600
X+029350Y+028600
X+029350Y+027600
X+028350Y+028600
X+028350Y+027600
X+027350Y+028600
X+027350Y+027600
X+026350Y+028600
X+026350Y+027600
X+025350Y+028600
X+025350Y+027600
X+024350Y+028600
X+024350Y+027600
T03
X+002255Y+021607G85X+002255Y+021607
X+002255Y+020607G85X+002255Y+020607
X+002255Y+019607G85X+002255Y+019607
X+002255Y+018607G85X+002255Y+018607
X+002255Y+017607G85X+002255Y+017607
X+002255Y+016607G85X+002255Y+016607
X+002255Y+015607G85X+002255Y+015607
X+002255Y+014607G85X+002255Y+014607
X+002255Y+013607G85X+002255Y+013607
X+002255Y+012607G85X+002255Y+012607
X+002255Y+011607G85X+002255Y+011607
X+002255Y+010607G85X+002255Y+010607
X+002255Y+009607G85X+002255Y+009607
X+002255Y+008607G85X+002255Y+008607
X+002255Y+007607G85X+002255Y+007607
X+012255Y+021607G85X+012255Y+021607
X+012255Y+020607G85X+012255Y+020607
X+012255Y+019607G85X+012255Y+019607
X+012255Y+018607G85X+012255Y+018607
X+012255Y+017607G85X+012255Y+017607
X+012255Y+016607G85X+012255Y+016607
X+012255Y+015607G85X+012255Y+015607
X+012255Y+014607G85X+012255Y+014607
X+012255Y+013607G85X+012255Y+013607
X+012255Y+012607G85X+012255Y+012607
X+012255Y+011607G85X+012255Y+011607
X+012255Y+010607G85X+012255Y+010607
X+012255Y+009607G85X+012255Y+009607
X+012255Y+008607G85X+012255Y+008607
X+012255Y+007607G85X+012255Y+007607
X+005250Y+030400
X+006250Y+030400
X+007250Y+030400
X+008250Y+030400
X+009250Y+030400
X+010250Y+030400
X+011250Y+030400
X+012250Y+030400
X+013250Y+030400
X+014250Y+030400
X+015250Y+030400
X+016250Y+030400
X+017250Y+030400
X+018250Y+030400
X+005250Y+033400
X+006250Y+033400
X+007250Y+033400
X+008250Y+033400
X+009250Y+033400
X+010250Y+033400
X+011250Y+033400
X+012250Y+033400
X+013250Y+033400
X+014250Y+033400
X+015250Y+033400
X+016250Y+033400
X+017250Y+033400
X+018250Y+033400
X+005250Y+025400
X+006250Y+025400
X+007250Y+025400
X+008250Y+025400
X+009250Y+025400
X+010250Y+025400
X+011250Y+025400
X+012250Y+025400
X+013250Y+025400
X+014250Y+025400
X+015250Y+025400
X+016250Y+025400
X+017250Y+025400
X+018250Y+025400
X+005250Y+028400
X+006250Y+028400
X+007250Y+028400
X+008250Y+028400
X+009250Y+028400
X+010250Y+028400
X+011250Y+028400
X+012250Y+028400
X+013250Y+028400
X+014250Y+028400
X+015250Y+028400
X+016250Y+028400
X+017250Y+028400
X+018250Y+028400
X+005250Y+035400
X+006250Y+035400
X+007250Y+035400
X+008250Y+035400
X+009250Y+035400
X+010250Y+035400
X+011250Y+035400
X+012250Y+035400
X+013250Y+035400
X+014250Y+035400
X+015250Y+035400
X+016250Y+035400
X+017250Y+035400
X+018250Y+035400
X+005250Y+038400
X+006250Y+038400
X+007250Y+038400
X+008250Y+038400
X+009250Y+038400
X+010250Y+038400
X+011250Y+038400
X+012250Y+038400
X+013250Y+038400
X+014250Y+038400
X+015250Y+038400
X+016250Y+038400
X+017250Y+038400
X+018250Y+038400
T04
X+014950Y+011550
X+014950Y+010550
X+014950Y+009550
X+014950Y+008550
X+014950Y+007550
X+014950Y+006550
X+014950Y+005550
X+014950Y+004550
X+014950Y+003550
X+014950Y+002550
X+019375Y+011550
X+019375Y+010550
X+019375Y+009550
X+019375Y+008550
X+019375Y+007550
X+019375Y+006550
X+019375Y+005550
X+019375Y+004550
X+019375Y+003550
X+019375Y+002550
X+014950Y+023500
X+014950Y+022500
X+014950Y+021500
X+014950Y+020500
X+014950Y+019500
X+014950Y+018500
X+014950Y+017500
X+014950Y+016500
X+014950Y+015500
X+014950Y+014500
X+019375Y+023500
X+019375Y+022500
X+019375Y+021500
X+019375Y+020500
X+019375Y+019500
X+019375Y+018500
X+019375Y+017500
X+019375Y+016500
X+019375Y+015500
X+019375Y+014500
X+023350Y+002350
X+024350Y+002350
X+025350Y+002350
T05
X+037700Y+003750
X+037700Y+004750
T06
X+002000Y+037500
X+002050Y+002050
X+057350Y+001950
X+056600Y+037500
M30
