G04 Layer: TopSilkLayer*
G04 EasyEDA v6.3.22, 2020-01-23T21:12:46--5:00*
G04 cdd6f56302204649af62c86a061be503,dfa15b47affc40b8846523cd8aea0214,10*
G04 Gerber Generator version 0.2*
G04 Scale: 100 percent, Rotated: No, Reflected: No *
G04 Dimensions in inches *
G04 leading zeros omitted , absolute positions ,2 integer and 4 decimal *
%FSLAX24Y24*%
%MOIN*%
G90*
G70D02*

%ADD10C,0.010000*%
%ADD11C,0.005000*%
%ADD12C,0.006000*%
%ADD24C,0.008000*%
%ADD25C,0.007992*%
%ADD26C,0.023622*%
%ADD27C,0.011811*%

%LPD*%
G54D10*
G01X14440Y12456D02*
G01X19959Y12456D01*
G01X19959Y1543D01*
G01X14440Y1543D01*
G01X14440Y12456D01*
G01X14440Y24406D02*
G01X19959Y24406D01*
G01X19959Y13493D01*
G01X14440Y13493D01*
G01X14440Y24406D01*
G54D24*
G01X29800Y5250D02*
G01X35800Y5250D01*
G01X35800Y3250D01*
G01X29800Y3250D01*
G01X29800Y5250D01*
G54D11*
G01X22752Y1848D02*
G01X22752Y6998D01*
G01X25952Y6998D01*
G01X25952Y1848D01*
G01X22752Y1848D01*
G54D10*
G01X18718Y31650D02*
G01X18718Y30856D01*
G01X4781Y30856D01*
G01X4781Y32943D01*
G01X18718Y32943D01*
G01X18718Y32150D01*
G01X18718Y26650D02*
G01X18718Y25856D01*
G01X4781Y25856D01*
G01X4781Y27943D01*
G01X18718Y27943D01*
G01X18718Y27150D01*
G01X18718Y36650D02*
G01X18718Y35856D01*
G01X4781Y35856D01*
G01X4781Y37943D01*
G01X18718Y37943D01*
G01X18718Y37150D01*
G54D24*
G01X42800Y34750D02*
G01X55800Y34750D01*
G01X55800Y32750D01*
G01X42800Y32750D01*
G01X42800Y34750D01*
G01X42850Y29100D02*
G01X55850Y29100D01*
G01X55850Y27100D01*
G01X42850Y27100D01*
G01X42850Y29100D01*
G01X42650Y23250D02*
G01X55650Y23250D01*
G01X55650Y21250D01*
G01X42650Y21250D01*
G01X42650Y23250D01*
G01X42550Y17750D02*
G01X55550Y17750D01*
G01X55550Y15750D01*
G01X42550Y15750D01*
G01X42550Y17750D01*
G01X42750Y12300D02*
G01X55750Y12300D01*
G01X55750Y10300D01*
G01X42750Y10300D01*
G01X42750Y12300D01*
G01X42650Y6600D02*
G01X55650Y6600D01*
G01X55650Y4600D01*
G01X42650Y4600D01*
G01X42650Y6600D01*
G01X23850Y34750D02*
G01X36850Y34750D01*
G01X36850Y32750D01*
G01X23850Y32750D01*
G01X23850Y34750D01*
G01X23800Y17750D02*
G01X36800Y17750D01*
G01X36800Y15750D01*
G01X23800Y15750D01*
G01X23800Y17750D01*
G01X23850Y23250D02*
G01X36850Y23250D01*
G01X36850Y21250D01*
G01X23850Y21250D01*
G01X23850Y23250D01*
G01X23850Y29100D02*
G01X36850Y29100D01*
G01X36850Y27100D01*
G01X23850Y27100D01*
G01X23850Y29100D01*
G01X37200Y5250D02*
G01X38200Y5250D01*
G01X38200Y3250D01*
G01X37200Y3250D01*
G01X37200Y4000D01*
G54D25*
G01X37200Y5250D02*
G01X37200Y4000D01*
G54D12*
G01X17150Y12986D02*
G01X17150Y12557D01*
G01X17150Y12986D02*
G01X17334Y12986D01*
G01X17394Y12965D01*
G01X17415Y12944D01*
G01X17435Y12903D01*
G01X17435Y12842D01*
G01X17415Y12801D01*
G01X17394Y12782D01*
G01X17334Y12761D01*
G01X17150Y12761D01*
G01X17776Y12986D02*
G01X17571Y12700D01*
G01X17877Y12700D01*
G01X17776Y12986D02*
G01X17776Y12557D01*
G54D24*
G01X15500Y11786D02*
G01X15500Y11309D01*
G01X15500Y11309D02*
G01X15772Y11309D01*
G01X15922Y11696D02*
G01X15968Y11719D01*
G01X16035Y11786D01*
G01X16035Y11309D01*
G01X15500Y10773D02*
G01X15500Y10294D01*
G01X15500Y10294D02*
G01X15772Y10294D01*
G01X15944Y10659D02*
G01X15944Y10682D01*
G01X15968Y10726D01*
G01X15990Y10750D01*
G01X16035Y10773D01*
G01X16127Y10773D01*
G01X16172Y10750D01*
G01X16194Y10726D01*
G01X16218Y10682D01*
G01X16218Y10636D01*
G01X16194Y10590D01*
G01X16150Y10523D01*
G01X15922Y10294D01*
G01X16240Y10294D01*
G01X15500Y9723D02*
G01X15500Y9244D01*
G01X15500Y9244D02*
G01X15772Y9244D01*
G01X15968Y9723D02*
G01X16218Y9723D01*
G01X16081Y9540D01*
G01X16150Y9540D01*
G01X16194Y9517D01*
G01X16218Y9494D01*
G01X16240Y9426D01*
G01X16240Y9382D01*
G01X16218Y9313D01*
G01X16172Y9267D01*
G01X16105Y9244D01*
G01X16035Y9244D01*
G01X15968Y9267D01*
G01X15944Y9290D01*
G01X15922Y9336D01*
G01X15500Y8723D02*
G01X15500Y8244D01*
G01X15500Y8244D02*
G01X15772Y8244D01*
G01X16150Y8723D02*
G01X15922Y8405D01*
G01X16264Y8405D01*
G01X16150Y8723D02*
G01X16150Y8244D01*
G01X15500Y7723D02*
G01X15500Y7244D01*
G01X15500Y7244D02*
G01X15772Y7244D01*
G01X15922Y7723D02*
G01X16105Y7244D01*
G01X16285Y7723D02*
G01X16105Y7244D01*
G01X15840Y6609D02*
G01X15818Y6655D01*
G01X15772Y6700D01*
G01X15727Y6723D01*
G01X15635Y6723D01*
G01X15590Y6700D01*
G01X15544Y6655D01*
G01X15522Y6609D01*
G01X15500Y6540D01*
G01X15500Y6426D01*
G01X15522Y6359D01*
G01X15544Y6313D01*
G01X15590Y6267D01*
G01X15635Y6244D01*
G01X15727Y6244D01*
G01X15772Y6267D01*
G01X15818Y6313D01*
G01X15840Y6359D01*
G01X15840Y6426D01*
G01X15727Y6426D02*
G01X15840Y6426D01*
G01X15990Y6723D02*
G01X15990Y6244D01*
G01X15990Y6723D02*
G01X16309Y6244D01*
G01X16309Y6723D02*
G01X16309Y6244D01*
G01X16459Y6723D02*
G01X16459Y6244D01*
G01X16459Y6723D02*
G01X16618Y6723D01*
G01X16685Y6700D01*
G01X16731Y6655D01*
G01X16755Y6609D01*
G01X16777Y6540D01*
G01X16777Y6426D01*
G01X16755Y6359D01*
G01X16731Y6313D01*
G01X16685Y6267D01*
G01X16618Y6244D01*
G01X16459Y6244D01*
G01X15500Y5773D02*
G01X15500Y5294D01*
G01X15500Y5294D02*
G01X15772Y5294D01*
G01X16194Y5773D02*
G01X15968Y5773D01*
G01X15944Y5567D01*
G01X15968Y5590D01*
G01X16035Y5613D01*
G01X16105Y5613D01*
G01X16172Y5590D01*
G01X16218Y5544D01*
G01X16240Y5476D01*
G01X16240Y5432D01*
G01X16218Y5363D01*
G01X16172Y5317D01*
G01X16105Y5294D01*
G01X16035Y5294D01*
G01X15968Y5317D01*
G01X15944Y5340D01*
G01X15922Y5386D01*
G01X15500Y4773D02*
G01X15500Y4294D01*
G01X15500Y4294D02*
G01X15772Y4294D01*
G01X16194Y4705D02*
G01X16172Y4750D01*
G01X16105Y4773D01*
G01X16059Y4773D01*
G01X15990Y4750D01*
G01X15944Y4682D01*
G01X15922Y4567D01*
G01X15922Y4455D01*
G01X15944Y4363D01*
G01X15990Y4317D01*
G01X16059Y4294D01*
G01X16081Y4294D01*
G01X16150Y4317D01*
G01X16194Y4363D01*
G01X16218Y4432D01*
G01X16218Y4455D01*
G01X16194Y4523D01*
G01X16150Y4567D01*
G01X16081Y4590D01*
G01X16059Y4590D01*
G01X15990Y4567D01*
G01X15944Y4523D01*
G01X15922Y4455D01*
G01X15500Y3773D02*
G01X15500Y3294D01*
G01X15500Y3294D02*
G01X15772Y3294D01*
G01X16240Y3773D02*
G01X16014Y3294D01*
G01X15922Y3773D02*
G01X16240Y3773D01*
G01X15500Y2773D02*
G01X15500Y2294D01*
G01X15500Y2294D02*
G01X15772Y2294D01*
G01X16035Y2773D02*
G01X15968Y2750D01*
G01X15944Y2705D01*
G01X15944Y2659D01*
G01X15968Y2613D01*
G01X16014Y2590D01*
G01X16105Y2567D01*
G01X16172Y2544D01*
G01X16218Y2500D01*
G01X16240Y2455D01*
G01X16240Y2386D01*
G01X16218Y2340D01*
G01X16194Y2317D01*
G01X16127Y2294D01*
G01X16035Y2294D01*
G01X15968Y2317D01*
G01X15944Y2340D01*
G01X15922Y2386D01*
G01X15922Y2455D01*
G01X15944Y2500D01*
G01X15990Y2544D01*
G01X16059Y2567D01*
G01X16150Y2590D01*
G01X16194Y2613D01*
G01X16218Y2659D01*
G01X16218Y2705D01*
G01X16194Y2750D01*
G01X16127Y2773D01*
G01X16035Y2773D01*
G01X18344Y11763D02*
G01X18344Y11286D01*
G01X18662Y11763D02*
G01X18662Y11286D01*
G01X18344Y11536D02*
G01X18662Y11536D01*
G01X18812Y11673D02*
G01X18858Y11696D01*
G01X18926Y11763D01*
G01X18926Y11286D01*
G01X18141Y10750D02*
G01X18141Y10271D01*
G01X18459Y10750D02*
G01X18459Y10271D01*
G01X18141Y10521D02*
G01X18459Y10521D01*
G01X18632Y10636D02*
G01X18632Y10659D01*
G01X18655Y10703D01*
G01X18677Y10726D01*
G01X18723Y10750D01*
G01X18814Y10750D01*
G01X18859Y10726D01*
G01X18882Y10703D01*
G01X18905Y10659D01*
G01X18905Y10613D01*
G01X18882Y10567D01*
G01X18836Y10500D01*
G01X18609Y10271D01*
G01X18927Y10271D01*
G01X18141Y9700D02*
G01X18141Y9221D01*
G01X18459Y9700D02*
G01X18459Y9221D01*
G01X18141Y9471D02*
G01X18459Y9471D01*
G01X18655Y9700D02*
G01X18905Y9700D01*
G01X18768Y9517D01*
G01X18836Y9517D01*
G01X18882Y9494D01*
G01X18905Y9471D01*
G01X18927Y9403D01*
G01X18927Y9359D01*
G01X18905Y9290D01*
G01X18859Y9244D01*
G01X18791Y9221D01*
G01X18723Y9221D01*
G01X18655Y9244D01*
G01X18632Y9267D01*
G01X18609Y9313D01*
G01X18162Y8699D02*
G01X18162Y8221D01*
G01X18162Y8221D02*
G01X18435Y8221D01*
G01X18812Y8699D02*
G01X18585Y8381D01*
G01X18926Y8381D01*
G01X18812Y8699D02*
G01X18812Y8221D01*
G01X18094Y7700D02*
G01X18094Y7221D01*
G01X18412Y7700D02*
G01X18412Y7221D01*
G01X18094Y7471D02*
G01X18412Y7471D01*
G01X18562Y7700D02*
G01X18744Y7221D01*
G01X18926Y7700D02*
G01X18744Y7221D01*
G01X17990Y6585D02*
G01X17968Y6631D01*
G01X17922Y6676D01*
G01X17877Y6699D01*
G01X17785Y6699D01*
G01X17740Y6676D01*
G01X17694Y6631D01*
G01X17672Y6585D01*
G01X17650Y6517D01*
G01X17650Y6403D01*
G01X17672Y6335D01*
G01X17694Y6290D01*
G01X17740Y6244D01*
G01X17785Y6221D01*
G01X17877Y6221D01*
G01X17922Y6244D01*
G01X17968Y6290D01*
G01X17990Y6335D01*
G01X17990Y6403D01*
G01X17877Y6403D02*
G01X17990Y6403D01*
G01X18140Y6699D02*
G01X18140Y6221D01*
G01X18140Y6699D02*
G01X18459Y6221D01*
G01X18459Y6699D02*
G01X18459Y6221D01*
G01X18609Y6699D02*
G01X18609Y6221D01*
G01X18609Y6699D02*
G01X18768Y6699D01*
G01X18835Y6676D01*
G01X18881Y6631D01*
G01X18905Y6585D01*
G01X18927Y6517D01*
G01X18927Y6403D01*
G01X18905Y6335D01*
G01X18881Y6290D01*
G01X18835Y6244D01*
G01X18768Y6221D01*
G01X18609Y6221D01*
G01X18141Y5750D02*
G01X18141Y5271D01*
G01X18459Y5750D02*
G01X18459Y5271D01*
G01X18141Y5521D02*
G01X18459Y5521D01*
G01X18882Y5750D02*
G01X18655Y5750D01*
G01X18632Y5544D01*
G01X18655Y5567D01*
G01X18723Y5590D01*
G01X18791Y5590D01*
G01X18859Y5567D01*
G01X18905Y5521D01*
G01X18927Y5453D01*
G01X18927Y5409D01*
G01X18905Y5340D01*
G01X18859Y5294D01*
G01X18791Y5271D01*
G01X18723Y5271D01*
G01X18655Y5294D01*
G01X18632Y5317D01*
G01X18609Y5363D01*
G01X18162Y4750D02*
G01X18162Y4271D01*
G01X18480Y4750D02*
G01X18480Y4271D01*
G01X18162Y4521D02*
G01X18480Y4521D01*
G01X18903Y4682D02*
G01X18880Y4726D01*
G01X18812Y4750D01*
G01X18767Y4750D01*
G01X18698Y4726D01*
G01X18653Y4659D01*
G01X18630Y4544D01*
G01X18630Y4432D01*
G01X18653Y4340D01*
G01X18698Y4294D01*
G01X18767Y4271D01*
G01X18789Y4271D01*
G01X18857Y4294D01*
G01X18903Y4340D01*
G01X18926Y4409D01*
G01X18926Y4432D01*
G01X18903Y4500D01*
G01X18857Y4544D01*
G01X18789Y4567D01*
G01X18767Y4567D01*
G01X18698Y4544D01*
G01X18653Y4500D01*
G01X18630Y4432D01*
G01X18141Y3750D02*
G01X18141Y3271D01*
G01X18459Y3750D02*
G01X18459Y3271D01*
G01X18141Y3521D02*
G01X18459Y3521D01*
G01X18927Y3750D02*
G01X18700Y3271D01*
G01X18609Y3750D02*
G01X18927Y3750D01*
G01X18141Y2750D02*
G01X18141Y2271D01*
G01X18459Y2750D02*
G01X18459Y2271D01*
G01X18141Y2521D02*
G01X18459Y2521D01*
G01X18723Y2750D02*
G01X18655Y2726D01*
G01X18632Y2682D01*
G01X18632Y2636D01*
G01X18655Y2590D01*
G01X18700Y2567D01*
G01X18791Y2544D01*
G01X18859Y2521D01*
G01X18905Y2476D01*
G01X18927Y2432D01*
G01X18927Y2363D01*
G01X18905Y2317D01*
G01X18882Y2294D01*
G01X18814Y2271D01*
G01X18723Y2271D01*
G01X18655Y2294D01*
G01X18632Y2317D01*
G01X18609Y2363D01*
G01X18609Y2432D01*
G01X18632Y2476D01*
G01X18677Y2521D01*
G01X18746Y2544D01*
G01X18836Y2567D01*
G01X18882Y2590D01*
G01X18905Y2636D01*
G01X18905Y2682D01*
G01X18882Y2726D01*
G01X18814Y2750D01*
G01X18723Y2750D01*
G54D12*
G01X17150Y24936D02*
G01X17150Y24507D01*
G01X17150Y24936D02*
G01X17334Y24936D01*
G01X17394Y24915D01*
G01X17415Y24894D01*
G01X17435Y24853D01*
G01X17435Y24792D01*
G01X17415Y24752D01*
G01X17394Y24732D01*
G01X17334Y24711D01*
G01X17150Y24711D01*
G01X17571Y24853D02*
G01X17611Y24875D01*
G01X17673Y24936D01*
G01X17673Y24507D01*
G54D24*
G01X15500Y23736D02*
G01X15500Y23259D01*
G01X15500Y23259D02*
G01X15772Y23259D01*
G01X15922Y23646D02*
G01X15968Y23669D01*
G01X16035Y23736D01*
G01X16035Y23259D01*
G01X15500Y22723D02*
G01X15500Y22244D01*
G01X15500Y22244D02*
G01X15772Y22244D01*
G01X15944Y22609D02*
G01X15944Y22632D01*
G01X15968Y22677D01*
G01X15990Y22700D01*
G01X16035Y22723D01*
G01X16127Y22723D01*
G01X16172Y22700D01*
G01X16194Y22677D01*
G01X16218Y22632D01*
G01X16218Y22586D01*
G01X16194Y22540D01*
G01X16150Y22473D01*
G01X15922Y22244D01*
G01X16240Y22244D01*
G01X15500Y21673D02*
G01X15500Y21194D01*
G01X15500Y21194D02*
G01X15772Y21194D01*
G01X15968Y21673D02*
G01X16218Y21673D01*
G01X16081Y21490D01*
G01X16150Y21490D01*
G01X16194Y21467D01*
G01X16218Y21444D01*
G01X16240Y21377D01*
G01X16240Y21332D01*
G01X16218Y21263D01*
G01X16172Y21217D01*
G01X16105Y21194D01*
G01X16035Y21194D01*
G01X15968Y21217D01*
G01X15944Y21240D01*
G01X15922Y21286D01*
G01X15500Y20673D02*
G01X15500Y20194D01*
G01X15500Y20194D02*
G01X15772Y20194D01*
G01X16150Y20673D02*
G01X15922Y20355D01*
G01X16264Y20355D01*
G01X16150Y20673D02*
G01X16150Y20194D01*
G01X15500Y19673D02*
G01X15500Y19194D01*
G01X15500Y19194D02*
G01X15772Y19194D01*
G01X15922Y19673D02*
G01X16105Y19194D01*
G01X16285Y19673D02*
G01X16105Y19194D01*
G01X15840Y18559D02*
G01X15818Y18605D01*
G01X15772Y18650D01*
G01X15727Y18673D01*
G01X15635Y18673D01*
G01X15590Y18650D01*
G01X15544Y18605D01*
G01X15522Y18559D01*
G01X15500Y18490D01*
G01X15500Y18377D01*
G01X15522Y18309D01*
G01X15544Y18263D01*
G01X15590Y18217D01*
G01X15635Y18194D01*
G01X15727Y18194D01*
G01X15772Y18217D01*
G01X15818Y18263D01*
G01X15840Y18309D01*
G01X15840Y18377D01*
G01X15727Y18377D02*
G01X15840Y18377D01*
G01X15990Y18673D02*
G01X15990Y18194D01*
G01X15990Y18673D02*
G01X16309Y18194D01*
G01X16309Y18673D02*
G01X16309Y18194D01*
G01X16459Y18673D02*
G01X16459Y18194D01*
G01X16459Y18673D02*
G01X16618Y18673D01*
G01X16685Y18650D01*
G01X16731Y18605D01*
G01X16755Y18559D01*
G01X16777Y18490D01*
G01X16777Y18377D01*
G01X16755Y18309D01*
G01X16731Y18263D01*
G01X16685Y18217D01*
G01X16618Y18194D01*
G01X16459Y18194D01*
G01X15500Y17723D02*
G01X15500Y17244D01*
G01X15500Y17244D02*
G01X15772Y17244D01*
G01X16194Y17723D02*
G01X15968Y17723D01*
G01X15944Y17517D01*
G01X15968Y17540D01*
G01X16035Y17563D01*
G01X16105Y17563D01*
G01X16172Y17540D01*
G01X16218Y17494D01*
G01X16240Y17427D01*
G01X16240Y17382D01*
G01X16218Y17313D01*
G01X16172Y17267D01*
G01X16105Y17244D01*
G01X16035Y17244D01*
G01X15968Y17267D01*
G01X15944Y17290D01*
G01X15922Y17336D01*
G01X15500Y16723D02*
G01X15500Y16244D01*
G01X15500Y16244D02*
G01X15772Y16244D01*
G01X16194Y16655D02*
G01X16172Y16700D01*
G01X16105Y16723D01*
G01X16059Y16723D01*
G01X15990Y16700D01*
G01X15944Y16632D01*
G01X15922Y16517D01*
G01X15922Y16405D01*
G01X15944Y16313D01*
G01X15990Y16267D01*
G01X16059Y16244D01*
G01X16081Y16244D01*
G01X16150Y16267D01*
G01X16194Y16313D01*
G01X16218Y16382D01*
G01X16218Y16405D01*
G01X16194Y16473D01*
G01X16150Y16517D01*
G01X16081Y16540D01*
G01X16059Y16540D01*
G01X15990Y16517D01*
G01X15944Y16473D01*
G01X15922Y16405D01*
G01X15500Y15723D02*
G01X15500Y15244D01*
G01X15500Y15244D02*
G01X15772Y15244D01*
G01X16240Y15723D02*
G01X16014Y15244D01*
G01X15922Y15723D02*
G01X16240Y15723D01*
G01X15500Y14723D02*
G01X15500Y14244D01*
G01X15500Y14244D02*
G01X15772Y14244D01*
G01X16035Y14723D02*
G01X15968Y14700D01*
G01X15944Y14655D01*
G01X15944Y14609D01*
G01X15968Y14563D01*
G01X16014Y14540D01*
G01X16105Y14517D01*
G01X16172Y14494D01*
G01X16218Y14450D01*
G01X16240Y14405D01*
G01X16240Y14336D01*
G01X16218Y14290D01*
G01X16194Y14267D01*
G01X16127Y14244D01*
G01X16035Y14244D01*
G01X15968Y14267D01*
G01X15944Y14290D01*
G01X15922Y14336D01*
G01X15922Y14405D01*
G01X15944Y14450D01*
G01X15990Y14494D01*
G01X16059Y14517D01*
G01X16150Y14540D01*
G01X16194Y14563D01*
G01X16218Y14609D01*
G01X16218Y14655D01*
G01X16194Y14700D01*
G01X16127Y14723D01*
G01X16035Y14723D01*
G01X18344Y23713D02*
G01X18344Y23236D01*
G01X18662Y23713D02*
G01X18662Y23236D01*
G01X18344Y23486D02*
G01X18662Y23486D01*
G01X18812Y23623D02*
G01X18858Y23646D01*
G01X18926Y23713D01*
G01X18926Y23236D01*
G01X18141Y22700D02*
G01X18141Y22221D01*
G01X18459Y22700D02*
G01X18459Y22221D01*
G01X18141Y22471D02*
G01X18459Y22471D01*
G01X18632Y22586D02*
G01X18632Y22609D01*
G01X18655Y22653D01*
G01X18677Y22677D01*
G01X18723Y22700D01*
G01X18814Y22700D01*
G01X18859Y22677D01*
G01X18882Y22653D01*
G01X18905Y22609D01*
G01X18905Y22563D01*
G01X18882Y22517D01*
G01X18836Y22450D01*
G01X18609Y22221D01*
G01X18927Y22221D01*
G01X18141Y21650D02*
G01X18141Y21171D01*
G01X18459Y21650D02*
G01X18459Y21171D01*
G01X18141Y21421D02*
G01X18459Y21421D01*
G01X18655Y21650D02*
G01X18905Y21650D01*
G01X18768Y21467D01*
G01X18836Y21467D01*
G01X18882Y21444D01*
G01X18905Y21421D01*
G01X18927Y21353D01*
G01X18927Y21309D01*
G01X18905Y21240D01*
G01X18859Y21194D01*
G01X18791Y21171D01*
G01X18723Y21171D01*
G01X18655Y21194D01*
G01X18632Y21217D01*
G01X18609Y21263D01*
G01X18162Y20649D02*
G01X18162Y20171D01*
G01X18162Y20171D02*
G01X18435Y20171D01*
G01X18812Y20649D02*
G01X18585Y20331D01*
G01X18926Y20331D01*
G01X18812Y20649D02*
G01X18812Y20171D01*
G01X18094Y19650D02*
G01X18094Y19171D01*
G01X18412Y19650D02*
G01X18412Y19171D01*
G01X18094Y19421D02*
G01X18412Y19421D01*
G01X18562Y19650D02*
G01X18744Y19171D01*
G01X18926Y19650D02*
G01X18744Y19171D01*
G01X17990Y18535D02*
G01X17968Y18581D01*
G01X17922Y18626D01*
G01X17877Y18649D01*
G01X17785Y18649D01*
G01X17740Y18626D01*
G01X17694Y18581D01*
G01X17672Y18535D01*
G01X17650Y18467D01*
G01X17650Y18353D01*
G01X17672Y18285D01*
G01X17694Y18240D01*
G01X17740Y18194D01*
G01X17785Y18171D01*
G01X17877Y18171D01*
G01X17922Y18194D01*
G01X17968Y18240D01*
G01X17990Y18285D01*
G01X17990Y18353D01*
G01X17877Y18353D02*
G01X17990Y18353D01*
G01X18140Y18649D02*
G01X18140Y18171D01*
G01X18140Y18649D02*
G01X18459Y18171D01*
G01X18459Y18649D02*
G01X18459Y18171D01*
G01X18609Y18649D02*
G01X18609Y18171D01*
G01X18609Y18649D02*
G01X18768Y18649D01*
G01X18835Y18626D01*
G01X18881Y18581D01*
G01X18905Y18535D01*
G01X18927Y18467D01*
G01X18927Y18353D01*
G01X18905Y18285D01*
G01X18881Y18240D01*
G01X18835Y18194D01*
G01X18768Y18171D01*
G01X18609Y18171D01*
G01X18141Y17700D02*
G01X18141Y17221D01*
G01X18459Y17700D02*
G01X18459Y17221D01*
G01X18141Y17471D02*
G01X18459Y17471D01*
G01X18882Y17700D02*
G01X18655Y17700D01*
G01X18632Y17494D01*
G01X18655Y17517D01*
G01X18723Y17540D01*
G01X18791Y17540D01*
G01X18859Y17517D01*
G01X18905Y17471D01*
G01X18927Y17403D01*
G01X18927Y17359D01*
G01X18905Y17290D01*
G01X18859Y17244D01*
G01X18791Y17221D01*
G01X18723Y17221D01*
G01X18655Y17244D01*
G01X18632Y17267D01*
G01X18609Y17313D01*
G01X18162Y16700D02*
G01X18162Y16221D01*
G01X18480Y16700D02*
G01X18480Y16221D01*
G01X18162Y16471D02*
G01X18480Y16471D01*
G01X18903Y16632D02*
G01X18880Y16677D01*
G01X18812Y16700D01*
G01X18767Y16700D01*
G01X18698Y16677D01*
G01X18653Y16609D01*
G01X18630Y16494D01*
G01X18630Y16382D01*
G01X18653Y16290D01*
G01X18698Y16244D01*
G01X18767Y16221D01*
G01X18789Y16221D01*
G01X18857Y16244D01*
G01X18903Y16290D01*
G01X18926Y16359D01*
G01X18926Y16382D01*
G01X18903Y16450D01*
G01X18857Y16494D01*
G01X18789Y16517D01*
G01X18767Y16517D01*
G01X18698Y16494D01*
G01X18653Y16450D01*
G01X18630Y16382D01*
G01X18141Y15700D02*
G01X18141Y15221D01*
G01X18459Y15700D02*
G01X18459Y15221D01*
G01X18141Y15471D02*
G01X18459Y15471D01*
G01X18927Y15700D02*
G01X18700Y15221D01*
G01X18609Y15700D02*
G01X18927Y15700D01*
G01X18141Y14700D02*
G01X18141Y14221D01*
G01X18459Y14700D02*
G01X18459Y14221D01*
G01X18141Y14471D02*
G01X18459Y14471D01*
G01X18723Y14700D02*
G01X18655Y14676D01*
G01X18632Y14632D01*
G01X18632Y14586D01*
G01X18655Y14540D01*
G01X18700Y14517D01*
G01X18791Y14494D01*
G01X18859Y14471D01*
G01X18905Y14426D01*
G01X18927Y14382D01*
G01X18927Y14313D01*
G01X18905Y14267D01*
G01X18882Y14244D01*
G01X18814Y14221D01*
G01X18723Y14221D01*
G01X18655Y14244D01*
G01X18632Y14267D01*
G01X18609Y14313D01*
G01X18609Y14382D01*
G01X18632Y14426D01*
G01X18677Y14471D01*
G01X18746Y14494D01*
G01X18836Y14517D01*
G01X18882Y14540D01*
G01X18905Y14586D01*
G01X18905Y14632D01*
G01X18882Y14676D01*
G01X18814Y14700D01*
G01X18723Y14700D01*
G54D12*
G01X30500Y6365D02*
G01X30500Y5935D01*
G01X30500Y5935D02*
G01X30744Y5935D01*
G01X30880Y6365D02*
G01X30901Y6344D01*
G01X30921Y6365D01*
G01X30901Y6385D01*
G01X30880Y6365D01*
G01X30901Y6221D02*
G01X30901Y5935D01*
G01X31056Y6221D02*
G01X31056Y5935D01*
G01X31056Y6140D02*
G01X31118Y6201D01*
G01X31159Y6221D01*
G01X31219Y6221D01*
G01X31260Y6201D01*
G01X31281Y6140D01*
G01X31281Y5935D01*
G01X31281Y6140D02*
G01X31343Y6201D01*
G01X31384Y6221D01*
G01X31444Y6221D01*
G01X31485Y6201D01*
G01X31506Y6140D01*
G01X31506Y5935D01*
G01X31640Y6365D02*
G01X31661Y6344D01*
G01X31681Y6365D01*
G01X31661Y6385D01*
G01X31640Y6365D01*
G01X31661Y6221D02*
G01X31661Y5935D01*
G01X31878Y6365D02*
G01X31878Y6017D01*
G01X31898Y5955D01*
G01X31939Y5935D01*
G01X31981Y5935D01*
G01X31817Y6221D02*
G01X31960Y6221D01*
G01X32717Y6303D02*
G01X32676Y6344D01*
G01X32614Y6365D01*
G01X32532Y6365D01*
G01X32472Y6344D01*
G01X32431Y6303D01*
G01X32431Y6262D01*
G01X32451Y6221D01*
G01X32472Y6201D01*
G01X32513Y6180D01*
G01X32635Y6140D01*
G01X32676Y6119D01*
G01X32697Y6099D01*
G01X32717Y6058D01*
G01X32717Y5996D01*
G01X32676Y5955D01*
G01X32614Y5935D01*
G01X32532Y5935D01*
G01X32472Y5955D01*
G01X32431Y5996D01*
G01X32852Y6221D02*
G01X32934Y5935D01*
G01X33015Y6221D02*
G01X32934Y5935D01*
G01X33015Y6221D02*
G01X33097Y5935D01*
G01X33180Y6221D02*
G01X33097Y5935D01*
G01X33314Y6365D02*
G01X33335Y6344D01*
G01X33355Y6365D01*
G01X33335Y6385D01*
G01X33314Y6365D01*
G01X33335Y6221D02*
G01X33335Y5935D01*
G01X33552Y6365D02*
G01X33552Y6017D01*
G01X33572Y5955D01*
G01X33613Y5935D01*
G01X33654Y5935D01*
G01X33489Y6221D02*
G01X33634Y6221D01*
G01X34035Y6160D02*
G01X33993Y6201D01*
G01X33952Y6221D01*
G01X33890Y6221D01*
G01X33850Y6201D01*
G01X33810Y6160D01*
G01X33789Y6099D01*
G01X33789Y6058D01*
G01X33810Y5996D01*
G01X33850Y5955D01*
G01X33890Y5935D01*
G01X33952Y5935D01*
G01X33993Y5955D01*
G01X34035Y5996D01*
G01X34169Y6365D02*
G01X34169Y5935D01*
G01X34169Y6140D02*
G01X34231Y6201D01*
G01X34272Y6221D01*
G01X34332Y6221D01*
G01X34373Y6201D01*
G01X34394Y6140D01*
G01X34394Y5935D01*
G01X34530Y6099D02*
G01X34775Y6099D01*
G01X34775Y6140D01*
G01X34755Y6180D01*
G01X34734Y6201D01*
G01X34693Y6221D01*
G01X34631Y6221D01*
G01X34590Y6201D01*
G01X34550Y6160D01*
G01X34530Y6099D01*
G01X34530Y6058D01*
G01X34550Y5996D01*
G01X34590Y5955D01*
G01X34631Y5935D01*
G01X34693Y5935D01*
G01X34734Y5955D01*
G01X34775Y5996D01*
G01X35135Y6160D02*
G01X35114Y6201D01*
G01X35052Y6221D01*
G01X34992Y6221D01*
G01X34930Y6201D01*
G01X34910Y6160D01*
G01X34930Y6119D01*
G01X34971Y6099D01*
G01X35073Y6078D01*
G01X35114Y6058D01*
G01X35135Y6017D01*
G01X35135Y5996D01*
G01X35114Y5955D01*
G01X35052Y5935D01*
G01X34992Y5935D01*
G01X34930Y5955D01*
G01X34910Y5996D01*
G01X21796Y2350D02*
G01X22102Y2350D01*
G01X22164Y2369D01*
G01X22205Y2411D01*
G01X22225Y2473D01*
G01X22225Y2513D01*
G01X22205Y2575D01*
G01X22164Y2615D01*
G01X22102Y2636D01*
G01X21796Y2636D01*
G01X21877Y2771D02*
G01X21856Y2811D01*
G01X21796Y2873D01*
G01X22225Y2873D01*
G01X21877Y3009D02*
G01X21856Y3050D01*
G01X21796Y3111D01*
G01X22225Y3111D01*
G54D24*
G01X23082Y2840D02*
G01X23655Y3057D01*
G01X23082Y3276D02*
G01X23655Y3057D01*
G01X23082Y3619D02*
G01X23110Y3565D01*
G01X23164Y3511D01*
G01X23218Y3484D01*
G01X23301Y3455D01*
G01X23436Y3455D01*
G01X23518Y3484D01*
G01X23573Y3511D01*
G01X23627Y3565D01*
G01X23655Y3619D01*
G01X23655Y3728D01*
G01X23627Y3784D01*
G01X23573Y3838D01*
G01X23518Y3865D01*
G01X23436Y3892D01*
G01X23301Y3892D01*
G01X23218Y3865D01*
G01X23164Y3838D01*
G01X23110Y3784D01*
G01X23082Y3728D01*
G01X23082Y3619D01*
G01X23082Y4073D02*
G01X23492Y4073D01*
G01X23573Y4100D01*
G01X23627Y4155D01*
G01X23655Y4236D01*
G01X23655Y4290D01*
G01X23627Y4373D01*
G01X23573Y4426D01*
G01X23492Y4455D01*
G01X23082Y4455D01*
G01X23082Y4825D02*
G01X23655Y4825D01*
G01X23082Y4634D02*
G01X23082Y5015D01*
G01X26211Y5109D02*
G01X26157Y5082D01*
G01X26102Y5027D01*
G01X26075Y4973D01*
G01X26075Y4864D01*
G01X26102Y4809D01*
G01X26157Y4755D01*
G01X26211Y4727D01*
G01X26293Y4700D01*
G01X26429Y4700D01*
G01X26511Y4727D01*
G01X26566Y4755D01*
G01X26620Y4809D01*
G01X26647Y4864D01*
G01X26647Y4973D01*
G01X26620Y5027D01*
G01X26566Y5082D01*
G01X26511Y5109D01*
G01X26429Y5109D01*
G01X26429Y4973D02*
G01X26429Y5109D01*
G01X26075Y5289D02*
G01X26647Y5289D01*
G01X26075Y5289D02*
G01X26647Y5671D01*
G01X26075Y5671D02*
G01X26647Y5671D01*
G01X26075Y5851D02*
G01X26647Y5851D01*
G01X26075Y5851D02*
G01X26075Y6042D01*
G01X26102Y6124D01*
G01X26157Y6178D01*
G01X26211Y6205D01*
G01X26293Y6233D01*
G01X26429Y6233D01*
G01X26511Y6205D01*
G01X26566Y6178D01*
G01X26620Y6124D01*
G01X26647Y6042D01*
G01X26647Y5851D01*
G01X25082Y2840D02*
G01X25655Y3057D01*
G01X25082Y3276D02*
G01X25655Y3057D01*
G01X25082Y3455D02*
G01X25655Y3455D01*
G01X25082Y3636D02*
G01X25655Y3636D01*
G01X25082Y3636D02*
G01X25655Y4017D01*
G01X25082Y4017D02*
G01X25655Y4017D01*
G54D12*
G01X7250Y24636D02*
G01X7250Y24207D01*
G01X7250Y24636D02*
G01X7515Y24636D01*
G01X7250Y24432D02*
G01X7414Y24432D01*
G01X7250Y24207D02*
G01X7515Y24207D01*
G01X7936Y24575D02*
G01X7896Y24615D01*
G01X7835Y24636D01*
G01X7752Y24636D01*
G01X7692Y24615D01*
G01X7651Y24575D01*
G01X7651Y24534D01*
G01X7671Y24492D01*
G01X7692Y24473D01*
G01X7732Y24453D01*
G01X7855Y24411D01*
G01X7896Y24390D01*
G01X7917Y24371D01*
G01X7936Y24330D01*
G01X7936Y24267D01*
G01X7896Y24228D01*
G01X7835Y24207D01*
G01X7752Y24207D01*
G01X7692Y24228D01*
G01X7651Y24267D01*
G01X8072Y24636D02*
G01X8072Y24207D01*
G01X8072Y24636D02*
G01X8256Y24636D01*
G01X8318Y24615D01*
G01X8338Y24596D01*
G01X8359Y24555D01*
G01X8359Y24492D01*
G01X8338Y24453D01*
G01X8318Y24432D01*
G01X8256Y24411D01*
G01X8072Y24411D01*
G01X8535Y24636D02*
G01X8760Y24636D01*
G01X8636Y24473D01*
G01X8697Y24473D01*
G01X8739Y24453D01*
G01X8760Y24432D01*
G01X8780Y24371D01*
G01X8780Y24330D01*
G01X8760Y24267D01*
G01X8718Y24228D01*
G01X8656Y24207D01*
G01X8596Y24207D01*
G01X8535Y24228D01*
G01X8514Y24248D01*
G01X8493Y24288D01*
G01X8935Y24534D02*
G01X8935Y24555D01*
G01X8956Y24596D01*
G01X8976Y24615D01*
G01X9017Y24636D01*
G01X9098Y24636D01*
G01X9139Y24615D01*
G01X9160Y24596D01*
G01X9181Y24555D01*
G01X9181Y24513D01*
G01X9160Y24473D01*
G01X9119Y24411D01*
G01X8914Y24207D01*
G01X9201Y24207D01*
G01X11750Y34265D02*
G01X11750Y33834D01*
G01X11750Y34265D02*
G01X11914Y33834D01*
G01X12077Y34265D02*
G01X11914Y33834D01*
G01X12077Y34265D02*
G01X12077Y33834D01*
G01X12518Y34161D02*
G01X12498Y34203D01*
G01X12457Y34244D01*
G01X12417Y34265D01*
G01X12335Y34265D01*
G01X12293Y34244D01*
G01X12252Y34203D01*
G01X12232Y34161D01*
G01X12211Y34101D01*
G01X12211Y33998D01*
G01X12232Y33936D01*
G01X12252Y33896D01*
G01X12293Y33855D01*
G01X12335Y33834D01*
G01X12417Y33834D01*
G01X12457Y33855D01*
G01X12498Y33896D01*
G01X12518Y33936D01*
G01X12653Y34265D02*
G01X12653Y33834D01*
G01X12653Y34265D02*
G01X12838Y34265D01*
G01X12900Y34244D01*
G01X12919Y34223D01*
G01X12939Y34182D01*
G01X12939Y34121D01*
G01X12919Y34080D01*
G01X12900Y34059D01*
G01X12838Y34040D01*
G01X12653Y34040D01*
G01X13075Y34182D02*
G01X13115Y34203D01*
G01X13177Y34265D01*
G01X13177Y33834D01*
G01X11750Y29265D02*
G01X11750Y28834D01*
G01X11750Y29265D02*
G01X11914Y28834D01*
G01X12077Y29265D02*
G01X11914Y28834D01*
G01X12077Y29265D02*
G01X12077Y28834D01*
G01X12518Y29161D02*
G01X12498Y29203D01*
G01X12457Y29244D01*
G01X12417Y29265D01*
G01X12335Y29265D01*
G01X12293Y29244D01*
G01X12252Y29203D01*
G01X12232Y29161D01*
G01X12211Y29101D01*
G01X12211Y28998D01*
G01X12232Y28936D01*
G01X12252Y28896D01*
G01X12293Y28855D01*
G01X12335Y28834D01*
G01X12417Y28834D01*
G01X12457Y28855D01*
G01X12498Y28896D01*
G01X12518Y28936D01*
G01X12653Y29265D02*
G01X12653Y28834D01*
G01X12653Y29265D02*
G01X12838Y29265D01*
G01X12900Y29244D01*
G01X12919Y29223D01*
G01X12939Y29182D01*
G01X12939Y29121D01*
G01X12919Y29080D01*
G01X12900Y29059D01*
G01X12838Y29040D01*
G01X12653Y29040D01*
G01X13096Y29161D02*
G01X13096Y29182D01*
G01X13115Y29223D01*
G01X13136Y29244D01*
G01X13177Y29265D01*
G01X13260Y29265D01*
G01X13300Y29244D01*
G01X13321Y29223D01*
G01X13340Y29182D01*
G01X13340Y29142D01*
G01X13321Y29101D01*
G01X13280Y29040D01*
G01X13075Y28834D01*
G01X13361Y28834D01*
G01X11750Y39265D02*
G01X11750Y38834D01*
G01X11750Y39265D02*
G01X11914Y38834D01*
G01X12077Y39265D02*
G01X11914Y38834D01*
G01X12077Y39265D02*
G01X12077Y38834D01*
G01X12518Y39161D02*
G01X12498Y39203D01*
G01X12457Y39244D01*
G01X12417Y39265D01*
G01X12335Y39265D01*
G01X12293Y39244D01*
G01X12252Y39203D01*
G01X12232Y39161D01*
G01X12211Y39101D01*
G01X12211Y38998D01*
G01X12232Y38936D01*
G01X12252Y38896D01*
G01X12293Y38855D01*
G01X12335Y38834D01*
G01X12417Y38834D01*
G01X12457Y38855D01*
G01X12498Y38896D01*
G01X12518Y38936D01*
G01X12653Y39265D02*
G01X12653Y38834D01*
G01X12653Y39265D02*
G01X12838Y39265D01*
G01X12900Y39244D01*
G01X12919Y39223D01*
G01X12939Y39182D01*
G01X12939Y39121D01*
G01X12919Y39080D01*
G01X12900Y39059D01*
G01X12838Y39040D01*
G01X12653Y39040D01*
G01X13115Y39265D02*
G01X13340Y39265D01*
G01X13218Y39101D01*
G01X13280Y39101D01*
G01X13321Y39080D01*
G01X13340Y39059D01*
G01X13361Y38998D01*
G01X13361Y38957D01*
G01X13340Y38896D01*
G01X13300Y38855D01*
G01X13239Y38834D01*
G01X13177Y38834D01*
G01X13115Y38855D01*
G01X13096Y38876D01*
G01X13075Y38917D01*
G01X49300Y35830D02*
G01X49300Y35400D01*
G01X49300Y35830D02*
G01X49464Y35400D01*
G01X49627Y35830D02*
G01X49464Y35400D01*
G01X49627Y35830D02*
G01X49627Y35400D01*
G01X49864Y35686D02*
G01X49823Y35665D01*
G01X49782Y35625D01*
G01X49761Y35563D01*
G01X49761Y35523D01*
G01X49782Y35461D01*
G01X49823Y35419D01*
G01X49864Y35400D01*
G01X49926Y35400D01*
G01X49967Y35419D01*
G01X50007Y35461D01*
G01X50027Y35523D01*
G01X50027Y35563D01*
G01X50007Y35625D01*
G01X49967Y35665D01*
G01X49926Y35686D01*
G01X49864Y35686D01*
G01X50225Y35830D02*
G01X50225Y35482D01*
G01X50244Y35419D01*
G01X50285Y35400D01*
G01X50327Y35400D01*
G01X50163Y35686D02*
G01X50306Y35686D01*
G01X50564Y35686D02*
G01X50522Y35665D01*
G01X50481Y35625D01*
G01X50461Y35563D01*
G01X50461Y35523D01*
G01X50481Y35461D01*
G01X50522Y35419D01*
G01X50564Y35400D01*
G01X50625Y35400D01*
G01X50665Y35419D01*
G01X50706Y35461D01*
G01X50727Y35523D01*
G01X50727Y35563D01*
G01X50706Y35625D01*
G01X50665Y35665D01*
G01X50625Y35686D01*
G01X50564Y35686D01*
G01X50863Y35686D02*
G01X50863Y35400D01*
G01X50863Y35563D02*
G01X50882Y35625D01*
G01X50923Y35665D01*
G01X50964Y35686D01*
G01X51026Y35686D01*
G01X51476Y35748D02*
G01X51517Y35767D01*
G01X51579Y35830D01*
G01X51579Y35400D01*
G01X49350Y30180D02*
G01X49350Y29750D01*
G01X49350Y30180D02*
G01X49514Y29750D01*
G01X49677Y30180D02*
G01X49514Y29750D01*
G01X49677Y30180D02*
G01X49677Y29750D01*
G01X49914Y30036D02*
G01X49873Y30015D01*
G01X49832Y29975D01*
G01X49811Y29913D01*
G01X49811Y29873D01*
G01X49832Y29811D01*
G01X49873Y29769D01*
G01X49914Y29750D01*
G01X49976Y29750D01*
G01X50017Y29769D01*
G01X50057Y29811D01*
G01X50077Y29873D01*
G01X50077Y29913D01*
G01X50057Y29975D01*
G01X50017Y30015D01*
G01X49976Y30036D01*
G01X49914Y30036D01*
G01X50275Y30180D02*
G01X50275Y29832D01*
G01X50294Y29769D01*
G01X50335Y29750D01*
G01X50377Y29750D01*
G01X50213Y30036D02*
G01X50356Y30036D01*
G01X50614Y30036D02*
G01X50572Y30015D01*
G01X50531Y29975D01*
G01X50511Y29913D01*
G01X50511Y29873D01*
G01X50531Y29811D01*
G01X50572Y29769D01*
G01X50614Y29750D01*
G01X50675Y29750D01*
G01X50715Y29769D01*
G01X50756Y29811D01*
G01X50777Y29873D01*
G01X50777Y29913D01*
G01X50756Y29975D01*
G01X50715Y30015D01*
G01X50675Y30036D01*
G01X50614Y30036D01*
G01X50913Y30036D02*
G01X50913Y29750D01*
G01X50913Y29913D02*
G01X50932Y29975D01*
G01X50973Y30015D01*
G01X51014Y30036D01*
G01X51076Y30036D01*
G01X51547Y30077D02*
G01X51547Y30098D01*
G01X51567Y30138D01*
G01X51588Y30159D01*
G01X51629Y30180D01*
G01X51710Y30180D01*
G01X51751Y30159D01*
G01X51772Y30138D01*
G01X51792Y30098D01*
G01X51792Y30057D01*
G01X51772Y30015D01*
G01X51731Y29955D01*
G01X51526Y29750D01*
G01X51813Y29750D01*
G01X49150Y24330D02*
G01X49150Y23900D01*
G01X49150Y24330D02*
G01X49314Y23900D01*
G01X49477Y24330D02*
G01X49314Y23900D01*
G01X49477Y24330D02*
G01X49477Y23900D01*
G01X49714Y24186D02*
G01X49673Y24165D01*
G01X49632Y24125D01*
G01X49611Y24063D01*
G01X49611Y24023D01*
G01X49632Y23961D01*
G01X49673Y23919D01*
G01X49714Y23900D01*
G01X49776Y23900D01*
G01X49817Y23919D01*
G01X49857Y23961D01*
G01X49877Y24023D01*
G01X49877Y24063D01*
G01X49857Y24125D01*
G01X49817Y24165D01*
G01X49776Y24186D01*
G01X49714Y24186D01*
G01X50075Y24330D02*
G01X50075Y23982D01*
G01X50094Y23919D01*
G01X50135Y23900D01*
G01X50177Y23900D01*
G01X50013Y24186D02*
G01X50156Y24186D01*
G01X50414Y24186D02*
G01X50372Y24165D01*
G01X50331Y24125D01*
G01X50311Y24063D01*
G01X50311Y24023D01*
G01X50331Y23961D01*
G01X50372Y23919D01*
G01X50414Y23900D01*
G01X50475Y23900D01*
G01X50515Y23919D01*
G01X50556Y23961D01*
G01X50577Y24023D01*
G01X50577Y24063D01*
G01X50556Y24125D01*
G01X50515Y24165D01*
G01X50475Y24186D01*
G01X50414Y24186D01*
G01X50713Y24186D02*
G01X50713Y23900D01*
G01X50713Y24063D02*
G01X50732Y24125D01*
G01X50773Y24165D01*
G01X50814Y24186D01*
G01X50876Y24186D01*
G01X51367Y24330D02*
G01X51592Y24330D01*
G01X51469Y24165D01*
G01X51531Y24165D01*
G01X51572Y24144D01*
G01X51592Y24125D01*
G01X51613Y24063D01*
G01X51613Y24023D01*
G01X51592Y23961D01*
G01X51551Y23919D01*
G01X51489Y23900D01*
G01X51429Y23900D01*
G01X51367Y23919D01*
G01X51347Y23940D01*
G01X51326Y23982D01*
G01X49050Y18830D02*
G01X49050Y18400D01*
G01X49050Y18830D02*
G01X49214Y18400D01*
G01X49377Y18830D02*
G01X49214Y18400D01*
G01X49377Y18830D02*
G01X49377Y18400D01*
G01X49614Y18686D02*
G01X49573Y18665D01*
G01X49532Y18625D01*
G01X49511Y18563D01*
G01X49511Y18523D01*
G01X49532Y18461D01*
G01X49573Y18419D01*
G01X49614Y18400D01*
G01X49676Y18400D01*
G01X49717Y18419D01*
G01X49757Y18461D01*
G01X49777Y18523D01*
G01X49777Y18563D01*
G01X49757Y18625D01*
G01X49717Y18665D01*
G01X49676Y18686D01*
G01X49614Y18686D01*
G01X49975Y18830D02*
G01X49975Y18482D01*
G01X49994Y18419D01*
G01X50035Y18400D01*
G01X50077Y18400D01*
G01X49913Y18686D02*
G01X50056Y18686D01*
G01X50314Y18686D02*
G01X50272Y18665D01*
G01X50231Y18625D01*
G01X50211Y18563D01*
G01X50211Y18523D01*
G01X50231Y18461D01*
G01X50272Y18419D01*
G01X50314Y18400D01*
G01X50375Y18400D01*
G01X50415Y18419D01*
G01X50456Y18461D01*
G01X50477Y18523D01*
G01X50477Y18563D01*
G01X50456Y18625D01*
G01X50415Y18665D01*
G01X50375Y18686D01*
G01X50314Y18686D01*
G01X50613Y18686D02*
G01X50613Y18400D01*
G01X50613Y18563D02*
G01X50632Y18625D01*
G01X50673Y18665D01*
G01X50714Y18686D01*
G01X50776Y18686D01*
G01X51431Y18830D02*
G01X51226Y18542D01*
G01X51532Y18542D01*
G01X51431Y18830D02*
G01X51431Y18400D01*
G01X49250Y13380D02*
G01X49250Y12950D01*
G01X49250Y13380D02*
G01X49414Y12950D01*
G01X49577Y13380D02*
G01X49414Y12950D01*
G01X49577Y13380D02*
G01X49577Y12950D01*
G01X49814Y13236D02*
G01X49773Y13215D01*
G01X49732Y13175D01*
G01X49711Y13113D01*
G01X49711Y13073D01*
G01X49732Y13011D01*
G01X49773Y12969D01*
G01X49814Y12950D01*
G01X49876Y12950D01*
G01X49917Y12969D01*
G01X49957Y13011D01*
G01X49977Y13073D01*
G01X49977Y13113D01*
G01X49957Y13175D01*
G01X49917Y13215D01*
G01X49876Y13236D01*
G01X49814Y13236D01*
G01X50175Y13380D02*
G01X50175Y13032D01*
G01X50194Y12969D01*
G01X50235Y12950D01*
G01X50277Y12950D01*
G01X50113Y13236D02*
G01X50256Y13236D01*
G01X50514Y13236D02*
G01X50472Y13215D01*
G01X50431Y13175D01*
G01X50411Y13113D01*
G01X50411Y13073D01*
G01X50431Y13011D01*
G01X50472Y12969D01*
G01X50514Y12950D01*
G01X50575Y12950D01*
G01X50615Y12969D01*
G01X50656Y13011D01*
G01X50677Y13073D01*
G01X50677Y13113D01*
G01X50656Y13175D01*
G01X50615Y13215D01*
G01X50575Y13236D01*
G01X50514Y13236D01*
G01X50813Y13236D02*
G01X50813Y12950D01*
G01X50813Y13113D02*
G01X50832Y13175D01*
G01X50873Y13215D01*
G01X50914Y13236D01*
G01X50976Y13236D01*
G01X51672Y13380D02*
G01X51467Y13380D01*
G01X51447Y13194D01*
G01X51467Y13215D01*
G01X51529Y13236D01*
G01X51589Y13236D01*
G01X51651Y13215D01*
G01X51692Y13175D01*
G01X51713Y13113D01*
G01X51713Y13073D01*
G01X51692Y13011D01*
G01X51651Y12969D01*
G01X51589Y12950D01*
G01X51529Y12950D01*
G01X51467Y12969D01*
G01X51447Y12990D01*
G01X51426Y13032D01*
G01X49150Y7680D02*
G01X49150Y7250D01*
G01X49150Y7680D02*
G01X49314Y7250D01*
G01X49477Y7680D02*
G01X49314Y7250D01*
G01X49477Y7680D02*
G01X49477Y7250D01*
G01X49714Y7536D02*
G01X49673Y7515D01*
G01X49632Y7475D01*
G01X49611Y7413D01*
G01X49611Y7373D01*
G01X49632Y7311D01*
G01X49673Y7269D01*
G01X49714Y7250D01*
G01X49776Y7250D01*
G01X49817Y7269D01*
G01X49857Y7311D01*
G01X49877Y7373D01*
G01X49877Y7413D01*
G01X49857Y7475D01*
G01X49817Y7515D01*
G01X49776Y7536D01*
G01X49714Y7536D01*
G01X50075Y7680D02*
G01X50075Y7332D01*
G01X50094Y7269D01*
G01X50135Y7250D01*
G01X50177Y7250D01*
G01X50013Y7536D02*
G01X50156Y7536D01*
G01X50414Y7536D02*
G01X50372Y7515D01*
G01X50331Y7475D01*
G01X50311Y7413D01*
G01X50311Y7373D01*
G01X50331Y7311D01*
G01X50372Y7269D01*
G01X50414Y7250D01*
G01X50475Y7250D01*
G01X50515Y7269D01*
G01X50556Y7311D01*
G01X50577Y7373D01*
G01X50577Y7413D01*
G01X50556Y7475D01*
G01X50515Y7515D01*
G01X50475Y7536D01*
G01X50414Y7536D01*
G01X50713Y7536D02*
G01X50713Y7250D01*
G01X50713Y7413D02*
G01X50732Y7475D01*
G01X50773Y7515D01*
G01X50814Y7536D01*
G01X50876Y7536D01*
G01X51572Y7617D02*
G01X51551Y7659D01*
G01X51489Y7680D01*
G01X51448Y7680D01*
G01X51388Y7659D01*
G01X51347Y7598D01*
G01X51326Y7494D01*
G01X51326Y7392D01*
G01X51347Y7311D01*
G01X51388Y7269D01*
G01X51448Y7250D01*
G01X51469Y7250D01*
G01X51531Y7269D01*
G01X51572Y7311D01*
G01X51592Y7373D01*
G01X51592Y7392D01*
G01X51572Y7455D01*
G01X51531Y7494D01*
G01X51469Y7515D01*
G01X51448Y7515D01*
G01X51388Y7494D01*
G01X51347Y7455D01*
G01X51326Y7392D01*
G01X30350Y35830D02*
G01X30350Y35400D01*
G01X30350Y35830D02*
G01X30534Y35830D01*
G01X30594Y35809D01*
G01X30615Y35788D01*
G01X30635Y35748D01*
G01X30635Y35707D01*
G01X30615Y35665D01*
G01X30594Y35644D01*
G01X30534Y35625D01*
G01X30350Y35625D01*
G01X30493Y35625D02*
G01X30635Y35400D01*
G01X30771Y35563D02*
G01X31017Y35563D01*
G01X31017Y35605D01*
G01X30996Y35644D01*
G01X30976Y35665D01*
G01X30935Y35686D01*
G01X30873Y35686D01*
G01X30832Y35665D01*
G01X30792Y35625D01*
G01X30771Y35563D01*
G01X30771Y35523D01*
G01X30792Y35461D01*
G01X30832Y35419D01*
G01X30873Y35400D01*
G01X30935Y35400D01*
G01X30976Y35419D01*
G01X31017Y35461D01*
G01X31152Y35830D02*
G01X31152Y35400D01*
G01X31531Y35686D02*
G01X31531Y35400D01*
G01X31531Y35625D02*
G01X31490Y35665D01*
G01X31450Y35686D01*
G01X31389Y35686D01*
G01X31347Y35665D01*
G01X31306Y35625D01*
G01X31286Y35563D01*
G01X31286Y35523D01*
G01X31306Y35461D01*
G01X31347Y35419D01*
G01X31389Y35400D01*
G01X31450Y35400D01*
G01X31490Y35419D01*
G01X31531Y35461D01*
G01X31688Y35686D02*
G01X31810Y35400D01*
G01X31932Y35686D02*
G01X31810Y35400D01*
G01X31769Y35317D01*
G01X31728Y35277D01*
G01X31688Y35257D01*
G01X31667Y35257D01*
G01X32382Y35830D02*
G01X32382Y35400D01*
G01X32382Y35830D02*
G01X32567Y35830D01*
G01X32628Y35809D01*
G01X32648Y35788D01*
G01X32669Y35748D01*
G01X32669Y35707D01*
G01X32648Y35665D01*
G01X32628Y35644D01*
G01X32567Y35625D01*
G01X32382Y35625D02*
G01X32567Y35625D01*
G01X32628Y35605D01*
G01X32648Y35584D01*
G01X32669Y35542D01*
G01X32669Y35482D01*
G01X32648Y35440D01*
G01X32628Y35419D01*
G01X32567Y35400D01*
G01X32382Y35400D01*
G01X32906Y35686D02*
G01X32865Y35665D01*
G01X32825Y35625D01*
G01X32805Y35563D01*
G01X32805Y35523D01*
G01X32825Y35461D01*
G01X32865Y35419D01*
G01X32906Y35400D01*
G01X32968Y35400D01*
G01X33009Y35419D01*
G01X33050Y35461D01*
G01X33069Y35523D01*
G01X33069Y35563D01*
G01X33050Y35625D01*
G01X33009Y35665D01*
G01X32968Y35686D01*
G01X32906Y35686D01*
G01X33451Y35686D02*
G01X33451Y35400D01*
G01X33451Y35625D02*
G01X33410Y35665D01*
G01X33368Y35686D01*
G01X33307Y35686D01*
G01X33267Y35665D01*
G01X33226Y35625D01*
G01X33205Y35563D01*
G01X33205Y35523D01*
G01X33226Y35461D01*
G01X33267Y35419D01*
G01X33307Y35400D01*
G01X33368Y35400D01*
G01X33410Y35419D01*
G01X33451Y35461D01*
G01X33585Y35686D02*
G01X33585Y35400D01*
G01X33585Y35563D02*
G01X33606Y35625D01*
G01X33647Y35665D01*
G01X33688Y35686D01*
G01X33750Y35686D01*
G01X34130Y35830D02*
G01X34130Y35400D01*
G01X34130Y35625D02*
G01X34089Y35665D01*
G01X34047Y35686D01*
G01X33986Y35686D01*
G01X33946Y35665D01*
G01X33905Y35625D01*
G01X33885Y35563D01*
G01X33885Y35523D01*
G01X33905Y35461D01*
G01X33946Y35419D01*
G01X33986Y35400D01*
G01X34047Y35400D01*
G01X34089Y35419D01*
G01X34130Y35461D01*
G01X30422Y18830D02*
G01X30381Y18809D01*
G01X30340Y18767D01*
G01X30319Y18727D01*
G01X30300Y18665D01*
G01X30300Y18563D01*
G01X30319Y18502D01*
G01X30340Y18461D01*
G01X30381Y18419D01*
G01X30422Y18400D01*
G01X30505Y18400D01*
G01X30544Y18419D01*
G01X30585Y18461D01*
G01X30606Y18502D01*
G01X30627Y18563D01*
G01X30627Y18665D01*
G01X30606Y18727D01*
G01X30585Y18767D01*
G01X30544Y18809D01*
G01X30505Y18830D01*
G01X30422Y18830D01*
G01X30761Y18686D02*
G01X30761Y18257D01*
G01X30761Y18625D02*
G01X30802Y18665D01*
G01X30843Y18686D01*
G01X30905Y18686D01*
G01X30946Y18665D01*
G01X30986Y18625D01*
G01X31007Y18563D01*
G01X31007Y18523D01*
G01X30986Y18461D01*
G01X30946Y18419D01*
G01X30905Y18400D01*
G01X30843Y18400D01*
G01X30802Y18419D01*
G01X30761Y18461D01*
G01X31203Y18830D02*
G01X31203Y18482D01*
G01X31225Y18419D01*
G01X31264Y18400D01*
G01X31306Y18400D01*
G01X31143Y18686D02*
G01X31285Y18686D01*
G01X31543Y18686D02*
G01X31502Y18665D01*
G01X31461Y18625D01*
G01X31440Y18563D01*
G01X31440Y18523D01*
G01X31461Y18461D01*
G01X31502Y18419D01*
G01X31543Y18400D01*
G01X31605Y18400D01*
G01X31646Y18419D01*
G01X31686Y18461D01*
G01X31706Y18523D01*
G01X31706Y18563D01*
G01X31686Y18625D01*
G01X31646Y18665D01*
G01X31605Y18686D01*
G01X31543Y18686D01*
G01X32156Y18748D02*
G01X32197Y18767D01*
G01X32260Y18830D01*
G01X32260Y18400D01*
G01X2000Y39300D02*
G01X2000Y38869D01*
G01X2286Y39300D02*
G01X2286Y38869D01*
G01X2000Y39094D02*
G01X2286Y39094D01*
G01X2421Y39217D02*
G01X2461Y39238D01*
G01X2523Y39300D01*
G01X2523Y38869D01*
G01X2050Y3850D02*
G01X2050Y3419D01*
G01X2336Y3850D02*
G01X2336Y3419D01*
G01X2050Y3644D02*
G01X2336Y3644D01*
G01X2492Y3746D02*
G01X2492Y3767D01*
G01X2511Y3809D01*
G01X2532Y3828D01*
G01X2573Y3850D01*
G01X2655Y3850D01*
G01X2696Y3828D01*
G01X2717Y3809D01*
G01X2736Y3767D01*
G01X2736Y3726D01*
G01X2717Y3686D01*
G01X2676Y3625D01*
G01X2471Y3419D01*
G01X2757Y3419D01*
G01X57350Y3750D02*
G01X57350Y3319D01*
G01X57635Y3750D02*
G01X57635Y3319D01*
G01X57350Y3544D02*
G01X57635Y3544D01*
G01X57811Y3750D02*
G01X58036Y3750D01*
G01X57914Y3586D01*
G01X57976Y3586D01*
G01X58017Y3565D01*
G01X58036Y3544D01*
G01X58057Y3484D01*
G01X58057Y3442D01*
G01X58036Y3382D01*
G01X57996Y3340D01*
G01X57935Y3319D01*
G01X57873Y3319D01*
G01X57811Y3340D01*
G01X57792Y3361D01*
G01X57771Y3401D01*
G01X56600Y39300D02*
G01X56600Y38869D01*
G01X56885Y39300D02*
G01X56885Y38869D01*
G01X56600Y39094D02*
G01X56885Y39094D01*
G01X57226Y39300D02*
G01X57021Y39013D01*
G01X57327Y39013D01*
G01X57226Y39300D02*
G01X57226Y38869D01*
G01X30472Y24330D02*
G01X30431Y24309D01*
G01X30390Y24267D01*
G01X30369Y24227D01*
G01X30350Y24165D01*
G01X30350Y24063D01*
G01X30369Y24002D01*
G01X30390Y23961D01*
G01X30431Y23919D01*
G01X30472Y23900D01*
G01X30555Y23900D01*
G01X30594Y23919D01*
G01X30635Y23961D01*
G01X30656Y24002D01*
G01X30677Y24063D01*
G01X30677Y24165D01*
G01X30656Y24227D01*
G01X30635Y24267D01*
G01X30594Y24309D01*
G01X30555Y24330D01*
G01X30472Y24330D01*
G01X30811Y24186D02*
G01X30811Y23757D01*
G01X30811Y24125D02*
G01X30852Y24165D01*
G01X30893Y24186D01*
G01X30955Y24186D01*
G01X30996Y24165D01*
G01X31036Y24125D01*
G01X31057Y24063D01*
G01X31057Y24023D01*
G01X31036Y23961D01*
G01X30996Y23919D01*
G01X30955Y23900D01*
G01X30893Y23900D01*
G01X30852Y23919D01*
G01X30811Y23961D01*
G01X31253Y24330D02*
G01X31253Y23982D01*
G01X31275Y23919D01*
G01X31314Y23900D01*
G01X31356Y23900D01*
G01X31193Y24186D02*
G01X31335Y24186D01*
G01X31593Y24186D02*
G01X31552Y24165D01*
G01X31511Y24125D01*
G01X31490Y24063D01*
G01X31490Y24023D01*
G01X31511Y23961D01*
G01X31552Y23919D01*
G01X31593Y23900D01*
G01X31655Y23900D01*
G01X31696Y23919D01*
G01X31736Y23961D01*
G01X31756Y24023D01*
G01X31756Y24063D01*
G01X31736Y24125D01*
G01X31696Y24165D01*
G01X31655Y24186D01*
G01X31593Y24186D01*
G01X32247Y24330D02*
G01X32472Y24330D01*
G01X32350Y24165D01*
G01X32411Y24165D01*
G01X32452Y24144D01*
G01X32472Y24125D01*
G01X32493Y24063D01*
G01X32493Y24023D01*
G01X32472Y23961D01*
G01X32431Y23919D01*
G01X32371Y23900D01*
G01X32310Y23900D01*
G01X32247Y23919D01*
G01X32227Y23940D01*
G01X32206Y23982D01*
G01X30472Y30180D02*
G01X30431Y30159D01*
G01X30390Y30117D01*
G01X30369Y30077D01*
G01X30350Y30015D01*
G01X30350Y29913D01*
G01X30369Y29852D01*
G01X30390Y29811D01*
G01X30431Y29769D01*
G01X30472Y29750D01*
G01X30555Y29750D01*
G01X30594Y29769D01*
G01X30635Y29811D01*
G01X30656Y29852D01*
G01X30677Y29913D01*
G01X30677Y30015D01*
G01X30656Y30077D01*
G01X30635Y30117D01*
G01X30594Y30159D01*
G01X30555Y30180D01*
G01X30472Y30180D01*
G01X30811Y30036D02*
G01X30811Y29607D01*
G01X30811Y29975D02*
G01X30852Y30015D01*
G01X30893Y30036D01*
G01X30955Y30036D01*
G01X30996Y30015D01*
G01X31036Y29975D01*
G01X31057Y29913D01*
G01X31057Y29873D01*
G01X31036Y29811D01*
G01X30996Y29769D01*
G01X30955Y29750D01*
G01X30893Y29750D01*
G01X30852Y29769D01*
G01X30811Y29811D01*
G01X31253Y30180D02*
G01X31253Y29832D01*
G01X31275Y29769D01*
G01X31314Y29750D01*
G01X31356Y29750D01*
G01X31193Y30036D02*
G01X31335Y30036D01*
G01X31593Y30036D02*
G01X31552Y30015D01*
G01X31511Y29975D01*
G01X31490Y29913D01*
G01X31490Y29873D01*
G01X31511Y29811D01*
G01X31552Y29769D01*
G01X31593Y29750D01*
G01X31655Y29750D01*
G01X31696Y29769D01*
G01X31736Y29811D01*
G01X31756Y29873D01*
G01X31756Y29913D01*
G01X31736Y29975D01*
G01X31696Y30015D01*
G01X31655Y30036D01*
G01X31593Y30036D01*
G01X32227Y30077D02*
G01X32227Y30098D01*
G01X32247Y30138D01*
G01X32268Y30159D01*
G01X32310Y30180D01*
G01X32390Y30180D01*
G01X32431Y30159D01*
G01X32452Y30138D01*
G01X32472Y30098D01*
G01X32472Y30057D01*
G01X32452Y30015D01*
G01X32411Y29955D01*
G01X32206Y29750D01*
G01X32493Y29750D01*
G01X36650Y6365D02*
G01X36650Y5936D01*
G01X36650Y6365D02*
G01X36915Y6365D01*
G01X36650Y6161D02*
G01X36814Y6161D01*
G01X36650Y5936D02*
G01X36915Y5936D01*
G01X37051Y6119D02*
G01X37418Y6119D01*
G01X37839Y6303D02*
G01X37800Y6344D01*
G01X37738Y6365D01*
G01X37656Y6365D01*
G01X37594Y6344D01*
G01X37554Y6303D01*
G01X37554Y6263D01*
G01X37575Y6221D01*
G01X37594Y6201D01*
G01X37635Y6180D01*
G01X37759Y6140D01*
G01X37800Y6119D01*
G01X37819Y6100D01*
G01X37839Y6059D01*
G01X37839Y5996D01*
G01X37800Y5955D01*
G01X37738Y5936D01*
G01X37656Y5936D01*
G01X37594Y5955D01*
G01X37554Y5996D01*
G01X38036Y6365D02*
G01X38036Y6017D01*
G01X38056Y5955D01*
G01X38097Y5936D01*
G01X38139Y5936D01*
G01X37975Y6221D02*
G01X38118Y6221D01*
G01X38376Y6221D02*
G01X38335Y6201D01*
G01X38294Y6161D01*
G01X38273Y6100D01*
G01X38273Y6059D01*
G01X38294Y5996D01*
G01X38335Y5955D01*
G01X38376Y5936D01*
G01X38438Y5936D01*
G01X38479Y5955D01*
G01X38519Y5996D01*
G01X38539Y6059D01*
G01X38539Y6100D01*
G01X38519Y6161D01*
G01X38479Y6201D01*
G01X38438Y6221D01*
G01X38376Y6221D01*
G01X38675Y6221D02*
G01X38675Y5792D01*
G01X38675Y6161D02*
G01X38715Y6201D01*
G01X38756Y6221D01*
G01X38818Y6221D01*
G01X38859Y6201D01*
G01X38900Y6161D01*
G01X38919Y6100D01*
G01X38919Y6059D01*
G01X38900Y5996D01*
G01X38859Y5955D01*
G01X38818Y5936D01*
G01X38756Y5936D01*
G01X38715Y5955D01*
G01X38675Y5996D01*
G54D26*
G75*
G01X18443Y32550D02*
G03X18443Y32548I-118J-1D01*
G01*
G54D10*
G75*
G01X18719Y32150D02*
G03X18719Y31650I0J-250D01*
G01*
G54D27*
G75*
G01X18813Y33396D02*
G03X18813Y33395I-59J-1D01*
G01*
G54D26*
G75*
G01X18443Y27550D02*
G03X18443Y27548I-118J-1D01*
G01*
G54D10*
G75*
G01X18719Y27150D02*
G03X18719Y26650I0J-250D01*
G01*
G54D27*
G75*
G01X18813Y28396D02*
G03X18813Y28395I-59J-1D01*
G01*
G54D26*
G75*
G01X18443Y37550D02*
G03X18443Y37548I-118J-1D01*
G01*
G54D10*
G75*
G01X18719Y37150D02*
G03X18719Y36650I0J-250D01*
G01*
G54D27*
G75*
G01X18813Y38396D02*
G03X18813Y38395I-59J-1D01*
G01*
M00*
M02*
