G04 Layer: BottomLayer*
G04 EasyEDA v6.3.22, 2020-03-25T13:14:10--4:00*
G04 1574771aa074462d83633fc8b9922ba8,dfa15b47affc40b8846523cd8aea0214,10*
G04 Gerber Generator version 0.2*
G04 Scale: 100 percent, Rotated: No, Reflected: No *
G04 Dimensions in inches *
G04 leading zeros omitted , absolute positions ,2 integer and 4 decimal *
%FSLAX24Y24*%
%MOIN*%
G90*
G70D02*

%ADD12C,0.006000*%
%ADD13C,0.024000*%
%ADD14C,0.060000*%
%ADD15C,0.059000*%
%ADD16R,0.059000X0.059000*%
%ADD17C,0.059055*%
%ADD18R,0.059055X0.059055*%
%ADD19C,0.062000*%
%ADD20R,0.062000X0.062000*%
%ADD21C,0.246063*%
%ADD22R,0.074803X0.074803*%
%ADD23C,0.074803*%
%ADD24C,0.074000*%

%LPD*%
G54D12*
G01X47150Y5100D02*
G01X47150Y4401D01*
G01X46964Y4215D01*
G01X19375Y8550D02*
G01X22950Y4975D01*
G01X22950Y4067D01*
G01X15313Y29346D02*
G01X15663Y28996D01*
G01X15663Y25073D01*
G01X15417Y24828D01*
G01X15417Y21967D01*
G01X14950Y21500D01*
G01X24300Y16250D02*
G01X23898Y16250D01*
G01X23898Y16250D02*
G01X23898Y16651D01*
G01X20606Y19942D01*
G01X37971Y22517D02*
G01X37971Y19275D01*
G01X40731Y16513D01*
G01X18250Y33400D02*
G01X17864Y33400D01*
G01X17864Y33400D02*
G01X17477Y33786D01*
G01X17080Y33786D01*
G01X16692Y33398D01*
G01X16692Y33294D01*
G01X14436Y31040D01*
G01X14293Y31040D01*
G01X13739Y30484D01*
G01X13739Y20786D01*
G01X13810Y20713D01*
G01X13810Y12688D01*
G01X14950Y11550D01*
G01X15250Y30400D02*
G01X14635Y29786D01*
G01X14635Y24659D01*
G01X14371Y24394D01*
G01X14371Y20501D01*
G01X14872Y20000D01*
G01X15002Y20000D01*
G01X15384Y19619D01*
G01X15384Y17934D01*
G01X14950Y17500D01*
G01X29060Y5601D02*
G01X37660Y14201D01*
G01X37660Y22503D01*
G01X42430Y27275D01*
G01X42430Y27540D01*
G01X42989Y28100D01*
G01X43425Y28100D01*
G01X43850Y28525D01*
G01X43850Y31971D01*
G01X44898Y33021D01*
G01X44898Y33442D01*
G01X45206Y33750D01*
G01X45425Y33750D01*
G01X45881Y34205D01*
G01X45881Y34428D01*
G01X46140Y34688D01*
G01X46454Y34688D01*
G01X46898Y34242D01*
G01X46898Y33984D01*
G01X47132Y33750D01*
G01X47800Y33750D01*
G01X48300Y33250D01*
G01X8250Y33400D02*
G01X7864Y33013D01*
G01X7864Y30234D01*
G01X8197Y29900D01*
G01X8347Y29900D01*
G01X9750Y28498D01*
G01X9750Y21607D01*
G01X12893Y18465D01*
G01X12893Y10244D01*
G01X12256Y9607D01*
G01X25300Y16250D02*
G01X24800Y16750D01*
G01X24800Y17319D01*
G01X21118Y21000D01*
G01X13600Y19755D02*
G01X13600Y25050D01*
G01X13250Y25400D01*
G01X14222Y16940D02*
G01X14222Y25371D01*
G01X14250Y25400D01*
G01X14250Y35400D02*
G01X15378Y34271D01*
G01X17831Y34271D01*
G01X17952Y34150D01*
G01X18772Y34150D01*
G01X19077Y33846D01*
G01X19077Y29505D01*
G01X24850Y23730D01*
G01X24850Y22653D01*
G01X25218Y22286D01*
G01X25444Y22286D01*
G01X25850Y21880D01*
G01X25850Y21659D01*
G01X26164Y21344D01*
G01X26944Y21344D01*
G01X27350Y21750D01*
G01X29061Y4607D02*
G01X26993Y4607D01*
G01X24735Y2350D01*
G01X24350Y2350D02*
G01X24735Y2350D01*
G01X36350Y34250D02*
G01X36350Y33250D01*
G01X5250Y25400D02*
G01X4842Y25807D01*
G01X4842Y29992D01*
G01X5250Y30400D01*
G01X36350Y29001D02*
G01X36350Y33250D01*
G01X9250Y38400D02*
G01X7250Y36400D01*
G01X7250Y35400D01*
G01X19375Y6550D02*
G01X16234Y6550D01*
G01X15592Y7192D01*
G01X14950Y18500D02*
G01X14559Y18109D01*
G01X14559Y12909D01*
G01X15592Y11876D01*
G01X15592Y7192D01*
G01X15592Y7192D02*
G01X14950Y6550D01*
G01X9250Y28400D02*
G01X7480Y30169D01*
G01X7480Y30169D02*
G01X7250Y30400D01*
G01X7480Y30169D02*
G01X7480Y32978D01*
G01X7864Y33361D01*
G01X7864Y33607D01*
G01X8453Y34196D01*
G01X7250Y35400D02*
G01X8453Y34196D01*
G01X8453Y34196D02*
G01X9250Y33400D01*
G01X36350Y29001D02*
G01X36131Y29001D01*
G01X35940Y28809D01*
G01X35940Y28009D01*
G01X36350Y27600D01*
G01X52050Y16250D02*
G01X52452Y16652D01*
G01X52452Y21448D01*
G01X52150Y21750D01*
G01X52300Y33250D02*
G01X51942Y32890D01*
G01X51942Y28007D01*
G01X52350Y27600D01*
G01X52250Y10800D02*
G01X52719Y10330D01*
G01X52719Y5963D01*
G01X53181Y5501D01*
G01X53415Y5501D01*
G01X53592Y5325D01*
G01X53592Y4973D01*
G01X53284Y4665D01*
G01X52585Y4665D01*
G01X52150Y5100D01*
G01X52050Y16250D02*
G01X51843Y16042D01*
G01X51843Y11207D01*
G01X52250Y10800D01*
G01X52150Y21750D02*
G01X52552Y22152D01*
G01X52552Y27398D01*
G01X52350Y27600D01*
G01X36350Y21750D02*
G01X36913Y22313D01*
G01X36913Y28621D01*
G01X36534Y29001D01*
G01X36350Y29001D01*
G01X36300Y16250D02*
G01X36300Y16482D01*
G01X36727Y16909D01*
G01X36727Y21373D01*
G01X36350Y21750D01*
G01X46150Y5100D02*
G01X46650Y5600D01*
G01X46650Y10400D01*
G01X46250Y10800D01*
G01X45350Y27600D02*
G01X44906Y28044D01*
G01X44906Y32855D01*
G01X45300Y33250D01*
G01X45350Y27600D02*
G01X45607Y27342D01*
G01X45607Y22207D01*
G01X45150Y21750D01*
G01X25350Y2350D02*
G01X24964Y1963D01*
G01X23981Y1963D01*
G01X23964Y1980D01*
G01X23964Y2753D01*
G01X19375Y7342D01*
G01X19375Y7550D01*
G01X45250Y10800D02*
G01X45675Y11225D01*
G01X45675Y15875D01*
G01X46050Y16250D01*
G01X19375Y7550D02*
G01X18977Y7948D01*
G01X18977Y19102D01*
G01X19375Y19500D01*
G01X46050Y16250D02*
G01X45644Y16655D01*
G01X45644Y18640D01*
G01X48554Y21548D01*
G01X48554Y21952D01*
G01X48302Y22205D01*
G01X46605Y22205D01*
G01X46150Y21750D01*
G01X26350Y28600D02*
G01X26788Y28161D01*
G01X27913Y28161D01*
G01X28350Y28600D01*
G01X34350Y27600D02*
G01X34350Y28600D01*
G01X32350Y28600D02*
G01X32350Y27600D01*
G01X32350Y27600D02*
G01X32350Y22750D01*
G01X34350Y21750D02*
G01X34350Y22750D01*
G01X32350Y21750D02*
G01X32350Y22750D01*
G01X32300Y16250D02*
G01X32300Y17250D01*
G01X50821Y10800D02*
G01X51250Y10800D01*
G01X51150Y5100D02*
G01X50732Y5517D01*
G01X50732Y10711D01*
G01X50821Y10800D01*
G01X50821Y10800D02*
G01X50821Y16021D01*
G01X51050Y16250D01*
G01X51350Y27600D02*
G01X51127Y27600D01*
G01X51300Y33250D02*
G01X50906Y32855D01*
G01X50906Y27821D01*
G01X51127Y27600D01*
G01X51127Y27600D02*
G01X50747Y27219D01*
G01X50747Y22152D01*
G01X51150Y21750D01*
G01X30057Y3605D02*
G01X29526Y4138D01*
G01X29526Y4801D01*
G01X29223Y5103D01*
G01X28855Y5103D01*
G01X28568Y5388D01*
G01X28568Y15888D01*
G01X28732Y16051D01*
G01X28732Y16596D01*
G01X28300Y17030D01*
G01X28300Y17250D01*
G01X30300Y17250D02*
G01X30300Y20576D01*
G01X31072Y21348D01*
G01X31072Y21348D02*
G01X31948Y21348D01*
G01X32350Y21750D01*
G01X26350Y22750D02*
G01X26786Y22313D01*
G01X27913Y22313D01*
G01X28350Y22750D01*
G01X31072Y21348D02*
G01X30772Y21650D01*
G01X30772Y22328D01*
G01X30350Y22750D01*
G01X51050Y16250D02*
G01X51489Y16688D01*
G01X51489Y21411D01*
G01X51150Y21750D01*
G01X6250Y38400D02*
G01X5847Y37996D01*
G01X5847Y28803D01*
G01X6250Y28400D01*
G01X5250Y38400D02*
G01X5664Y37984D01*
G01X5664Y28815D01*
G01X5250Y28400D01*
G01X5250Y28400D02*
G01X5750Y27900D01*
G01X5750Y21607D01*
G01X12122Y15234D01*
G01X12392Y15234D01*
G01X12650Y15492D01*
G01X12650Y16211D01*
G01X12256Y16607D01*
G01X12256Y15607D02*
G01X7750Y20111D01*
G01X7750Y27900D01*
G01X7250Y28400D01*
G01X7250Y38400D02*
G01X6693Y37842D01*
G01X6693Y28957D01*
G01X7250Y28400D01*
G01X28300Y16250D02*
G01X27750Y16800D01*
G01X27750Y17419D01*
G01X25328Y19840D01*
G01X22951Y19840D01*
G01X19900Y22890D01*
G01X18277Y22890D01*
G01X17213Y23955D01*
G01X16250Y25400D02*
G01X16889Y24759D01*
G01X19669Y24759D01*
G01X24252Y20177D01*
G01X25960Y20177D01*
G01X28800Y17338D01*
G01X28800Y16750D01*
G01X29300Y16250D01*
G01X30300Y16250D02*
G01X29703Y16846D01*
G01X29703Y17436D01*
G01X26897Y20242D01*
G01X26897Y20242D01*
G01X26861Y20207D01*
G01X26761Y20207D01*
G01X26639Y20328D01*
G01X24418Y20328D01*
G01X19843Y24903D01*
G01X17746Y24903D01*
G01X17746Y24903D01*
G01X17250Y25400D01*
G01X11250Y35400D02*
G01X12621Y34029D01*
G01X17730Y34029D01*
G01X17851Y33907D01*
G01X18672Y33907D01*
G01X18834Y33746D01*
G01X18834Y27265D01*
G01X24350Y21750D01*
G01X12250Y35400D02*
G01X13500Y34150D01*
G01X17780Y34150D01*
G01X17902Y34029D01*
G01X18722Y34029D01*
G01X18955Y33796D01*
G01X18955Y27496D01*
G01X24288Y22163D01*
G01X24935Y22163D01*
G01X25350Y21750D01*
G01X13250Y35400D02*
G01X13686Y35836D01*
G01X14471Y35836D01*
G01X14750Y35557D01*
G01X14750Y35329D01*
G01X15686Y34392D01*
G01X17881Y34392D01*
G01X18002Y34271D01*
G01X18823Y34271D01*
G01X19197Y33896D01*
G01X19197Y29592D01*
G01X25864Y22925D01*
G01X25864Y22234D01*
G01X26350Y21750D01*
G01X15250Y35400D02*
G01X16135Y34513D01*
G01X18752Y34513D01*
G01X19632Y33634D01*
G01X19632Y31551D01*
G01X24552Y26630D01*
G01X25039Y26630D01*
G01X28756Y22913D01*
G01X28756Y22157D01*
G01X28350Y21750D01*
G01X29350Y21750D02*
G01X28948Y22151D01*
G01X28948Y23959D01*
G01X25850Y27057D01*
G01X25850Y27688D01*
G01X25538Y28001D01*
G01X25268Y28001D01*
G01X24850Y28419D01*
G01X24850Y28709D01*
G01X18702Y34857D01*
G01X16793Y34857D01*
G01X16250Y35400D01*
G01X31350Y21750D02*
G01X30948Y22151D01*
G01X30948Y27596D01*
G01X30347Y28198D01*
G01X30084Y28198D01*
G01X29846Y28436D01*
G01X29846Y28671D01*
G01X26218Y32300D01*
G01X24461Y32300D01*
G01X21361Y35400D01*
G01X18250Y35400D01*
G01X25350Y33250D02*
G01X24893Y33707D01*
G01X24318Y33707D01*
G01X19239Y38786D01*
G01X17635Y38786D01*
G01X17250Y38400D01*
G01X23948Y33250D02*
G01X18798Y38400D01*
G01X18250Y38400D01*
G01X24350Y33250D02*
G01X23948Y33250D01*
G01X46150Y6100D02*
G01X45813Y6436D01*
G01X45813Y11363D01*
G01X46250Y11800D01*
G01X46300Y34250D02*
G01X45880Y33830D01*
G01X45880Y29069D01*
G01X46350Y28600D01*
G01X46150Y22750D02*
G01X45925Y22975D01*
G01X45925Y28175D01*
G01X46350Y28600D01*
G01X46250Y11800D02*
G01X46475Y12025D01*
G01X46475Y16825D01*
G01X46050Y17250D01*
G01X46350Y28600D02*
G01X46922Y28027D01*
G01X48507Y28027D01*
G01X48761Y27773D01*
G01X48761Y25248D01*
G01X48748Y25234D01*
G01X48748Y19948D01*
G01X46050Y17250D01*
G01X50150Y5100D02*
G01X50610Y5561D01*
G01X50610Y10438D01*
G01X50250Y10800D01*
G01X50530Y16250D02*
G01X50050Y16250D01*
G01X50250Y10800D02*
G01X50669Y11219D01*
G01X50669Y15630D01*
G01X50530Y15769D01*
G01X50530Y16250D01*
G01X50530Y16250D02*
G01X50530Y21369D01*
G01X50150Y21750D01*
G01X50150Y21750D02*
G01X50572Y22171D01*
G01X50572Y27377D01*
G01X50350Y27600D01*
G01X50350Y27600D02*
G01X49906Y28044D01*
G01X49906Y32855D01*
G01X50300Y33250D01*
G01X31300Y17250D02*
G01X32751Y18701D01*
G01X32751Y30609D01*
G01X34850Y32707D01*
G01X34850Y33325D01*
G01X35176Y33651D01*
G01X35431Y33651D01*
G01X35850Y34069D01*
G01X35850Y34359D01*
G01X36427Y34936D01*
G01X53613Y34936D01*
G01X54300Y34250D01*
G01X54300Y33250D02*
G01X53800Y33750D01*
G01X48214Y33750D01*
G01X47800Y34165D01*
G01X47800Y34388D01*
G01X47372Y34815D01*
G01X45248Y34815D01*
G01X44800Y34367D01*
G01X44800Y34082D01*
G01X44565Y33848D01*
G01X44284Y33848D01*
G01X43856Y33421D01*
G01X43856Y32148D01*
G01X38918Y27211D01*
G01X38918Y24105D01*
G01X37364Y22552D01*
G01X37364Y16713D01*
G01X37243Y16592D01*
G01X42640Y27452D02*
G01X42640Y24359D01*
G01X38768Y20486D01*
G01X38768Y19325D01*
G01X37186Y26727D02*
G01X37038Y26578D01*
G01X37038Y16857D01*
G01X36910Y16730D01*
G01X36910Y16071D01*
G01X35389Y14551D01*
G01X34997Y14551D01*
G01X33300Y16250D01*
G01X37885Y26942D02*
G01X37885Y24419D01*
G01X37181Y23715D01*
G01X37181Y16830D01*
G01X37031Y16678D01*
G01X37031Y16013D01*
G01X35448Y14430D01*
G01X34538Y14430D01*
G01X32863Y16105D01*
G01X32863Y16813D01*
G01X33300Y17250D01*
G01X10250Y38400D02*
G01X8250Y36400D01*
G01X8250Y35400D01*
G01X10250Y28400D02*
G01X8250Y30400D01*
G01X8250Y35400D02*
G01X10250Y33400D01*
G01X10250Y33400D02*
G01X8250Y31400D01*
G01X8250Y30400D01*
G01X36379Y27003D02*
G01X35805Y27577D01*
G01X35805Y32794D01*
G01X35350Y33250D01*
G01X14950Y19500D02*
G01X14438Y18986D01*
G01X14438Y12826D01*
G01X15471Y11792D01*
G01X15471Y8071D01*
G01X14950Y7550D01*
G01X36379Y27003D02*
G01X36379Y22778D01*
G01X36350Y22750D01*
G01X36379Y27003D02*
G01X36792Y27415D01*
G01X36792Y28157D01*
G01X36350Y28600D01*
G01X36350Y22750D02*
G01X35948Y22348D01*
G01X35948Y17601D01*
G01X36300Y17250D01*
G01X24751Y6221D02*
G01X24751Y10953D01*
G01X19375Y16328D01*
G01X19375Y16500D01*
G01X41880Y18005D02*
G01X43606Y19732D01*
G01X43606Y23361D01*
G01X44751Y24505D01*
G01X44751Y32040D01*
G01X44694Y32096D01*
G01X32060Y5601D02*
G01X40731Y14273D01*
G01X43857Y14273D01*
G01X45457Y15873D01*
G01X48350Y27600D02*
G01X46650Y25900D01*
G01X46650Y22657D01*
G01X46231Y22238D01*
G01X46060Y22238D01*
G01X45589Y21767D01*
G01X45589Y20902D01*
G01X40793Y16105D01*
G01X40564Y16105D01*
G01X30060Y5601D01*
G01X35300Y17250D02*
G01X34748Y17801D01*
G01X33013Y17801D01*
G01X32940Y17873D01*
G01X32940Y18313D01*
G01X33850Y19223D01*
G01X33850Y28886D01*
G01X34998Y30034D01*
G01X35250Y30034D01*
G01X35455Y29830D01*
G01X35455Y29496D01*
G01X49056Y31500D02*
G01X49761Y30794D01*
G01X49761Y25248D01*
G01X49748Y25234D01*
G01X49748Y20763D01*
G01X50231Y20282D01*
G01X53175Y18207D02*
G01X52648Y17680D01*
G01X52648Y15851D01*
G01X53713Y14786D01*
G01X53713Y5536D01*
G01X54150Y5100D01*
G01X35350Y22750D02*
G01X35800Y22300D01*
G01X35800Y17153D01*
G01X35297Y16651D01*
G01X35034Y16651D01*
G01X34889Y16505D01*
G01X34889Y15073D01*
G01X35172Y14788D01*
G01X53150Y5100D02*
G01X52564Y5686D01*
G01X52564Y6876D01*
G01X51651Y7788D01*
G01X51651Y16082D01*
G01X51640Y16092D01*
G01X51640Y22292D01*
G01X43300Y34250D02*
G01X37397Y28348D01*
G01X37397Y25598D01*
G01X37271Y25471D01*
G01X39129Y25098D02*
G01X39129Y25305D01*
G01X42550Y28726D01*
G01X42725Y28726D01*
G01X42851Y28600D01*
G01X42851Y28600D01*
G01X43350Y28600D01*
G01X17250Y33400D02*
G01X14777Y30928D01*
G01X14777Y30276D01*
G01X13860Y29359D01*
G01X13860Y22078D01*
G01X13981Y21957D01*
G01X13981Y13082D01*
G01X15350Y11715D01*
G01X15350Y10950D01*
G01X14950Y10550D01*
G01X14950Y5550D02*
G01X13377Y7121D01*
G01X13377Y19507D01*
G01X13268Y19617D01*
G01X13268Y21615D01*
G01X12731Y22153D01*
G01X12731Y31882D01*
G01X14250Y33400D01*
G01X13250Y33400D02*
G01X11860Y32009D01*
G01X11860Y22853D01*
G01X12952Y21759D01*
G01X12952Y19169D01*
G01X13256Y18867D01*
G01X13256Y6242D01*
G01X14950Y4550D01*
G01X12250Y33400D02*
G01X11726Y32876D01*
G01X11726Y22815D01*
G01X11740Y22800D01*
G01X11740Y22800D01*
G01X12831Y21709D01*
G01X12831Y19086D01*
G01X13135Y18784D01*
G01X13135Y5365D01*
G01X14950Y3550D01*
G01X5250Y33400D02*
G01X2896Y31046D01*
G01X2896Y11248D01*
G01X2255Y10607D01*
G01X8250Y38400D02*
G01X6814Y36965D01*
G01X6814Y29834D01*
G01X8250Y28400D01*
G01X8250Y28400D02*
G01X8711Y27938D01*
G01X8711Y20655D01*
G01X12772Y16596D01*
G01X12772Y15123D01*
G01X12256Y14607D01*
G01X49150Y5100D02*
G01X49650Y5600D01*
G01X49650Y10400D01*
G01X49250Y10800D01*
G01X49250Y10800D02*
G01X48825Y11225D01*
G01X48825Y16025D01*
G01X49050Y16250D01*
G01X49150Y21750D02*
G01X49550Y21350D01*
G01X49550Y16750D01*
G01X49050Y16250D01*
G01X49350Y27600D02*
G01X49575Y27375D01*
G01X49575Y22175D01*
G01X49150Y21750D01*
G01X49350Y27600D02*
G01X48846Y28103D01*
G01X48846Y32796D01*
G01X49300Y33250D01*
G01X16250Y33400D02*
G01X16757Y33907D01*
G01X17680Y33907D01*
G01X17801Y33786D01*
G01X18622Y33786D01*
G01X18713Y33696D01*
G01X18713Y27690D01*
G01X16677Y25655D01*
G01X16118Y9873D02*
G01X16148Y9903D01*
G01X16148Y24869D01*
G01X5453Y32890D02*
G01X4111Y31548D01*
G01X4111Y11461D01*
G01X2255Y9607D01*
G01X25350Y28600D02*
G01X25850Y28100D01*
G01X26431Y28100D01*
G01X26894Y27636D01*
G01X26894Y27198D01*
G01X28410Y25682D01*
G01X54050Y16250D02*
G01X54468Y16669D01*
G01X54468Y20198D01*
G01X53748Y20917D01*
G01X53748Y22928D01*
G01X52950Y23727D01*
G01X33350Y28600D02*
G01X32931Y28182D01*
G01X32931Y21248D01*
G01X33576Y20603D01*
G01X19375Y17500D02*
G01X24202Y12671D01*
G01X24202Y11800D01*
G01X14950Y8550D02*
G01X13498Y10001D01*
G01X13498Y19557D01*
G01X13389Y19667D01*
G01X13389Y21769D01*
G01X12852Y22307D01*
G01X12852Y31003D01*
G01X15250Y33400D01*
G01X14950Y2550D02*
G01X13014Y4486D01*
G01X13014Y18705D01*
G01X12710Y19009D01*
G01X12710Y21659D01*
G01X11690Y22678D01*
G01X11567Y22678D01*
G01X10690Y23553D01*
G01X10690Y32840D01*
G01X11250Y33400D01*
G01X36527Y11557D02*
G01X46719Y21750D01*
G01X47150Y21750D01*
G01X11422Y23121D02*
G01X10813Y23730D01*
G01X10813Y28515D01*
G01X11230Y28932D01*
G01X14950Y16500D02*
G01X15506Y17055D01*
G01X15506Y20521D01*
G01X15027Y21000D01*
G01X14822Y21000D01*
G01X14531Y21290D01*
G01X14531Y24357D01*
G01X14785Y24611D01*
G01X14785Y29117D01*
G01X16067Y30400D01*
G01X16250Y30400D01*
G01X17250Y30400D02*
G01X15844Y28994D01*
G01X15844Y25023D01*
G01X15723Y24903D01*
G01X15723Y16273D01*
G01X14950Y15500D01*
G01X18250Y30400D02*
G01X16706Y28857D01*
G01X16706Y26655D01*
G01X16192Y26140D01*
G01X15935Y23944D02*
G01X15935Y15484D01*
G01X14950Y14500D01*
G01X43859Y27717D02*
G01X43859Y24653D01*
G01X41019Y21813D01*
G01X41019Y16503D01*
G01X40742Y16226D01*
G01X37886Y16226D01*
G01X37871Y16209D01*
G01X31300Y16250D02*
G01X30800Y16750D01*
G01X30231Y16750D01*
G01X29897Y17084D01*
G01X29897Y17415D01*
G01X26940Y20371D01*
G01X26855Y20371D01*
G01X26811Y20328D01*
G01X26811Y20328D01*
G01X26776Y20363D01*
G01X26776Y20432D01*
G01X26759Y20450D01*
G01X24627Y20450D01*
G01X19677Y25400D01*
G01X18250Y25400D01*
G01X30350Y21750D02*
G01X29946Y22153D01*
G01X29946Y27646D01*
G01X29539Y28053D01*
G01X29327Y28053D01*
G01X28751Y28630D01*
G01X28751Y28817D01*
G01X25397Y32171D01*
G01X24332Y32171D01*
G01X21490Y35013D01*
G01X17635Y35013D01*
G01X17250Y35400D01*
G01X27300Y17250D02*
G01X27300Y17563D01*
G01X26972Y17890D01*
G01X35122Y29823D02*
G01X34850Y29551D01*
G01X34850Y19709D01*
G01X33152Y18011D01*
G01X42638Y28515D02*
G01X39527Y25405D01*
G01X39527Y24544D01*
G01X37538Y22555D01*
G01X37538Y16271D01*
G01X35576Y14309D01*
G01X33621Y14309D01*
G01X31800Y16128D01*
G01X31800Y16409D01*
G01X31472Y16736D01*
G01X31239Y16736D01*
G01X30800Y17176D01*
G01X30800Y17682D01*
G01X30636Y17846D01*
G01X31060Y5601D02*
G01X42372Y16913D01*
G01X42372Y17144D01*
G01X43168Y17940D01*
G01X44340Y17940D01*
G01X48150Y21750D01*
G01X54150Y6100D02*
G01X54669Y6619D01*
G01X54669Y14246D01*
G01X54589Y14326D01*
G01X54589Y20642D01*
G01X54081Y21151D01*
G54D14*
G01X14950Y11550D03*
G01X14950Y10550D03*
G01X14950Y9550D03*
G01X14950Y8550D03*
G01X14950Y7550D03*
G01X14950Y6550D03*
G01X14950Y5550D03*
G01X14950Y4550D03*
G01X14950Y3550D03*
G01X14950Y2550D03*
G01X19375Y11550D03*
G01X19375Y10550D03*
G01X19375Y9550D03*
G01X19375Y8550D03*
G01X19375Y7550D03*
G01X19375Y6550D03*
G01X19375Y5550D03*
G01X19375Y4550D03*
G01X19375Y3550D03*
G01X19375Y2550D03*
G01X14950Y23500D03*
G01X14950Y22500D03*
G01X14950Y21500D03*
G01X14950Y20500D03*
G01X14950Y19500D03*
G01X14950Y18500D03*
G01X14950Y17500D03*
G01X14950Y16500D03*
G01X14950Y15500D03*
G01X14950Y14500D03*
G01X19375Y23500D03*
G01X19375Y22500D03*
G01X19375Y21500D03*
G01X19375Y20500D03*
G01X19375Y19500D03*
G01X19375Y18500D03*
G01X19375Y17500D03*
G01X19375Y16500D03*
G01X19375Y15500D03*
G01X19375Y14500D03*
G54D15*
G01X23350Y2350D03*
G54D16*
G01X24350Y2350D03*
G54D15*
G01X25350Y2350D03*
G36*
G01X2514Y21714D02*
G01X2362Y21865D01*
G01X2148Y21865D01*
G01X1996Y21714D01*
G01X1996Y21499D01*
G01X2148Y21348D01*
G01X2362Y21348D01*
G01X2514Y21499D01*
G01X2514Y21714D01*
G37*
G36*
G01X2514Y20714D02*
G01X2362Y20865D01*
G01X2148Y20865D01*
G01X1996Y20714D01*
G01X1996Y20499D01*
G01X2148Y20348D01*
G01X2362Y20348D01*
G01X2514Y20499D01*
G01X2514Y20714D01*
G37*
G36*
G01X2514Y19714D02*
G01X2362Y19865D01*
G01X2148Y19865D01*
G01X1996Y19714D01*
G01X1996Y19499D01*
G01X2148Y19348D01*
G01X2362Y19348D01*
G01X2514Y19499D01*
G01X2514Y19714D01*
G37*
G36*
G01X2514Y18714D02*
G01X2362Y18865D01*
G01X2148Y18865D01*
G01X1996Y18714D01*
G01X1996Y18499D01*
G01X2148Y18348D01*
G01X2362Y18348D01*
G01X2514Y18499D01*
G01X2514Y18714D01*
G37*
G36*
G01X2514Y17714D02*
G01X2362Y17865D01*
G01X2148Y17865D01*
G01X1996Y17714D01*
G01X1996Y17499D01*
G01X2148Y17348D01*
G01X2362Y17348D01*
G01X2514Y17499D01*
G01X2514Y17714D01*
G37*
G36*
G01X2514Y16714D02*
G01X2362Y16865D01*
G01X2148Y16865D01*
G01X1996Y16714D01*
G01X1996Y16499D01*
G01X2148Y16348D01*
G01X2362Y16348D01*
G01X2514Y16499D01*
G01X2514Y16714D01*
G37*
G36*
G01X2514Y15714D02*
G01X2362Y15865D01*
G01X2148Y15865D01*
G01X1996Y15714D01*
G01X1996Y15499D01*
G01X2148Y15348D01*
G01X2362Y15348D01*
G01X2514Y15499D01*
G01X2514Y15714D01*
G37*
G36*
G01X2514Y14714D02*
G01X2362Y14865D01*
G01X2148Y14865D01*
G01X1996Y14714D01*
G01X1996Y14499D01*
G01X2148Y14348D01*
G01X2362Y14348D01*
G01X2514Y14499D01*
G01X2514Y14714D01*
G37*
G36*
G01X2514Y13714D02*
G01X2362Y13865D01*
G01X2148Y13865D01*
G01X1996Y13714D01*
G01X1996Y13499D01*
G01X2148Y13348D01*
G01X2362Y13348D01*
G01X2514Y13499D01*
G01X2514Y13714D01*
G37*
G36*
G01X2514Y12714D02*
G01X2362Y12865D01*
G01X2148Y12865D01*
G01X1996Y12714D01*
G01X1996Y12499D01*
G01X2148Y12348D01*
G01X2362Y12348D01*
G01X2514Y12499D01*
G01X2514Y12714D01*
G37*
G36*
G01X2514Y11714D02*
G01X2362Y11865D01*
G01X2148Y11865D01*
G01X1996Y11714D01*
G01X1996Y11499D01*
G01X2148Y11348D01*
G01X2362Y11348D01*
G01X2514Y11499D01*
G01X2514Y11714D01*
G37*
G36*
G01X2514Y10714D02*
G01X2362Y10865D01*
G01X2148Y10865D01*
G01X1996Y10714D01*
G01X1996Y10499D01*
G01X2148Y10348D01*
G01X2362Y10348D01*
G01X2514Y10499D01*
G01X2514Y10714D01*
G37*
G36*
G01X2514Y9714D02*
G01X2362Y9865D01*
G01X2148Y9865D01*
G01X1996Y9714D01*
G01X1996Y9499D01*
G01X2148Y9348D01*
G01X2362Y9348D01*
G01X2514Y9499D01*
G01X2514Y9714D01*
G37*
G36*
G01X2514Y8714D02*
G01X2362Y8865D01*
G01X2148Y8865D01*
G01X1996Y8714D01*
G01X1996Y8499D01*
G01X2148Y8348D01*
G01X2362Y8348D01*
G01X2514Y8499D01*
G01X2514Y8714D01*
G37*
G36*
G01X2514Y7714D02*
G01X2362Y7865D01*
G01X2148Y7865D01*
G01X1996Y7714D01*
G01X1996Y7499D01*
G01X2148Y7348D01*
G01X2362Y7348D01*
G01X2514Y7499D01*
G01X2514Y7714D01*
G37*
G36*
G01X12514Y21714D02*
G01X12362Y21865D01*
G01X12148Y21865D01*
G01X11996Y21714D01*
G01X11996Y21499D01*
G01X12148Y21348D01*
G01X12362Y21348D01*
G01X12514Y21499D01*
G01X12514Y21714D01*
G37*
G36*
G01X12514Y20714D02*
G01X12362Y20865D01*
G01X12148Y20865D01*
G01X11996Y20714D01*
G01X11996Y20499D01*
G01X12148Y20348D01*
G01X12362Y20348D01*
G01X12514Y20499D01*
G01X12514Y20714D01*
G37*
G36*
G01X12514Y19714D02*
G01X12362Y19865D01*
G01X12148Y19865D01*
G01X11996Y19714D01*
G01X11996Y19499D01*
G01X12148Y19348D01*
G01X12362Y19348D01*
G01X12514Y19499D01*
G01X12514Y19714D01*
G37*
G36*
G01X12514Y18714D02*
G01X12362Y18865D01*
G01X12148Y18865D01*
G01X11996Y18714D01*
G01X11996Y18499D01*
G01X12148Y18348D01*
G01X12362Y18348D01*
G01X12514Y18499D01*
G01X12514Y18714D01*
G37*
G36*
G01X12514Y17714D02*
G01X12362Y17865D01*
G01X12148Y17865D01*
G01X11996Y17714D01*
G01X11996Y17499D01*
G01X12148Y17348D01*
G01X12362Y17348D01*
G01X12514Y17499D01*
G01X12514Y17714D01*
G37*
G36*
G01X12514Y16714D02*
G01X12362Y16865D01*
G01X12148Y16865D01*
G01X11996Y16714D01*
G01X11996Y16499D01*
G01X12148Y16348D01*
G01X12362Y16348D01*
G01X12514Y16499D01*
G01X12514Y16714D01*
G37*
G36*
G01X12514Y15714D02*
G01X12362Y15865D01*
G01X12148Y15865D01*
G01X11996Y15714D01*
G01X11996Y15499D01*
G01X12148Y15348D01*
G01X12362Y15348D01*
G01X12514Y15499D01*
G01X12514Y15714D01*
G37*
G36*
G01X12514Y14714D02*
G01X12362Y14865D01*
G01X12148Y14865D01*
G01X11996Y14714D01*
G01X11996Y14499D01*
G01X12148Y14348D01*
G01X12362Y14348D01*
G01X12514Y14499D01*
G01X12514Y14714D01*
G37*
G36*
G01X12514Y13714D02*
G01X12362Y13865D01*
G01X12148Y13865D01*
G01X11996Y13714D01*
G01X11996Y13499D01*
G01X12148Y13348D01*
G01X12362Y13348D01*
G01X12514Y13499D01*
G01X12514Y13714D01*
G37*
G36*
G01X12514Y12714D02*
G01X12362Y12865D01*
G01X12148Y12865D01*
G01X11996Y12714D01*
G01X11996Y12499D01*
G01X12148Y12348D01*
G01X12362Y12348D01*
G01X12514Y12499D01*
G01X12514Y12714D01*
G37*
G36*
G01X12514Y11714D02*
G01X12362Y11865D01*
G01X12148Y11865D01*
G01X11996Y11714D01*
G01X11996Y11499D01*
G01X12148Y11348D01*
G01X12362Y11348D01*
G01X12514Y11499D01*
G01X12514Y11714D01*
G37*
G36*
G01X12514Y10714D02*
G01X12362Y10865D01*
G01X12148Y10865D01*
G01X11996Y10714D01*
G01X11996Y10499D01*
G01X12148Y10348D01*
G01X12362Y10348D01*
G01X12514Y10499D01*
G01X12514Y10714D01*
G37*
G36*
G01X12514Y9714D02*
G01X12362Y9865D01*
G01X12148Y9865D01*
G01X11996Y9714D01*
G01X11996Y9499D01*
G01X12148Y9348D01*
G01X12362Y9348D01*
G01X12514Y9499D01*
G01X12514Y9714D01*
G37*
G36*
G01X12514Y8714D02*
G01X12362Y8865D01*
G01X12148Y8865D01*
G01X11996Y8714D01*
G01X11996Y8499D01*
G01X12148Y8348D01*
G01X12362Y8348D01*
G01X12514Y8499D01*
G01X12514Y8714D01*
G37*
G36*
G01X12514Y7714D02*
G01X12362Y7865D01*
G01X12148Y7865D01*
G01X11996Y7714D01*
G01X11996Y7499D01*
G01X12148Y7348D01*
G01X12362Y7348D01*
G01X12514Y7499D01*
G01X12514Y7714D01*
G37*
G54D17*
G01X5250Y30400D03*
G01X6250Y30400D03*
G01X7250Y30400D03*
G01X8250Y30400D03*
G01X9250Y30400D03*
G01X10250Y30400D03*
G01X11250Y30400D03*
G01X12250Y30400D03*
G01X13250Y30400D03*
G01X14250Y30400D03*
G01X15250Y30400D03*
G01X16250Y30400D03*
G01X17250Y30400D03*
G01X18250Y30400D03*
G01X5250Y33400D03*
G01X6250Y33400D03*
G01X7250Y33400D03*
G01X8250Y33400D03*
G01X9250Y33400D03*
G01X10250Y33400D03*
G01X11250Y33400D03*
G01X12250Y33400D03*
G01X13250Y33400D03*
G01X14250Y33400D03*
G01X15250Y33400D03*
G01X16250Y33400D03*
G01X17250Y33400D03*
G54D18*
G01X18250Y33400D03*
G54D17*
G01X5250Y25400D03*
G01X6250Y25400D03*
G01X7250Y25400D03*
G01X8250Y25400D03*
G01X9250Y25400D03*
G01X10250Y25400D03*
G01X11250Y25400D03*
G01X12250Y25400D03*
G01X13250Y25400D03*
G01X14250Y25400D03*
G01X15250Y25400D03*
G01X16250Y25400D03*
G01X17250Y25400D03*
G01X18250Y25400D03*
G01X5250Y28400D03*
G01X6250Y28400D03*
G01X7250Y28400D03*
G01X8250Y28400D03*
G01X9250Y28400D03*
G01X10250Y28400D03*
G01X11250Y28400D03*
G01X12250Y28400D03*
G01X13250Y28400D03*
G01X14250Y28400D03*
G01X15250Y28400D03*
G01X16250Y28400D03*
G01X17250Y28400D03*
G54D18*
G01X18250Y28400D03*
G54D17*
G01X5250Y35400D03*
G01X6250Y35400D03*
G01X7250Y35400D03*
G01X8250Y35400D03*
G01X9250Y35400D03*
G01X10250Y35400D03*
G01X11250Y35400D03*
G01X12250Y35400D03*
G01X13250Y35400D03*
G01X14250Y35400D03*
G01X15250Y35400D03*
G01X16250Y35400D03*
G01X17250Y35400D03*
G01X18250Y35400D03*
G01X5250Y38400D03*
G01X6250Y38400D03*
G01X7250Y38400D03*
G01X8250Y38400D03*
G01X9250Y38400D03*
G01X10250Y38400D03*
G01X11250Y38400D03*
G01X12250Y38400D03*
G01X13250Y38400D03*
G01X14250Y38400D03*
G01X15250Y38400D03*
G01X16250Y38400D03*
G01X17250Y38400D03*
G54D18*
G01X18250Y38400D03*
G54D19*
G01X55300Y34250D03*
G01X55300Y33250D03*
G01X54300Y34250D03*
G01X54300Y33250D03*
G01X53300Y34250D03*
G01X53300Y33250D03*
G01X52300Y34250D03*
G01X52300Y33250D03*
G01X51300Y34250D03*
G01X51300Y33250D03*
G01X50300Y34250D03*
G01X50300Y33250D03*
G01X49300Y34250D03*
G01X49300Y33250D03*
G01X48300Y34250D03*
G01X48300Y33250D03*
G01X47300Y34250D03*
G01X47300Y33250D03*
G01X46300Y34250D03*
G01X46300Y33250D03*
G01X45300Y34250D03*
G01X45300Y33250D03*
G01X44300Y34250D03*
G01X44300Y33250D03*
G01X43300Y34250D03*
G54D20*
G01X43300Y33250D03*
G54D19*
G01X55350Y28600D03*
G01X55350Y27600D03*
G01X54350Y28600D03*
G01X54350Y27600D03*
G01X53350Y28600D03*
G01X53350Y27600D03*
G01X52350Y28600D03*
G01X52350Y27600D03*
G01X51350Y28600D03*
G01X51350Y27600D03*
G01X50350Y28600D03*
G01X50350Y27600D03*
G01X49350Y28600D03*
G01X49350Y27600D03*
G01X48350Y28600D03*
G01X48350Y27600D03*
G01X47350Y28600D03*
G01X47350Y27600D03*
G01X46350Y28600D03*
G01X46350Y27600D03*
G01X45350Y28600D03*
G01X45350Y27600D03*
G01X44350Y28600D03*
G01X44350Y27600D03*
G01X43350Y28600D03*
G54D20*
G01X43350Y27600D03*
G54D19*
G01X55150Y22750D03*
G01X55150Y21750D03*
G01X54150Y22750D03*
G01X54150Y21750D03*
G01X53150Y22750D03*
G01X53150Y21750D03*
G01X52150Y22750D03*
G01X52150Y21750D03*
G01X51150Y22750D03*
G01X51150Y21750D03*
G01X50150Y22750D03*
G01X50150Y21750D03*
G01X49150Y22750D03*
G01X49150Y21750D03*
G01X48150Y22750D03*
G01X48150Y21750D03*
G01X47150Y22750D03*
G01X47150Y21750D03*
G01X46150Y22750D03*
G01X46150Y21750D03*
G01X45150Y22750D03*
G01X45150Y21750D03*
G01X44150Y22750D03*
G01X44150Y21750D03*
G01X43150Y22750D03*
G54D20*
G01X43150Y21750D03*
G54D19*
G01X55050Y17250D03*
G01X55050Y16250D03*
G01X54050Y17250D03*
G01X54050Y16250D03*
G01X53050Y17250D03*
G01X53050Y16250D03*
G01X52050Y17250D03*
G01X52050Y16250D03*
G01X51050Y17250D03*
G01X51050Y16250D03*
G01X50050Y17250D03*
G01X50050Y16250D03*
G01X49050Y17250D03*
G01X49050Y16250D03*
G01X48050Y17250D03*
G01X48050Y16250D03*
G01X47050Y17250D03*
G01X47050Y16250D03*
G01X46050Y17250D03*
G01X46050Y16250D03*
G01X45050Y17250D03*
G01X45050Y16250D03*
G01X44050Y17250D03*
G01X44050Y16250D03*
G01X43050Y17250D03*
G54D20*
G01X43050Y16250D03*
G54D19*
G01X55250Y11800D03*
G01X55250Y10800D03*
G01X54250Y11800D03*
G01X54250Y10800D03*
G01X53250Y11800D03*
G01X53250Y10800D03*
G01X52250Y11800D03*
G01X52250Y10800D03*
G01X51250Y11800D03*
G01X51250Y10800D03*
G01X50250Y11800D03*
G01X50250Y10800D03*
G01X49250Y11800D03*
G01X49250Y10800D03*
G01X48250Y11800D03*
G01X48250Y10800D03*
G01X47250Y11800D03*
G01X47250Y10800D03*
G01X46250Y11800D03*
G01X46250Y10800D03*
G01X45250Y11800D03*
G01X45250Y10800D03*
G01X44250Y11800D03*
G01X44250Y10800D03*
G01X43250Y11800D03*
G54D20*
G01X43250Y10800D03*
G54D19*
G01X55150Y6100D03*
G01X55150Y5100D03*
G01X54150Y6100D03*
G01X54150Y5100D03*
G01X53150Y6100D03*
G01X53150Y5100D03*
G01X52150Y6100D03*
G01X52150Y5100D03*
G01X51150Y6100D03*
G01X51150Y5100D03*
G01X50150Y6100D03*
G01X50150Y5100D03*
G01X49150Y6100D03*
G01X49150Y5100D03*
G01X48150Y6100D03*
G01X48150Y5100D03*
G01X47150Y6100D03*
G01X47150Y5100D03*
G01X46150Y6100D03*
G01X46150Y5100D03*
G01X45150Y6100D03*
G01X45150Y5100D03*
G01X44150Y6100D03*
G01X44150Y5100D03*
G01X43150Y6100D03*
G54D20*
G01X43150Y5100D03*
G54D19*
G01X36350Y34250D03*
G01X36350Y33250D03*
G01X35350Y34250D03*
G01X35350Y33250D03*
G01X34350Y34250D03*
G01X34350Y33250D03*
G01X33350Y34250D03*
G01X33350Y33250D03*
G01X32350Y34250D03*
G01X32350Y33250D03*
G01X31350Y34250D03*
G01X31350Y33250D03*
G01X30350Y34250D03*
G01X30350Y33250D03*
G01X29350Y34250D03*
G01X29350Y33250D03*
G01X28350Y34250D03*
G01X28350Y33250D03*
G01X27350Y34250D03*
G01X27350Y33250D03*
G01X26350Y34250D03*
G01X26350Y33250D03*
G01X25350Y34250D03*
G01X25350Y33250D03*
G01X24350Y34250D03*
G54D20*
G01X24350Y33250D03*
G54D19*
G01X36300Y17250D03*
G01X36300Y16250D03*
G01X35300Y17250D03*
G01X35300Y16250D03*
G01X34300Y17250D03*
G01X34300Y16250D03*
G01X33300Y17250D03*
G01X33300Y16250D03*
G01X32300Y17250D03*
G01X32300Y16250D03*
G01X31300Y17250D03*
G01X31300Y16250D03*
G01X30300Y17250D03*
G01X30300Y16250D03*
G01X29300Y17250D03*
G01X29300Y16250D03*
G01X28300Y17250D03*
G01X28300Y16250D03*
G01X27300Y17250D03*
G01X27300Y16250D03*
G01X26300Y17250D03*
G01X26300Y16250D03*
G01X25300Y17250D03*
G01X25300Y16250D03*
G01X24300Y17250D03*
G54D20*
G01X24300Y16250D03*
G54D21*
G01X2000Y37500D03*
G01X2050Y2050D03*
G01X57350Y1950D03*
G01X56600Y37500D03*
G54D19*
G01X36350Y22750D03*
G01X36350Y21750D03*
G01X35350Y22750D03*
G01X35350Y21750D03*
G01X34350Y22750D03*
G01X34350Y21750D03*
G01X33350Y22750D03*
G01X33350Y21750D03*
G01X32350Y22750D03*
G01X32350Y21750D03*
G01X31350Y22750D03*
G01X31350Y21750D03*
G01X30350Y22750D03*
G01X30350Y21750D03*
G01X29350Y22750D03*
G01X29350Y21750D03*
G01X28350Y22750D03*
G01X28350Y21750D03*
G01X27350Y22750D03*
G01X27350Y21750D03*
G01X26350Y22750D03*
G01X26350Y21750D03*
G01X25350Y22750D03*
G01X25350Y21750D03*
G01X24350Y22750D03*
G54D20*
G01X24350Y21750D03*
G54D19*
G01X36350Y28600D03*
G01X36350Y27600D03*
G01X35350Y28600D03*
G01X35350Y27600D03*
G01X34350Y28600D03*
G01X34350Y27600D03*
G01X33350Y28600D03*
G01X33350Y27600D03*
G01X32350Y28600D03*
G01X32350Y27600D03*
G01X31350Y28600D03*
G01X31350Y27600D03*
G01X30350Y28600D03*
G01X30350Y27600D03*
G01X29350Y28600D03*
G01X29350Y27600D03*
G01X28350Y28600D03*
G01X28350Y27600D03*
G01X27350Y28600D03*
G01X27350Y27600D03*
G01X26350Y28600D03*
G01X26350Y27600D03*
G01X25350Y28600D03*
G01X25350Y27600D03*
G01X24350Y28600D03*
G54D20*
G01X24350Y27600D03*
G54D22*
G01X37700Y3750D03*
G54D23*
G01X37700Y4750D03*
G54D24*
G01X29059Y5601D03*
G01X30059Y5601D03*
G01X31059Y5601D03*
G01X32059Y5601D03*
G01X33040Y5594D03*
G01X34040Y5594D03*
G01X29062Y4606D03*
G01X30062Y4606D03*
G01X31062Y4606D03*
G01X32062Y4606D03*
G01X33042Y4599D03*
G01X34042Y4599D03*
G01X29057Y3605D03*
G01X30057Y3605D03*
G01X31057Y3605D03*
G01X32057Y3605D03*
G01X33038Y3598D03*
G01X34038Y3598D03*
G54D13*
G01X46964Y4215D03*
G01X22950Y4067D03*
G01X15313Y29346D03*
G01X20606Y19942D03*
G01X40731Y16513D03*
G01X37971Y22517D03*
G01X21118Y21000D03*
G01X13600Y19755D03*
G01X14222Y16940D03*
G01X17213Y23955D03*
G01X37243Y16592D03*
G01X42640Y27452D03*
G01X38768Y19325D03*
G01X37186Y26727D03*
G01X37885Y26942D03*
G01X24751Y6221D03*
G01X44694Y32096D03*
G01X41880Y18005D03*
G01X45457Y15873D03*
G01X35455Y29496D03*
G01X49056Y31500D03*
G01X50231Y20282D03*
G01X53175Y18207D03*
G01X35172Y14788D03*
G01X51640Y22292D03*
G01X37271Y25471D03*
G01X39129Y25098D03*
G01X16118Y9873D03*
G01X16148Y24869D03*
G01X16677Y25655D03*
G01X5453Y32890D03*
G01X28410Y25682D03*
G01X52950Y23727D03*
G01X33576Y20603D03*
G01X24202Y11800D03*
G01X36527Y11557D03*
G01X11230Y28932D03*
G01X11422Y23121D03*
G01X16192Y26140D03*
G01X15935Y23944D03*
G01X43859Y27717D03*
G01X37871Y16209D03*
G01X26972Y17890D03*
G01X33152Y18011D03*
G01X35122Y29823D03*
G01X30636Y17846D03*
G01X42638Y28515D03*
G01X54081Y21151D03*
M00*
M02*
