G04 Layer: TopSolderMaskLayer*
G04 EasyEDA v6.3.22, 2020-03-25T13:14:10--4:00*
G04 1574771aa074462d83633fc8b9922ba8,dfa15b47affc40b8846523cd8aea0214,10*
G04 Gerber Generator version 0.2*
G04 Scale: 100 percent, Rotated: No, Reflected: No *
G04 Dimensions in inches *
G04 leading zeros omitted , absolute positions ,2 integer and 4 decimal *
%FSLAX24Y24*%
%MOIN*%
G90*
G70D02*

%ADD29C,0.068000*%
%ADD30C,0.067000*%
%ADD32C,0.067055*%
%ADD34C,0.070000*%
%ADD36C,0.254063*%
%ADD37R,0.082803X0.082803*%
%ADD38C,0.082803*%
%ADD39C,0.082000*%

%LPD*%
G54D29*
G01X14950Y11550D03*
G01X14950Y10550D03*
G01X14950Y9550D03*
G01X14950Y8550D03*
G01X14950Y7550D03*
G01X14950Y6550D03*
G01X14950Y5550D03*
G01X14950Y4550D03*
G01X14950Y3550D03*
G01X14950Y2550D03*
G01X19375Y11550D03*
G01X19375Y10550D03*
G01X19375Y9550D03*
G01X19375Y8550D03*
G01X19375Y7550D03*
G01X19375Y6550D03*
G01X19375Y5550D03*
G01X19375Y4550D03*
G01X19375Y3550D03*
G01X19375Y2550D03*
G01X14950Y23500D03*
G01X14950Y22500D03*
G01X14950Y21500D03*
G01X14950Y20500D03*
G01X14950Y19500D03*
G01X14950Y18500D03*
G01X14950Y17500D03*
G01X14950Y16500D03*
G01X14950Y15500D03*
G01X14950Y14500D03*
G01X19375Y23500D03*
G01X19375Y22500D03*
G01X19375Y21500D03*
G01X19375Y20500D03*
G01X19375Y19500D03*
G01X19375Y18500D03*
G01X19375Y17500D03*
G01X19375Y16500D03*
G01X19375Y15500D03*
G01X19375Y14500D03*
G54D30*
G01X23350Y2350D03*
G36*
G01X24014Y2015D02*
G01X24014Y2684D01*
G01X24685Y2684D01*
G01X24685Y2015D01*
G01X24014Y2015D01*
G37*
G01X25350Y2350D03*
G36*
G01X2132Y21307D02*
G01X1957Y21482D01*
G01X1957Y21730D01*
G01X2132Y21905D01*
G01X2378Y21905D01*
G01X2553Y21730D01*
G01X2553Y21482D01*
G01X2378Y21307D01*
G01X2132Y21307D01*
G37*
G36*
G01X2132Y20307D02*
G01X1957Y20482D01*
G01X1957Y20730D01*
G01X2132Y20905D01*
G01X2378Y20905D01*
G01X2553Y20730D01*
G01X2553Y20482D01*
G01X2378Y20307D01*
G01X2132Y20307D01*
G37*
G36*
G01X2132Y19307D02*
G01X1957Y19482D01*
G01X1957Y19730D01*
G01X2132Y19905D01*
G01X2378Y19905D01*
G01X2553Y19730D01*
G01X2553Y19482D01*
G01X2378Y19307D01*
G01X2132Y19307D01*
G37*
G36*
G01X2132Y18307D02*
G01X1957Y18482D01*
G01X1957Y18730D01*
G01X2132Y18905D01*
G01X2378Y18905D01*
G01X2553Y18730D01*
G01X2553Y18482D01*
G01X2378Y18307D01*
G01X2132Y18307D01*
G37*
G36*
G01X2132Y17307D02*
G01X1957Y17482D01*
G01X1957Y17730D01*
G01X2132Y17905D01*
G01X2378Y17905D01*
G01X2553Y17730D01*
G01X2553Y17482D01*
G01X2378Y17307D01*
G01X2132Y17307D01*
G37*
G36*
G01X2132Y16307D02*
G01X1957Y16482D01*
G01X1957Y16730D01*
G01X2132Y16905D01*
G01X2378Y16905D01*
G01X2553Y16730D01*
G01X2553Y16482D01*
G01X2378Y16307D01*
G01X2132Y16307D01*
G37*
G36*
G01X2132Y15307D02*
G01X1957Y15482D01*
G01X1957Y15730D01*
G01X2132Y15905D01*
G01X2378Y15905D01*
G01X2553Y15730D01*
G01X2553Y15482D01*
G01X2378Y15307D01*
G01X2132Y15307D01*
G37*
G36*
G01X2132Y14307D02*
G01X1957Y14482D01*
G01X1957Y14730D01*
G01X2132Y14905D01*
G01X2378Y14905D01*
G01X2553Y14730D01*
G01X2553Y14482D01*
G01X2378Y14307D01*
G01X2132Y14307D01*
G37*
G36*
G01X2132Y13307D02*
G01X1957Y13482D01*
G01X1957Y13730D01*
G01X2132Y13905D01*
G01X2378Y13905D01*
G01X2553Y13730D01*
G01X2553Y13482D01*
G01X2378Y13307D01*
G01X2132Y13307D01*
G37*
G36*
G01X2132Y12307D02*
G01X1957Y12482D01*
G01X1957Y12730D01*
G01X2132Y12905D01*
G01X2378Y12905D01*
G01X2553Y12730D01*
G01X2553Y12482D01*
G01X2378Y12307D01*
G01X2132Y12307D01*
G37*
G36*
G01X2132Y11307D02*
G01X1957Y11482D01*
G01X1957Y11730D01*
G01X2132Y11905D01*
G01X2378Y11905D01*
G01X2553Y11730D01*
G01X2553Y11482D01*
G01X2378Y11307D01*
G01X2132Y11307D01*
G37*
G36*
G01X2132Y10307D02*
G01X1957Y10482D01*
G01X1957Y10730D01*
G01X2132Y10905D01*
G01X2378Y10905D01*
G01X2553Y10730D01*
G01X2553Y10482D01*
G01X2378Y10307D01*
G01X2132Y10307D01*
G37*
G36*
G01X2132Y9307D02*
G01X1957Y9482D01*
G01X1957Y9730D01*
G01X2132Y9905D01*
G01X2378Y9905D01*
G01X2553Y9730D01*
G01X2553Y9482D01*
G01X2378Y9307D01*
G01X2132Y9307D01*
G37*
G36*
G01X2132Y8307D02*
G01X1957Y8482D01*
G01X1957Y8730D01*
G01X2132Y8905D01*
G01X2378Y8905D01*
G01X2553Y8730D01*
G01X2553Y8482D01*
G01X2378Y8307D01*
G01X2132Y8307D01*
G37*
G36*
G01X2132Y7307D02*
G01X1957Y7482D01*
G01X1957Y7730D01*
G01X2132Y7905D01*
G01X2378Y7905D01*
G01X2553Y7730D01*
G01X2553Y7482D01*
G01X2378Y7307D01*
G01X2132Y7307D01*
G37*
G36*
G01X12131Y21307D02*
G01X11956Y21482D01*
G01X11956Y21730D01*
G01X12131Y21905D01*
G01X12378Y21905D01*
G01X12553Y21730D01*
G01X12553Y21482D01*
G01X12378Y21307D01*
G01X12131Y21307D01*
G37*
G36*
G01X12131Y20307D02*
G01X11956Y20482D01*
G01X11956Y20730D01*
G01X12131Y20905D01*
G01X12378Y20905D01*
G01X12553Y20730D01*
G01X12553Y20482D01*
G01X12378Y20307D01*
G01X12131Y20307D01*
G37*
G36*
G01X12131Y19307D02*
G01X11956Y19482D01*
G01X11956Y19730D01*
G01X12131Y19905D01*
G01X12378Y19905D01*
G01X12553Y19730D01*
G01X12553Y19482D01*
G01X12378Y19307D01*
G01X12131Y19307D01*
G37*
G36*
G01X12131Y18307D02*
G01X11956Y18482D01*
G01X11956Y18730D01*
G01X12131Y18905D01*
G01X12378Y18905D01*
G01X12553Y18730D01*
G01X12553Y18482D01*
G01X12378Y18307D01*
G01X12131Y18307D01*
G37*
G36*
G01X12131Y17307D02*
G01X11956Y17482D01*
G01X11956Y17730D01*
G01X12131Y17905D01*
G01X12378Y17905D01*
G01X12553Y17730D01*
G01X12553Y17482D01*
G01X12378Y17307D01*
G01X12131Y17307D01*
G37*
G36*
G01X12131Y16307D02*
G01X11956Y16482D01*
G01X11956Y16730D01*
G01X12131Y16905D01*
G01X12378Y16905D01*
G01X12553Y16730D01*
G01X12553Y16482D01*
G01X12378Y16307D01*
G01X12131Y16307D01*
G37*
G36*
G01X12131Y15307D02*
G01X11956Y15482D01*
G01X11956Y15730D01*
G01X12131Y15905D01*
G01X12378Y15905D01*
G01X12553Y15730D01*
G01X12553Y15482D01*
G01X12378Y15307D01*
G01X12131Y15307D01*
G37*
G36*
G01X12131Y14307D02*
G01X11956Y14482D01*
G01X11956Y14730D01*
G01X12131Y14905D01*
G01X12378Y14905D01*
G01X12553Y14730D01*
G01X12553Y14482D01*
G01X12378Y14307D01*
G01X12131Y14307D01*
G37*
G36*
G01X12131Y13307D02*
G01X11956Y13482D01*
G01X11956Y13730D01*
G01X12131Y13905D01*
G01X12378Y13905D01*
G01X12553Y13730D01*
G01X12553Y13482D01*
G01X12378Y13307D01*
G01X12131Y13307D01*
G37*
G36*
G01X12131Y12307D02*
G01X11956Y12482D01*
G01X11956Y12730D01*
G01X12131Y12905D01*
G01X12378Y12905D01*
G01X12553Y12730D01*
G01X12553Y12482D01*
G01X12378Y12307D01*
G01X12131Y12307D01*
G37*
G36*
G01X12131Y11307D02*
G01X11956Y11482D01*
G01X11956Y11730D01*
G01X12131Y11905D01*
G01X12378Y11905D01*
G01X12553Y11730D01*
G01X12553Y11482D01*
G01X12378Y11307D01*
G01X12131Y11307D01*
G37*
G36*
G01X12131Y10307D02*
G01X11956Y10482D01*
G01X11956Y10730D01*
G01X12131Y10905D01*
G01X12378Y10905D01*
G01X12553Y10730D01*
G01X12553Y10482D01*
G01X12378Y10307D01*
G01X12131Y10307D01*
G37*
G36*
G01X12131Y9307D02*
G01X11956Y9482D01*
G01X11956Y9730D01*
G01X12131Y9905D01*
G01X12378Y9905D01*
G01X12553Y9730D01*
G01X12553Y9482D01*
G01X12378Y9307D01*
G01X12131Y9307D01*
G37*
G36*
G01X12131Y8307D02*
G01X11956Y8482D01*
G01X11956Y8730D01*
G01X12131Y8905D01*
G01X12378Y8905D01*
G01X12553Y8730D01*
G01X12553Y8482D01*
G01X12378Y8307D01*
G01X12131Y8307D01*
G37*
G36*
G01X12131Y7307D02*
G01X11956Y7482D01*
G01X11956Y7730D01*
G01X12131Y7905D01*
G01X12378Y7905D01*
G01X12553Y7730D01*
G01X12553Y7482D01*
G01X12378Y7307D01*
G01X12131Y7307D01*
G37*
G54D32*
G01X5250Y30400D03*
G01X6250Y30400D03*
G01X7250Y30400D03*
G01X8250Y30400D03*
G01X9250Y30400D03*
G01X10250Y30400D03*
G01X11250Y30400D03*
G01X12250Y30400D03*
G01X13250Y30400D03*
G01X14250Y30400D03*
G01X15250Y30400D03*
G01X16250Y30400D03*
G01X17250Y30400D03*
G01X18250Y30400D03*
G01X5250Y33400D03*
G01X6250Y33400D03*
G01X7250Y33400D03*
G01X8250Y33400D03*
G01X9250Y33400D03*
G01X10250Y33400D03*
G01X11250Y33400D03*
G01X12250Y33400D03*
G01X13250Y33400D03*
G01X14250Y33400D03*
G01X15250Y33400D03*
G01X16250Y33400D03*
G01X17250Y33400D03*
G36*
G01X17914Y33065D02*
G01X17914Y33734D01*
G01X18585Y33734D01*
G01X18585Y33065D01*
G01X17914Y33065D01*
G37*
G01X5250Y25400D03*
G01X6250Y25400D03*
G01X7250Y25400D03*
G01X8250Y25400D03*
G01X9250Y25400D03*
G01X10250Y25400D03*
G01X11250Y25400D03*
G01X12250Y25400D03*
G01X13250Y25400D03*
G01X14250Y25400D03*
G01X15250Y25400D03*
G01X16250Y25400D03*
G01X17250Y25400D03*
G01X18250Y25400D03*
G01X5250Y28400D03*
G01X6250Y28400D03*
G01X7250Y28400D03*
G01X8250Y28400D03*
G01X9250Y28400D03*
G01X10250Y28400D03*
G01X11250Y28400D03*
G01X12250Y28400D03*
G01X13250Y28400D03*
G01X14250Y28400D03*
G01X15250Y28400D03*
G01X16250Y28400D03*
G01X17250Y28400D03*
G36*
G01X17914Y28065D02*
G01X17914Y28734D01*
G01X18585Y28734D01*
G01X18585Y28065D01*
G01X17914Y28065D01*
G37*
G01X5250Y35400D03*
G01X6250Y35400D03*
G01X7250Y35400D03*
G01X8250Y35400D03*
G01X9250Y35400D03*
G01X10250Y35400D03*
G01X11250Y35400D03*
G01X12250Y35400D03*
G01X13250Y35400D03*
G01X14250Y35400D03*
G01X15250Y35400D03*
G01X16250Y35400D03*
G01X17250Y35400D03*
G01X18250Y35400D03*
G01X5250Y38400D03*
G01X6250Y38400D03*
G01X7250Y38400D03*
G01X8250Y38400D03*
G01X9250Y38400D03*
G01X10250Y38400D03*
G01X11250Y38400D03*
G01X12250Y38400D03*
G01X13250Y38400D03*
G01X14250Y38400D03*
G01X15250Y38400D03*
G01X16250Y38400D03*
G01X17250Y38400D03*
G36*
G01X17914Y38065D02*
G01X17914Y38734D01*
G01X18585Y38734D01*
G01X18585Y38065D01*
G01X17914Y38065D01*
G37*
G54D34*
G01X55300Y34250D03*
G01X55300Y33250D03*
G01X54300Y34250D03*
G01X54300Y33250D03*
G01X53300Y34250D03*
G01X53300Y33250D03*
G01X52300Y34250D03*
G01X52300Y33250D03*
G01X51300Y34250D03*
G01X51300Y33250D03*
G01X50300Y34250D03*
G01X50300Y33250D03*
G01X49300Y34250D03*
G01X49300Y33250D03*
G01X48300Y34250D03*
G01X48300Y33250D03*
G01X47300Y34250D03*
G01X47300Y33250D03*
G01X46300Y34250D03*
G01X46300Y33250D03*
G01X45300Y34250D03*
G01X45300Y33250D03*
G01X44300Y34250D03*
G01X44300Y33250D03*
G01X43300Y34250D03*
G36*
G01X42950Y32900D02*
G01X42950Y33600D01*
G01X43650Y33600D01*
G01X43650Y32900D01*
G01X42950Y32900D01*
G37*
G01X55350Y28600D03*
G01X55350Y27600D03*
G01X54350Y28600D03*
G01X54350Y27600D03*
G01X53350Y28600D03*
G01X53350Y27600D03*
G01X52350Y28600D03*
G01X52350Y27600D03*
G01X51350Y28600D03*
G01X51350Y27600D03*
G01X50350Y28600D03*
G01X50350Y27600D03*
G01X49350Y28600D03*
G01X49350Y27600D03*
G01X48350Y28600D03*
G01X48350Y27600D03*
G01X47350Y28600D03*
G01X47350Y27600D03*
G01X46350Y28600D03*
G01X46350Y27600D03*
G01X45350Y28600D03*
G01X45350Y27600D03*
G01X44350Y28600D03*
G01X44350Y27600D03*
G01X43350Y28600D03*
G36*
G01X43000Y27250D02*
G01X43000Y27950D01*
G01X43700Y27950D01*
G01X43700Y27250D01*
G01X43000Y27250D01*
G37*
G01X55150Y22750D03*
G01X55150Y21750D03*
G01X54150Y22750D03*
G01X54150Y21750D03*
G01X53150Y22750D03*
G01X53150Y21750D03*
G01X52150Y22750D03*
G01X52150Y21750D03*
G01X51150Y22750D03*
G01X51150Y21750D03*
G01X50150Y22750D03*
G01X50150Y21750D03*
G01X49150Y22750D03*
G01X49150Y21750D03*
G01X48150Y22750D03*
G01X48150Y21750D03*
G01X47150Y22750D03*
G01X47150Y21750D03*
G01X46150Y22750D03*
G01X46150Y21750D03*
G01X45150Y22750D03*
G01X45150Y21750D03*
G01X44150Y22750D03*
G01X44150Y21750D03*
G01X43150Y22750D03*
G36*
G01X42800Y21400D02*
G01X42800Y22100D01*
G01X43500Y22100D01*
G01X43500Y21400D01*
G01X42800Y21400D01*
G37*
G01X55050Y17250D03*
G01X55050Y16250D03*
G01X54050Y17250D03*
G01X54050Y16250D03*
G01X53050Y17250D03*
G01X53050Y16250D03*
G01X52050Y17250D03*
G01X52050Y16250D03*
G01X51050Y17250D03*
G01X51050Y16250D03*
G01X50050Y17250D03*
G01X50050Y16250D03*
G01X49050Y17250D03*
G01X49050Y16250D03*
G01X48050Y17250D03*
G01X48050Y16250D03*
G01X47050Y17250D03*
G01X47050Y16250D03*
G01X46050Y17250D03*
G01X46050Y16250D03*
G01X45050Y17250D03*
G01X45050Y16250D03*
G01X44050Y17250D03*
G01X44050Y16250D03*
G01X43050Y17250D03*
G36*
G01X42700Y15900D02*
G01X42700Y16600D01*
G01X43400Y16600D01*
G01X43400Y15900D01*
G01X42700Y15900D01*
G37*
G01X55250Y11800D03*
G01X55250Y10800D03*
G01X54250Y11800D03*
G01X54250Y10800D03*
G01X53250Y11800D03*
G01X53250Y10800D03*
G01X52250Y11800D03*
G01X52250Y10800D03*
G01X51250Y11800D03*
G01X51250Y10800D03*
G01X50250Y11800D03*
G01X50250Y10800D03*
G01X49250Y11800D03*
G01X49250Y10800D03*
G01X48250Y11800D03*
G01X48250Y10800D03*
G01X47250Y11800D03*
G01X47250Y10800D03*
G01X46250Y11800D03*
G01X46250Y10800D03*
G01X45250Y11800D03*
G01X45250Y10800D03*
G01X44250Y11800D03*
G01X44250Y10800D03*
G01X43250Y11800D03*
G36*
G01X42900Y10450D02*
G01X42900Y11150D01*
G01X43600Y11150D01*
G01X43600Y10450D01*
G01X42900Y10450D01*
G37*
G01X55150Y6100D03*
G01X55150Y5100D03*
G01X54150Y6100D03*
G01X54150Y5100D03*
G01X53150Y6100D03*
G01X53150Y5100D03*
G01X52150Y6100D03*
G01X52150Y5100D03*
G01X51150Y6100D03*
G01X51150Y5100D03*
G01X50150Y6100D03*
G01X50150Y5100D03*
G01X49150Y6100D03*
G01X49150Y5100D03*
G01X48150Y6100D03*
G01X48150Y5100D03*
G01X47150Y6100D03*
G01X47150Y5100D03*
G01X46150Y6100D03*
G01X46150Y5100D03*
G01X45150Y6100D03*
G01X45150Y5100D03*
G01X44150Y6100D03*
G01X44150Y5100D03*
G01X43150Y6100D03*
G36*
G01X42800Y4750D02*
G01X42800Y5450D01*
G01X43500Y5450D01*
G01X43500Y4750D01*
G01X42800Y4750D01*
G37*
G01X36350Y34250D03*
G01X36350Y33250D03*
G01X35350Y34250D03*
G01X35350Y33250D03*
G01X34350Y34250D03*
G01X34350Y33250D03*
G01X33350Y34250D03*
G01X33350Y33250D03*
G01X32350Y34250D03*
G01X32350Y33250D03*
G01X31350Y34250D03*
G01X31350Y33250D03*
G01X30350Y34250D03*
G01X30350Y33250D03*
G01X29350Y34250D03*
G01X29350Y33250D03*
G01X28350Y34250D03*
G01X28350Y33250D03*
G01X27350Y34250D03*
G01X27350Y33250D03*
G01X26350Y34250D03*
G01X26350Y33250D03*
G01X25350Y34250D03*
G01X25350Y33250D03*
G01X24350Y34250D03*
G36*
G01X24000Y32900D02*
G01X24000Y33600D01*
G01X24700Y33600D01*
G01X24700Y32900D01*
G01X24000Y32900D01*
G37*
G01X36300Y17250D03*
G01X36300Y16250D03*
G01X35300Y17250D03*
G01X35300Y16250D03*
G01X34300Y17250D03*
G01X34300Y16250D03*
G01X33300Y17250D03*
G01X33300Y16250D03*
G01X32300Y17250D03*
G01X32300Y16250D03*
G01X31300Y17250D03*
G01X31300Y16250D03*
G01X30300Y17250D03*
G01X30300Y16250D03*
G01X29300Y17250D03*
G01X29300Y16250D03*
G01X28300Y17250D03*
G01X28300Y16250D03*
G01X27300Y17250D03*
G01X27300Y16250D03*
G01X26300Y17250D03*
G01X26300Y16250D03*
G01X25300Y17250D03*
G01X25300Y16250D03*
G01X24300Y17250D03*
G36*
G01X23950Y15900D02*
G01X23950Y16600D01*
G01X24650Y16600D01*
G01X24650Y15900D01*
G01X23950Y15900D01*
G37*
G54D36*
G01X2000Y37500D03*
G01X2050Y2050D03*
G01X57350Y1950D03*
G01X56600Y37500D03*
G54D34*
G01X36350Y22750D03*
G01X36350Y21750D03*
G01X35350Y22750D03*
G01X35350Y21750D03*
G01X34350Y22750D03*
G01X34350Y21750D03*
G01X33350Y22750D03*
G01X33350Y21750D03*
G01X32350Y22750D03*
G01X32350Y21750D03*
G01X31350Y22750D03*
G01X31350Y21750D03*
G01X30350Y22750D03*
G01X30350Y21750D03*
G01X29350Y22750D03*
G01X29350Y21750D03*
G01X28350Y22750D03*
G01X28350Y21750D03*
G01X27350Y22750D03*
G01X27350Y21750D03*
G01X26350Y22750D03*
G01X26350Y21750D03*
G01X25350Y22750D03*
G01X25350Y21750D03*
G01X24350Y22750D03*
G36*
G01X24000Y21400D02*
G01X24000Y22100D01*
G01X24700Y22100D01*
G01X24700Y21400D01*
G01X24000Y21400D01*
G37*
G01X36350Y28600D03*
G01X36350Y27600D03*
G01X35350Y28600D03*
G01X35350Y27600D03*
G01X34350Y28600D03*
G01X34350Y27600D03*
G01X33350Y28600D03*
G01X33350Y27600D03*
G01X32350Y28600D03*
G01X32350Y27600D03*
G01X31350Y28600D03*
G01X31350Y27600D03*
G01X30350Y28600D03*
G01X30350Y27600D03*
G01X29350Y28600D03*
G01X29350Y27600D03*
G01X28350Y28600D03*
G01X28350Y27600D03*
G01X27350Y28600D03*
G01X27350Y27600D03*
G01X26350Y28600D03*
G01X26350Y27600D03*
G01X25350Y28600D03*
G01X25350Y27600D03*
G01X24350Y28600D03*
G36*
G01X24000Y27250D02*
G01X24000Y27950D01*
G01X24700Y27950D01*
G01X24700Y27250D01*
G01X24000Y27250D01*
G37*
G54D37*
G01X37700Y3750D03*
G54D38*
G01X37700Y4750D03*
G54D39*
G01X29059Y5601D03*
G01X30059Y5601D03*
G01X31059Y5601D03*
G01X32059Y5601D03*
G01X33040Y5594D03*
G01X34040Y5594D03*
G01X29062Y4606D03*
G01X30062Y4606D03*
G01X31062Y4606D03*
G01X32062Y4606D03*
G01X33042Y4599D03*
G01X34042Y4599D03*
G01X29057Y3605D03*
G01X30057Y3605D03*
G01X31057Y3605D03*
G01X32057Y3605D03*
G01X33038Y3598D03*
G01X34038Y3598D03*
M00*
M02*
