;Layer: Drill PTH
;EasyEDA v6.3.22, 2020-03-25T13:14:10--4:00
;1574771aa074462d83633fc8b9922ba8,dfa15b47affc40b8846523cd8aea0214,10
;Gerber Generator version 0.2
M48
INCH,LZ,00.0000
;Holesize 1 = 0.012 INCH
T01C0.012
;Holesize 2 = 0.035 INCH
T02C0.035
;Holesize 3 = 0.035 INCH
T03C0.035
;Holesize 4 = 0.036 INCH
T04C0.036
;Holesize 5 = 0.040 INCH
T05C0.040
;Holesize 6 = 0.051 INCH
T06C0.051
;Holesize 7 = 0.123 INCH
T07C0.123
%
G05
G90
T01
X+046964Y+004215
X+022950Y+004067
X+015313Y+029346
X+020606Y+019942
X+040731Y+016513
X+037971Y+022517
X+021118Y+021000
X+013600Y+019755
X+014222Y+016940
X+017213Y+023955
X+037243Y+016592
X+042640Y+027452
X+038768Y+019325
X+037186Y+026727
X+037885Y+026942
X+024751Y+006221
X+044694Y+032096
X+041880Y+018005
X+045457Y+015873
X+035455Y+029496
X+049056Y+031500
X+050231Y+020282
X+053175Y+018207
X+035172Y+014788
X+051640Y+022292
X+037271Y+025471
X+039129Y+025098
X+016118Y+009873
X+016148Y+024869
X+016677Y+025655
X+005453Y+032890
X+028410Y+025682
X+052950Y+023727
X+033576Y+020603
X+024202Y+011800
X+036527Y+011557
X+011230Y+028932
X+011422Y+023121
X+016192Y+026140
X+015935Y+023944
X+043859Y+027717
X+037871Y+016209
X+026972Y+017890
X+033152Y+018011
X+035122Y+029823
X+030636Y+017846
X+042638Y+028515
X+054081Y+021151
T02
X+055300Y+034250
X+055300Y+033250
X+054300Y+034250
X+054300Y+033250
X+053300Y+034250
X+053300Y+033250
X+052300Y+034250
X+052300Y+033250
X+051300Y+034250
X+051300Y+033250
X+050300Y+034250
X+050300Y+033250
X+049300Y+034250
X+049300Y+033250
X+048300Y+034250
X+048300Y+033250
X+047300Y+034250
X+047300Y+033250
X+046300Y+034250
X+046300Y+033250
X+045300Y+034250
X+045300Y+033250
X+044300Y+034250
X+044300Y+033250
X+043300Y+034250
X+043300Y+033250
X+055350Y+028600
X+055350Y+027600
X+054350Y+028600
X+054350Y+027600
X+053350Y+028600
X+053350Y+027600
X+052350Y+028600
X+052350Y+027600
X+051350Y+028600
X+051350Y+027600
X+050350Y+028600
X+050350Y+027600
X+049350Y+028600
X+049350Y+027600
X+048350Y+028600
X+048350Y+027600
X+047350Y+028600
X+047350Y+027600
X+046350Y+028600
X+046350Y+027600
X+045350Y+028600
X+045350Y+027600
X+044350Y+028600
X+044350Y+027600
X+043350Y+028600
X+043350Y+027600
X+055150Y+022750
X+055150Y+021750
X+054150Y+022750
X+054150Y+021750
X+053150Y+022750
X+053150Y+021750
X+052150Y+022750
X+052150Y+021750
X+051150Y+022750
X+051150Y+021750
X+050150Y+022750
X+050150Y+021750
X+049150Y+022750
X+049150Y+021750
X+048150Y+022750
X+048150Y+021750
X+047150Y+022750
X+047150Y+021750
X+046150Y+022750
X+046150Y+021750
X+045150Y+022750
X+045150Y+021750
X+044150Y+022750
X+044150Y+021750
X+043150Y+022750
X+043150Y+021750
X+055050Y+017250
X+055050Y+016250
X+054050Y+017250
X+054050Y+016250
X+053050Y+017250
X+053050Y+016250
X+052050Y+017250
X+052050Y+016250
X+051050Y+017250
X+051050Y+016250
X+050050Y+017250
X+050050Y+016250
X+049050Y+017250
X+049050Y+016250
X+048050Y+017250
X+048050Y+016250
X+047050Y+017250
X+047050Y+016250
X+046050Y+017250
X+046050Y+016250
X+045050Y+017250
X+045050Y+016250
X+044050Y+017250
X+044050Y+016250
X+043050Y+017250
X+043050Y+016250
X+055250Y+011800
X+055250Y+010800
X+054250Y+011800
X+054250Y+010800
X+053250Y+011800
X+053250Y+010800
X+052250Y+011800
X+052250Y+010800
X+051250Y+011800
X+051250Y+010800
X+050250Y+011800
X+050250Y+010800
X+049250Y+011800
X+049250Y+010800
X+048250Y+011800
X+048250Y+010800
X+047250Y+011800
X+047250Y+010800
X+046250Y+011800
X+046250Y+010800
X+045250Y+011800
X+045250Y+010800
X+044250Y+011800
X+044250Y+010800
X+043250Y+011800
X+043250Y+010800
X+055150Y+006100
X+055150Y+005100
X+054150Y+006100
X+054150Y+005100
X+053150Y+006100
X+053150Y+005100
X+052150Y+006100
X+052150Y+005100
X+051150Y+006100
X+051150Y+005100
X+050150Y+006100
X+050150Y+005100
X+049150Y+006100
X+049150Y+005100
X+048150Y+006100
X+048150Y+005100
X+047150Y+006100
X+047150Y+005100
X+046150Y+006100
X+046150Y+005100
X+045150Y+006100
X+045150Y+005100
X+044150Y+006100
X+044150Y+005100
X+043150Y+006100
X+043150Y+005100
X+036350Y+034250
X+036350Y+033250
X+035350Y+034250
X+035350Y+033250
X+034350Y+034250
X+034350Y+033250
X+033350Y+034250
X+033350Y+033250
X+032350Y+034250
X+032350Y+033250
X+031350Y+034250
X+031350Y+033250
X+030350Y+034250
X+030350Y+033250
X+029350Y+034250
X+029350Y+033250
X+028350Y+034250
X+028350Y+033250
X+027350Y+034250
X+027350Y+033250
X+026350Y+034250
X+026350Y+033250
X+025350Y+034250
X+025350Y+033250
X+024350Y+034250
X+024350Y+033250
X+036300Y+017250
X+036300Y+016250
X+035300Y+017250
X+035300Y+016250
X+034300Y+017250
X+034300Y+016250
X+033300Y+017250
X+033300Y+016250
X+032300Y+017250
X+032300Y+016250
X+031300Y+017250
X+031300Y+016250
X+030300Y+017250
X+030300Y+016250
X+029300Y+017250
X+029300Y+016250
X+028300Y+017250
X+028300Y+016250
X+027300Y+017250
X+027300Y+016250
X+026300Y+017250
X+026300Y+016250
X+025300Y+017250
X+025300Y+016250
X+024300Y+017250
X+024300Y+016250
X+036350Y+022750
X+036350Y+021750
X+035350Y+022750
X+035350Y+021750
X+034350Y+022750
X+034350Y+021750
X+033350Y+022750
X+033350Y+021750
X+032350Y+022750
X+032350Y+021750
X+031350Y+022750
X+031350Y+021750
X+030350Y+022750
X+030350Y+021750
X+029350Y+022750
X+029350Y+021750
X+028350Y+022750
X+028350Y+021750
X+027350Y+022750
X+027350Y+021750
X+026350Y+022750
X+026350Y+021750
X+025350Y+022750
X+025350Y+021750
X+024350Y+022750
X+024350Y+021750
X+036350Y+028600
X+036350Y+027600
X+035350Y+028600
X+035350Y+027600
X+034350Y+028600
X+034350Y+027600
X+033350Y+028600
X+033350Y+027600
X+032350Y+028600
X+032350Y+027600
X+031350Y+028600
X+031350Y+027600
X+030350Y+028600
X+030350Y+027600
X+029350Y+028600
X+029350Y+027600
X+028350Y+028600
X+028350Y+027600
X+027350Y+028600
X+027350Y+027600
X+026350Y+028600
X+026350Y+027600
X+025350Y+028600
X+025350Y+027600
X+024350Y+028600
X+024350Y+027600
T03
X+002255Y+021607G85X+002255Y+021607
X+002255Y+020607G85X+002255Y+020607
X+002255Y+019607G85X+002255Y+019607
X+002255Y+018607G85X+002255Y+018607
X+002255Y+017607G85X+002255Y+017607
X+002255Y+016607G85X+002255Y+016607
X+002255Y+015607G85X+002255Y+015607
X+002255Y+014607G85X+002255Y+014607
X+002255Y+013607G85X+002255Y+013607
X+002255Y+012607G85X+002255Y+012607
X+002255Y+011607G85X+002255Y+011607
X+002255Y+010607G85X+002255Y+010607
X+002255Y+009607G85X+002255Y+009607
X+002255Y+008607G85X+002255Y+008607
X+002255Y+007607G85X+002255Y+007607
X+012255Y+021607G85X+012255Y+021607
X+012255Y+020607G85X+012255Y+020607
X+012255Y+019607G85X+012255Y+019607
X+012255Y+018607G85X+012255Y+018607
X+012255Y+017607G85X+012255Y+017607
X+012255Y+016607G85X+012255Y+016607
X+012255Y+015607G85X+012255Y+015607
X+012255Y+014607G85X+012255Y+014607
X+012255Y+013607G85X+012255Y+013607
X+012255Y+012607G85X+012255Y+012607
X+012255Y+011607G85X+012255Y+011607
X+012255Y+010607G85X+012255Y+010607
X+012255Y+009607G85X+012255Y+009607
X+012255Y+008607G85X+012255Y+008607
X+012255Y+007607G85X+012255Y+007607
X+005250Y+030400
X+006250Y+030400
X+007250Y+030400
X+008250Y+030400
X+009250Y+030400
X+010250Y+030400
X+011250Y+030400
X+012250Y+030400
X+013250Y+030400
X+014250Y+030400
X+015250Y+030400
X+016250Y+030400
X+017250Y+030400
X+018250Y+030400
X+005250Y+033400
X+006250Y+033400
X+007250Y+033400
X+008250Y+033400
X+009250Y+033400
X+010250Y+033400
X+011250Y+033400
X+012250Y+033400
X+013250Y+033400
X+014250Y+033400
X+015250Y+033400
X+016250Y+033400
X+017250Y+033400
X+018250Y+033400
X+005250Y+025400
X+006250Y+025400
X+007250Y+025400
X+008250Y+025400
X+009250Y+025400
X+010250Y+025400
X+011250Y+025400
X+012250Y+025400
X+013250Y+025400
X+014250Y+025400
X+015250Y+025400
X+016250Y+025400
X+017250Y+025400
X+018250Y+025400
X+005250Y+028400
X+006250Y+028400
X+007250Y+028400
X+008250Y+028400
X+009250Y+028400
X+010250Y+028400
X+011250Y+028400
X+012250Y+028400
X+013250Y+028400
X+014250Y+028400
X+015250Y+028400
X+016250Y+028400
X+017250Y+028400
X+018250Y+028400
X+005250Y+035400
X+006250Y+035400
X+007250Y+035400
X+008250Y+035400
X+009250Y+035400
X+010250Y+035400
X+011250Y+035400
X+012250Y+035400
X+013250Y+035400
X+014250Y+035400
X+015250Y+035400
X+016250Y+035400
X+017250Y+035400
X+018250Y+035400
X+005250Y+038400
X+006250Y+038400
X+007250Y+038400
X+008250Y+038400
X+009250Y+038400
X+010250Y+038400
X+011250Y+038400
X+012250Y+038400
X+013250Y+038400
X+014250Y+038400
X+015250Y+038400
X+016250Y+038400
X+017250Y+038400
X+018250Y+038400
T04
X+014950Y+011550
X+014950Y+010550
X+014950Y+009550
X+014950Y+008550
X+014950Y+007550
X+014950Y+006550
X+014950Y+005550
X+014950Y+004550
X+014950Y+003550
X+014950Y+002550
X+019375Y+011550
X+019375Y+010550
X+019375Y+009550
X+019375Y+008550
X+019375Y+007550
X+019375Y+006550
X+019375Y+005550
X+019375Y+004550
X+019375Y+003550
X+019375Y+002550
X+014950Y+023500
X+014950Y+022500
X+014950Y+021500
X+014950Y+020500
X+014950Y+019500
X+014950Y+018500
X+014950Y+017500
X+014950Y+016500
X+014950Y+015500
X+014950Y+014500
X+019375Y+023500
X+019375Y+022500
X+019375Y+021500
X+019375Y+020500
X+019375Y+019500
X+019375Y+018500
X+019375Y+017500
X+019375Y+016500
X+019375Y+015500
X+019375Y+014500
X+023350Y+002350
X+024350Y+002350
X+025350Y+002350
T05
X+029059Y+005601
X+030059Y+005601
X+031059Y+005601
X+032059Y+005601
X+033040Y+005594
X+034040Y+005594
X+029062Y+004606
X+030062Y+004606
X+031062Y+004606
X+032062Y+004606
X+033042Y+004599
X+034042Y+004599
X+029057Y+003605
X+030057Y+003605
X+031057Y+003605
X+032057Y+003605
X+033037Y+003598
X+034037Y+003598
T06
X+037700Y+003750
X+037700Y+004750
T07
X+002000Y+037500
X+002050Y+002050
X+057350Y+001950
X+056600Y+037500
M30
