G04 Layer: BottomLayer*
G04 EasyEDA v6.3.22, 2020-01-23T21:12:46--5:00*
G04 cdd6f56302204649af62c86a061be503,dfa15b47affc40b8846523cd8aea0214,10*
G04 Gerber Generator version 0.2*
G04 Scale: 100 percent, Rotated: No, Reflected: No *
G04 Dimensions in inches *
G04 leading zeros omitted , absolute positions ,2 integer and 4 decimal *
%FSLAX24Y24*%
%MOIN*%
G90*
G70D02*

%ADD12C,0.006000*%
%ADD13C,0.024000*%
%ADD14C,0.060000*%
%ADD15C,0.062000*%
%ADD16R,0.062000X0.062000*%
%ADD17C,0.059000*%
%ADD18R,0.059000X0.059000*%
%ADD19C,0.059055*%
%ADD20R,0.059055X0.059055*%
%ADD21C,0.246063*%
%ADD22R,0.074803X0.074803*%
%ADD23C,0.074803*%

%LPD*%
G54D12*
G01X15207Y12592D02*
G01X15207Y13521D01*
G01X14555Y14173D01*
G01X14555Y14671D01*
G01X14884Y15000D01*
G01X15018Y15000D01*
G01X17000Y16982D01*
G01X17000Y17503D01*
G01X16831Y17673D01*
G01X16831Y31913D01*
G01X17103Y32186D01*
G01X39272Y19388D02*
G01X39272Y19771D01*
G01X36350Y22692D01*
G01X36350Y22750D01*
G01X14950Y7550D02*
G01X15684Y8284D01*
G01X15684Y11930D01*
G01X15232Y12382D01*
G01X15119Y12382D01*
G01X14997Y12505D01*
G01X14997Y13546D01*
G01X14432Y14109D01*
G01X14432Y18982D01*
G01X14950Y19500D01*
G01X36350Y22750D02*
G01X36350Y23140D01*
G01X36780Y23569D01*
G01X36780Y28169D01*
G01X36350Y28600D01*
G01X35350Y33250D02*
G01X36350Y32250D01*
G01X36350Y28600D01*
G01X10250Y33400D02*
G01X8250Y31400D01*
G01X8250Y30400D01*
G01X8250Y35400D02*
G01X10250Y33400D01*
G01X10250Y28400D02*
G01X8250Y30400D01*
G01X10250Y38400D02*
G01X8250Y36400D01*
G01X8250Y35400D01*
G01X13250Y30400D02*
G01X13250Y31194D01*
G01X14438Y32382D01*
G01X14681Y32382D01*
G01X14740Y32323D01*
G01X14740Y31961D01*
G01X13857Y31078D01*
G01X13857Y25134D01*
G01X14369Y24621D01*
G01X14369Y22080D01*
G01X14950Y21500D01*
G01X14950Y16500D02*
G01X15903Y17453D01*
G01X15903Y18911D01*
G01X15850Y18963D01*
G01X15850Y30000D01*
G01X16250Y30400D01*
G01X17250Y30400D02*
G01X17375Y30525D01*
G01X17375Y32234D01*
G01X17203Y32405D01*
G01X16939Y32405D01*
G01X16659Y32123D01*
G01X16659Y17611D01*
G01X16878Y17392D01*
G01X16878Y17032D01*
G01X16750Y16903D01*
G01X16352Y16903D01*
G01X14950Y15500D01*
G01X14950Y14500D02*
G01X17656Y17207D01*
G01X17656Y29807D01*
G01X18250Y30400D01*
G01X19375Y16500D02*
G01X23435Y12440D01*
G01X23435Y6146D01*
G01X23481Y6100D01*
G01X47300Y33250D02*
G01X47726Y33676D01*
G01X47726Y34430D01*
G01X47455Y34702D01*
G01X46167Y34702D01*
G01X45800Y34334D01*
G01X45800Y34165D01*
G01X45339Y33704D01*
G01X44142Y33704D01*
G01X43890Y33452D01*
G01X43890Y23805D01*
G01X44551Y23146D01*
G01X44551Y19788D01*
G01X45460Y18878D01*
G01X45460Y17069D01*
G01X45239Y16848D01*
G01X45018Y16848D01*
G01X44550Y16380D01*
G01X44550Y15984D01*
G01X43764Y15200D01*
G01X19375Y15500D02*
G01X19768Y15105D01*
G01X20285Y15105D01*
G01X47350Y27600D02*
G01X46563Y26813D01*
G01X46563Y17675D01*
G01X33300Y4750D02*
G01X33300Y11684D01*
G01X36077Y14461D01*
G01X36077Y14771D01*
G01X36085Y10309D02*
G01X34859Y9082D01*
G01X34859Y4665D01*
G01X34489Y4296D01*
G01X34277Y4296D01*
G01X33701Y3719D01*
G01X33701Y3555D01*
G01X33485Y3340D01*
G01X32123Y3340D01*
G01X31800Y3663D01*
G01X31800Y4250D01*
G01X31300Y4750D01*
G01X46898Y11151D02*
G01X46846Y11203D01*
G01X46846Y14892D01*
G01X47551Y15598D01*
G01X47551Y26801D01*
G01X48350Y27600D01*
G01X30300Y4750D02*
G01X30300Y9728D01*
G01X34556Y13984D01*
G01X48300Y33250D02*
G01X48768Y32782D01*
G01X48768Y23246D01*
G01X48648Y23127D01*
G01X48648Y14405D01*
G01X48227Y13984D01*
G01X10192Y32888D02*
G01X10635Y32444D01*
G01X10635Y23940D01*
G01X12240Y22334D01*
G01X12377Y22334D01*
G01X12868Y21844D01*
G01X12868Y20686D01*
G01X12856Y20675D01*
G01X12856Y10209D01*
G01X12256Y9607D01*
G01X17871Y22909D02*
G01X18103Y22676D01*
G01X18103Y22173D01*
G01X19277Y21000D01*
G01X19550Y21000D01*
G01X23898Y16651D01*
G01X23898Y16250D01*
G01X24300Y16250D02*
G01X23898Y16250D01*
G01X17893Y22465D02*
G01X17893Y21394D01*
G01X19286Y20000D01*
G01X19482Y20000D01*
G01X23189Y16294D01*
G01X23189Y15926D01*
G01X13250Y25400D02*
G01X13614Y25034D01*
G01X13614Y20611D01*
G01X13764Y20461D01*
G01X13764Y20059D01*
G01X13731Y20026D01*
G01X18122Y23567D02*
G01X18746Y22942D01*
G01X21234Y22942D01*
G01X26777Y17398D01*
G01X26777Y16811D01*
G01X27300Y16290D01*
G01X27300Y16250D01*
G01X18250Y25400D02*
G01X17900Y25050D01*
G01X17900Y23490D01*
G01X18240Y23150D01*
G01X18240Y23063D01*
G01X19305Y22000D01*
G01X21167Y22000D01*
G01X25800Y17367D01*
G01X25800Y17153D01*
G01X26105Y16848D01*
G01X26442Y16848D01*
G01X26817Y16473D01*
G01X14250Y35400D02*
G01X15750Y33900D01*
G01X15750Y33348D01*
G01X16177Y32919D01*
G01X16927Y32919D01*
G01X17053Y32792D01*
G01X17053Y32792D01*
G01X17246Y32792D01*
G01X18168Y31869D01*
G01X18168Y31867D01*
G01X26925Y23111D01*
G01X26925Y22175D01*
G01X27350Y21750D01*
G01X35300Y17250D02*
G01X35300Y17803D01*
G01X35122Y17980D01*
G01X43956Y23442D02*
G01X43605Y23442D01*
G01X42617Y24430D01*
G01X47339Y18463D02*
G01X46748Y19053D01*
G01X46748Y26621D01*
G01X46776Y26648D01*
G01X25350Y22750D02*
G01X25850Y22250D01*
G01X25850Y19878D01*
G01X27800Y17928D01*
G01X27800Y13948D01*
G01X30619Y11128D01*
G01X30790Y11128D01*
G01X33757Y14096D01*
G01X33757Y14317D01*
G01X44936Y7265D02*
G01X41342Y10859D01*
G01X41342Y15411D01*
G01X35350Y21403D01*
G01X35350Y21750D01*
G01X33350Y21750D02*
G01X36139Y18959D01*
G01X36346Y18959D01*
G01X36469Y18836D01*
G01X36469Y18630D01*
G01X39619Y15480D01*
G01X39619Y10519D01*
G01X43654Y6484D01*
G01X43654Y6000D01*
G01X44152Y5501D01*
G01X44415Y5501D01*
G01X44650Y5267D01*
G01X44650Y4982D01*
G01X45064Y4569D01*
G01X53618Y4569D01*
G01X54150Y5100D01*
G01X35350Y22750D02*
G01X35806Y22292D01*
G01X35806Y21142D01*
G01X42510Y14438D01*
G01X42510Y10603D01*
G01X45452Y7663D01*
G01X33350Y22750D02*
G01X33850Y22250D01*
G01X33850Y21628D01*
G01X40831Y14646D01*
G01X40831Y9988D01*
G01X44650Y6169D01*
G01X44650Y5955D01*
G01X44960Y5646D01*
G01X45172Y5646D01*
G01X45618Y5200D01*
G01X45618Y5063D01*
G01X45992Y4690D01*
G01X52739Y4690D01*
G01X53150Y5100D01*
G01X43300Y34250D02*
G01X42852Y34698D01*
G01X35225Y34698D01*
G01X34811Y34284D01*
G01X34811Y32196D01*
G01X31948Y29332D01*
G01X31948Y28592D01*
G01X31553Y28198D01*
G01X31339Y28198D01*
G01X30948Y27807D01*
G01X30948Y27475D01*
G01X29607Y26134D01*
G01X36857Y23348D02*
G01X42109Y28600D01*
G01X43350Y28600D01*
G01X32850Y21859D02*
G01X32850Y15436D01*
G01X33514Y14771D01*
G01X29350Y22750D02*
G01X29350Y22578D01*
G01X29934Y21994D01*
G01X29934Y19296D01*
G01X31739Y17490D01*
G01X31739Y17115D01*
G01X31473Y16848D01*
G01X31218Y16848D01*
G01X30878Y16509D01*
G01X30878Y14546D01*
G01X30957Y14467D01*
G01X27350Y22750D02*
G01X27850Y22250D01*
G01X27850Y20380D01*
G01X30739Y17490D01*
G01X30739Y17115D01*
G01X30473Y16848D01*
G01X30218Y16848D01*
G01X29865Y16496D01*
G01X29865Y12182D01*
G01X30686Y11361D01*
G01X13928Y21042D02*
G01X13942Y21030D01*
G01X13942Y11557D01*
G01X14950Y10550D01*
G01X17896Y31671D02*
G01X17896Y31511D01*
G01X18661Y30744D01*
G01X18661Y26877D01*
G01X17777Y25994D01*
G01X17777Y23355D01*
G01X18081Y23051D01*
G01X18081Y22882D01*
G01X18319Y22644D01*
G01X18319Y22513D01*
G01X15250Y33400D02*
G01X15250Y32238D01*
G01X14860Y31848D01*
G01X14860Y24503D01*
G01X15482Y23880D01*
G01X15482Y21130D01*
G01X15361Y21009D01*
G01X15361Y20313D01*
G01X15048Y20000D01*
G01X14889Y20000D01*
G01X14311Y19421D01*
G01X14311Y14007D01*
G01X14876Y13444D01*
G01X14876Y12455D01*
G01X15069Y12261D01*
G01X15164Y12261D01*
G01X15525Y11901D01*
G01X15525Y9125D01*
G01X14950Y8550D01*
G01X52350Y27600D02*
G01X51785Y28165D01*
G01X51785Y32734D01*
G01X52300Y33250D01*
G01X36350Y21750D02*
G01X36350Y20909D01*
G01X37689Y19569D01*
G01X36300Y16250D02*
G01X36706Y16657D01*
G01X36706Y17988D01*
G01X36259Y18436D01*
G01X36259Y18748D01*
G01X37700Y4750D02*
G01X36300Y6150D01*
G01X36300Y16250D01*
G01X35776Y28173D02*
G01X35776Y29342D01*
G01X34932Y30184D01*
G01X34932Y33832D01*
G01X35350Y34250D01*
G01X36350Y27600D02*
G01X35776Y28173D01*
G01X36350Y21750D02*
G01X36350Y21921D01*
G01X35821Y22451D01*
G01X35821Y26246D01*
G01X34948Y27117D01*
G01X34948Y27865D01*
G01X35257Y28173D01*
G01X35776Y28173D01*
G01X52526Y16250D02*
G01X52526Y21373D01*
G01X52150Y21750D01*
G01X19375Y6550D02*
G01X19775Y6950D01*
G01X19775Y13507D01*
G01X18976Y14305D01*
G01X18976Y18100D01*
G01X19375Y18500D01*
G01X13826Y8607D02*
G01X13826Y7673D01*
G01X14950Y6550D01*
G01X9250Y38400D02*
G01X7250Y36400D01*
G01X7250Y35400D01*
G01X32300Y3750D02*
G01X33300Y3750D01*
G01X9250Y33400D02*
G01X7250Y31400D01*
G01X7250Y30400D01*
G01X7250Y35400D02*
G01X9250Y33400D01*
G01X5250Y25400D02*
G01X4842Y25807D01*
G01X4842Y29992D01*
G01X5250Y30400D01*
G01X9250Y28400D02*
G01X7250Y30400D01*
G01X52150Y21750D02*
G01X52579Y22178D01*
G01X52579Y27371D01*
G01X52350Y27600D01*
G01X52250Y10800D02*
G01X52661Y11211D01*
G01X52661Y15638D01*
G01X52526Y15773D01*
G01X52526Y16250D01*
G01X52526Y16250D02*
G01X52050Y16250D01*
G01X52150Y5100D02*
G01X52650Y5600D01*
G01X52650Y10400D01*
G01X52250Y10800D01*
G01X36350Y33250D02*
G01X36350Y34250D01*
G01X14250Y33400D02*
G01X12825Y31975D01*
G01X12825Y24871D01*
G01X13493Y24202D01*
G01X13493Y20553D01*
G01X13510Y20534D01*
G01X13519Y20534D01*
G01X13643Y20411D01*
G01X13643Y20236D01*
G01X13488Y20082D01*
G01X13488Y7011D01*
G01X14950Y5550D01*
G01X13250Y33400D02*
G01X11831Y31982D01*
G01X11831Y23394D01*
G01X13232Y21994D01*
G01X13232Y20536D01*
G01X13221Y20523D01*
G01X13221Y6278D01*
G01X14950Y4550D01*
G01X12250Y33400D02*
G01X11710Y32861D01*
G01X11710Y23259D01*
G01X12393Y22578D01*
G01X12477Y22578D01*
G01X13111Y21944D01*
G01X13111Y20586D01*
G01X13100Y20573D01*
G01X13100Y5400D01*
G01X14950Y3550D01*
G01X11250Y33400D02*
G01X10850Y32998D01*
G01X10850Y23934D01*
G01X12327Y22457D01*
G01X12427Y22457D01*
G01X12989Y21894D01*
G01X12989Y20636D01*
G01X12978Y20623D01*
G01X12978Y4521D01*
G01X14950Y2550D01*
G01X44931Y27600D02*
G01X44906Y27575D01*
G01X44906Y23557D01*
G01X44963Y23500D01*
G01X44963Y23325D01*
G01X44747Y23109D01*
G01X44747Y22153D01*
G01X45150Y21750D01*
G01X45150Y21750D02*
G01X45581Y21319D01*
G01X45581Y16780D01*
G01X45050Y16250D01*
G01X19375Y7550D02*
G01X18936Y7111D01*
G01X18936Y6403D01*
G01X19290Y6050D01*
G01X19527Y6050D01*
G01X22555Y3023D01*
G01X22555Y2494D01*
G01X23085Y1963D01*
G01X24964Y1963D01*
G01X25350Y2350D01*
G01X19375Y7550D02*
G01X18853Y8071D01*
G01X18853Y18978D01*
G01X19375Y19500D01*
G01X44931Y27600D02*
G01X45350Y27600D01*
G01X44931Y27600D02*
G01X44931Y32880D01*
G01X45300Y33250D01*
G01X45825Y10800D02*
G01X45825Y16025D01*
G01X46050Y16250D01*
G01X45739Y10555D02*
G01X45825Y10640D01*
G01X45825Y10800D01*
G01X45825Y10800D02*
G01X46250Y10800D01*
G01X45250Y10800D02*
G01X45494Y10555D01*
G01X45739Y10555D01*
G01X45739Y10555D02*
G01X45739Y5509D01*
G01X46150Y5100D01*
G01X14950Y20500D02*
G01X14950Y20775D01*
G01X15361Y21186D01*
G01X15361Y23769D01*
G01X14731Y24401D01*
G01X14731Y29928D01*
G01X14597Y30063D01*
G01X15250Y30400D02*
G01X15726Y29923D01*
G01X15726Y19063D01*
G01X15665Y19002D01*
G01X15665Y18977D01*
G01X15782Y18859D01*
G01X15782Y18332D01*
G01X14950Y17500D01*
G01X32300Y4750D02*
G01X32300Y10855D01*
G01X35752Y14307D01*
G01X35752Y15605D01*
G01X35990Y15844D01*
G01X34300Y17250D02*
G01X34300Y16250D01*
G01X31948Y21348D02*
G01X31184Y21348D01*
G01X30893Y21640D01*
G01X30893Y21986D01*
G01X30350Y22530D01*
G01X30350Y22750D01*
G01X32350Y21750D02*
G01X31948Y21348D01*
G01X31948Y21348D02*
G01X32300Y20998D01*
G01X32300Y17250D01*
G01X23350Y2350D02*
G01X24756Y3757D01*
G01X24756Y16792D01*
G01X24300Y17250D01*
G01X51350Y27600D02*
G01X51575Y27375D01*
G01X51575Y22175D01*
G01X51150Y21750D01*
G01X51300Y33250D02*
G01X50906Y32855D01*
G01X50906Y28044D01*
G01X51350Y27600D01*
G01X51150Y21750D02*
G01X50647Y21248D01*
G01X50647Y16652D01*
G01X51050Y16250D01*
G01X51250Y10800D02*
G01X50842Y11207D01*
G01X50842Y16042D01*
G01X51050Y16250D01*
G01X51150Y5100D02*
G01X51650Y5600D01*
G01X51650Y10400D01*
G01X51250Y10800D01*
G01X32300Y16250D02*
G01X32300Y17250D01*
G01X28300Y17250D02*
G01X28738Y16811D01*
G01X29863Y16811D01*
G01X30300Y17250D01*
G01X32350Y21750D02*
G01X32350Y22750D01*
G01X34350Y21750D02*
G01X34350Y22750D01*
G01X32350Y27600D02*
G01X32350Y22750D01*
G01X32350Y28600D02*
G01X32350Y27600D01*
G01X34350Y27600D02*
G01X33850Y28100D01*
G01X32850Y28100D01*
G01X32350Y28600D01*
G01X26350Y28600D02*
G01X26788Y28161D01*
G01X27913Y28161D01*
G01X28350Y28600D01*
G01X2255Y10607D02*
G01X1900Y10963D01*
G01X1900Y30296D01*
G01X5002Y33400D01*
G01X5250Y33400D01*
G01X6250Y38400D02*
G01X5847Y37996D01*
G01X5847Y28803D01*
G01X6250Y28400D01*
G01X12256Y21607D02*
G01X8651Y25211D01*
G01X8651Y25998D01*
G01X6250Y28400D01*
G01X5643Y28400D02*
G01X5643Y23219D01*
G01X12256Y16607D01*
G01X5250Y38400D02*
G01X5643Y38007D01*
G01X5643Y28400D01*
G01X5643Y28400D02*
G01X5250Y28400D01*
G01X12256Y15607D02*
G01X12614Y15965D01*
G01X12614Y20775D01*
G01X12626Y20786D01*
G01X12626Y21742D01*
G01X12319Y22050D01*
G01X12053Y22050D01*
G01X8775Y25328D01*
G01X8775Y26875D01*
G01X7250Y28400D01*
G01X7250Y38400D02*
G01X6635Y37786D01*
G01X6635Y29013D01*
G01X7250Y28400D01*
G01X12256Y14607D02*
G01X12735Y15086D01*
G01X12735Y20725D01*
G01X12747Y20736D01*
G01X12747Y21794D01*
G01X12369Y22171D01*
G01X12122Y22171D01*
G01X9750Y24544D01*
G01X9750Y26900D01*
G01X8250Y28400D01*
G01X8250Y38400D02*
G01X6832Y36982D01*
G01X6832Y29817D01*
G01X8250Y28400D01*
G01X15250Y25400D02*
G01X15605Y25044D01*
G01X15605Y21052D01*
G01X15489Y20936D01*
G01X15489Y18855D01*
G01X15572Y18773D01*
G01X16250Y25400D02*
G01X16250Y17536D01*
G01X16668Y17119D01*
G01X17250Y25400D02*
G01X17250Y17409D01*
G01X17402Y17255D01*
G01X24350Y21750D02*
G01X24350Y22151D01*
G01X19967Y28992D02*
G01X19967Y26534D01*
G01X24350Y22151D01*
G01X12250Y35400D02*
G01X13668Y33982D01*
G01X13668Y33069D01*
G01X12689Y32090D01*
G01X12689Y22711D01*
G01X13353Y22044D01*
G01X13353Y20402D01*
G01X13431Y20323D01*
G01X16839Y32707D02*
G01X16876Y32671D01*
G01X17193Y32671D01*
G01X18106Y31757D01*
G01X18106Y31559D01*
G01X26803Y22863D01*
G01X26803Y22203D01*
G01X26350Y21750D01*
G01X15250Y35400D02*
G01X16835Y33813D01*
G01X16835Y33251D01*
G01X17172Y32913D01*
G01X17297Y32913D01*
G01X23552Y26659D01*
G01X23552Y26659D01*
G01X24013Y26659D01*
G01X27893Y22778D01*
G01X27893Y22378D01*
G01X28350Y21921D01*
G01X28350Y21750D01*
G01X16250Y35400D02*
G01X17672Y33978D01*
G01X17672Y33071D01*
G01X23902Y26840D01*
G01X24851Y26840D01*
G01X28850Y22840D01*
G01X28850Y22250D01*
G01X29350Y21750D01*
G01X17250Y35400D02*
G01X17793Y34857D01*
G01X17793Y33136D01*
G01X23968Y26961D01*
G01X25728Y26961D01*
G01X29872Y22819D01*
G01X29872Y22228D01*
G01X30350Y21750D01*
G01X31350Y21750D02*
G01X30850Y22250D01*
G01X30850Y22884D01*
G01X26673Y27061D01*
G01X26305Y27061D01*
G01X25751Y27615D01*
G01X25751Y27865D01*
G01X25418Y28198D01*
G01X25168Y28198D01*
G01X24850Y28515D01*
G01X24850Y28800D01*
G01X18250Y35400D01*
G01X25350Y33250D02*
G01X24893Y33707D01*
G01X24318Y33707D01*
G01X19239Y38786D01*
G01X17635Y38786D01*
G01X17250Y38400D01*
G01X24350Y33250D02*
G01X23948Y33250D01*
G01X23948Y33250D02*
G01X18798Y38400D01*
G01X18250Y38400D01*
G01X46150Y22750D02*
G01X45713Y22313D01*
G01X45713Y17586D01*
G01X46050Y17250D01*
G01X46150Y6100D02*
G01X46688Y6638D01*
G01X46688Y11361D01*
G01X46250Y11800D01*
G01X46300Y34250D02*
G01X45880Y33830D01*
G01X45880Y29069D01*
G01X46350Y28600D01*
G01X46150Y22750D02*
G01X45925Y22975D01*
G01X45925Y28175D01*
G01X46350Y28600D01*
G01X46250Y11800D02*
G01X46475Y12025D01*
G01X46475Y16825D01*
G01X46050Y17250D01*
G01X50350Y27600D02*
G01X50594Y27355D01*
G01X50594Y22194D01*
G01X50150Y21750D01*
G01X50350Y27600D02*
G01X49906Y28044D01*
G01X49906Y32855D01*
G01X50300Y33250D01*
G01X50526Y16250D02*
G01X50526Y21373D01*
G01X50150Y21750D01*
G01X50250Y10800D02*
G01X50661Y11211D01*
G01X50661Y15638D01*
G01X50526Y15773D01*
G01X50526Y16250D01*
G01X50526Y16250D02*
G01X50050Y16250D01*
G01X50150Y5100D02*
G01X50650Y5600D01*
G01X50650Y10400D01*
G01X50250Y10800D01*
G01X49300Y33250D02*
G01X48921Y32871D01*
G01X48921Y28028D01*
G01X49350Y27600D01*
G01X49350Y27600D02*
G01X49575Y27375D01*
G01X49575Y22175D01*
G01X49150Y21750D01*
G01X49150Y21750D02*
G01X49550Y21350D01*
G01X49550Y16750D01*
G01X49050Y16250D01*
G01X49250Y10800D02*
G01X48825Y11225D01*
G01X48825Y16025D01*
G01X49050Y16250D01*
G01X49150Y5100D02*
G01X49601Y5551D01*
G01X49601Y10448D01*
G01X49250Y10800D01*
G01X14950Y9550D02*
G01X15376Y9976D01*
G01X15376Y11782D01*
G01X14146Y13013D01*
G01X14146Y24613D01*
G01X13735Y25023D01*
G01X13735Y31378D01*
G01X14530Y32171D01*
G01X34647Y6534D02*
G01X34300Y6186D01*
G01X34300Y4750D01*
G01X5185Y32890D02*
G01X2905Y30611D01*
G01X2905Y10257D01*
G01X2255Y9607D01*
G01X43656Y23151D02*
G01X43597Y23151D01*
G01X41193Y25555D01*
G01X41193Y27378D01*
G01X44654Y28198D02*
G01X44752Y28101D01*
G01X44752Y23413D01*
G01X45117Y27090D02*
G01X45590Y26615D01*
G01X45590Y22359D01*
G01X45492Y22261D01*
G01X39939Y18846D02*
G01X39514Y18846D01*
G01X38305Y20057D01*
G01X38305Y20365D01*
G01X36336Y22334D01*
G01X36135Y22334D01*
G01X35942Y22528D01*
G01X35942Y27007D01*
G01X35350Y27600D01*
G01X39702Y16750D02*
G01X34860Y21590D01*
G01X34860Y26088D01*
G01X33350Y27600D01*
G01X33350Y28600D02*
G01X33929Y29178D01*
G01X33929Y29578D01*
G01X53050Y16250D02*
G01X52647Y16652D01*
G01X52647Y19805D01*
G01X52748Y19907D01*
G01X52748Y25234D01*
G01X52761Y25248D01*
G01X52761Y27848D01*
G01X52511Y28100D01*
G01X52272Y28100D01*
G01X51906Y28465D01*
G01X51906Y32273D01*
G01X52000Y32367D01*
G01X43150Y22750D02*
G01X42010Y22750D01*
G01X41573Y23186D01*
G01X43050Y17250D02*
G01X39343Y20955D01*
G01X38385Y20955D01*
G01X23646Y12392D02*
G01X23646Y13228D01*
G01X19375Y17500D01*
G54D14*
G01X14950Y11550D03*
G01X14950Y10550D03*
G01X14950Y9550D03*
G01X14950Y8550D03*
G01X14950Y7550D03*
G01X14950Y6550D03*
G01X14950Y5550D03*
G01X14950Y4550D03*
G01X14950Y3550D03*
G01X14950Y2550D03*
G01X19375Y11550D03*
G01X19375Y10550D03*
G01X19375Y9550D03*
G01X19375Y8550D03*
G01X19375Y7550D03*
G01X19375Y6550D03*
G01X19375Y5550D03*
G01X19375Y4550D03*
G01X19375Y3550D03*
G01X19375Y2550D03*
G01X14950Y23500D03*
G01X14950Y22500D03*
G01X14950Y21500D03*
G01X14950Y20500D03*
G01X14950Y19500D03*
G01X14950Y18500D03*
G01X14950Y17500D03*
G01X14950Y16500D03*
G01X14950Y15500D03*
G01X14950Y14500D03*
G01X19375Y23500D03*
G01X19375Y22500D03*
G01X19375Y21500D03*
G01X19375Y20500D03*
G01X19375Y19500D03*
G01X19375Y18500D03*
G01X19375Y17500D03*
G01X19375Y16500D03*
G01X19375Y15500D03*
G01X19375Y14500D03*
G54D15*
G01X35300Y4750D03*
G01X35300Y3750D03*
G01X34300Y4750D03*
G01X34300Y3750D03*
G01X33300Y4750D03*
G01X33300Y3750D03*
G01X32300Y4750D03*
G01X32300Y3750D03*
G01X31300Y4750D03*
G01X31300Y3750D03*
G01X30300Y4750D03*
G54D16*
G01X30300Y3750D03*
G54D17*
G01X23350Y2350D03*
G54D18*
G01X24350Y2350D03*
G54D17*
G01X25350Y2350D03*
G36*
G01X2514Y21714D02*
G01X2362Y21865D01*
G01X2148Y21865D01*
G01X1996Y21714D01*
G01X1996Y21499D01*
G01X2148Y21348D01*
G01X2362Y21348D01*
G01X2514Y21499D01*
G01X2514Y21714D01*
G37*
G36*
G01X2514Y20714D02*
G01X2362Y20865D01*
G01X2148Y20865D01*
G01X1996Y20714D01*
G01X1996Y20499D01*
G01X2148Y20348D01*
G01X2362Y20348D01*
G01X2514Y20499D01*
G01X2514Y20714D01*
G37*
G36*
G01X2514Y19714D02*
G01X2362Y19865D01*
G01X2148Y19865D01*
G01X1996Y19714D01*
G01X1996Y19499D01*
G01X2148Y19348D01*
G01X2362Y19348D01*
G01X2514Y19499D01*
G01X2514Y19714D01*
G37*
G36*
G01X2514Y18714D02*
G01X2362Y18865D01*
G01X2148Y18865D01*
G01X1996Y18714D01*
G01X1996Y18499D01*
G01X2148Y18348D01*
G01X2362Y18348D01*
G01X2514Y18499D01*
G01X2514Y18714D01*
G37*
G36*
G01X2514Y17714D02*
G01X2362Y17865D01*
G01X2148Y17865D01*
G01X1996Y17714D01*
G01X1996Y17499D01*
G01X2148Y17348D01*
G01X2362Y17348D01*
G01X2514Y17499D01*
G01X2514Y17714D01*
G37*
G36*
G01X2514Y16714D02*
G01X2362Y16865D01*
G01X2148Y16865D01*
G01X1996Y16714D01*
G01X1996Y16499D01*
G01X2148Y16348D01*
G01X2362Y16348D01*
G01X2514Y16499D01*
G01X2514Y16714D01*
G37*
G36*
G01X2514Y15714D02*
G01X2362Y15865D01*
G01X2148Y15865D01*
G01X1996Y15714D01*
G01X1996Y15499D01*
G01X2148Y15348D01*
G01X2362Y15348D01*
G01X2514Y15499D01*
G01X2514Y15714D01*
G37*
G36*
G01X2514Y14714D02*
G01X2362Y14865D01*
G01X2148Y14865D01*
G01X1996Y14714D01*
G01X1996Y14499D01*
G01X2148Y14348D01*
G01X2362Y14348D01*
G01X2514Y14499D01*
G01X2514Y14714D01*
G37*
G36*
G01X2514Y13714D02*
G01X2362Y13865D01*
G01X2148Y13865D01*
G01X1996Y13714D01*
G01X1996Y13499D01*
G01X2148Y13348D01*
G01X2362Y13348D01*
G01X2514Y13499D01*
G01X2514Y13714D01*
G37*
G36*
G01X2514Y12714D02*
G01X2362Y12865D01*
G01X2148Y12865D01*
G01X1996Y12714D01*
G01X1996Y12499D01*
G01X2148Y12348D01*
G01X2362Y12348D01*
G01X2514Y12499D01*
G01X2514Y12714D01*
G37*
G36*
G01X2514Y11714D02*
G01X2362Y11865D01*
G01X2148Y11865D01*
G01X1996Y11714D01*
G01X1996Y11499D01*
G01X2148Y11348D01*
G01X2362Y11348D01*
G01X2514Y11499D01*
G01X2514Y11714D01*
G37*
G36*
G01X2514Y10714D02*
G01X2362Y10865D01*
G01X2148Y10865D01*
G01X1996Y10714D01*
G01X1996Y10499D01*
G01X2148Y10348D01*
G01X2362Y10348D01*
G01X2514Y10499D01*
G01X2514Y10714D01*
G37*
G36*
G01X2514Y9714D02*
G01X2362Y9865D01*
G01X2148Y9865D01*
G01X1996Y9714D01*
G01X1996Y9499D01*
G01X2148Y9348D01*
G01X2362Y9348D01*
G01X2514Y9499D01*
G01X2514Y9714D01*
G37*
G36*
G01X2514Y8714D02*
G01X2362Y8865D01*
G01X2148Y8865D01*
G01X1996Y8714D01*
G01X1996Y8499D01*
G01X2148Y8348D01*
G01X2362Y8348D01*
G01X2514Y8499D01*
G01X2514Y8714D01*
G37*
G36*
G01X2514Y7714D02*
G01X2362Y7865D01*
G01X2148Y7865D01*
G01X1996Y7714D01*
G01X1996Y7499D01*
G01X2148Y7348D01*
G01X2362Y7348D01*
G01X2514Y7499D01*
G01X2514Y7714D01*
G37*
G36*
G01X12514Y21714D02*
G01X12362Y21865D01*
G01X12148Y21865D01*
G01X11996Y21714D01*
G01X11996Y21499D01*
G01X12148Y21348D01*
G01X12362Y21348D01*
G01X12514Y21499D01*
G01X12514Y21714D01*
G37*
G36*
G01X12514Y20714D02*
G01X12362Y20865D01*
G01X12148Y20865D01*
G01X11996Y20714D01*
G01X11996Y20499D01*
G01X12148Y20348D01*
G01X12362Y20348D01*
G01X12514Y20499D01*
G01X12514Y20714D01*
G37*
G36*
G01X12514Y19714D02*
G01X12362Y19865D01*
G01X12148Y19865D01*
G01X11996Y19714D01*
G01X11996Y19499D01*
G01X12148Y19348D01*
G01X12362Y19348D01*
G01X12514Y19499D01*
G01X12514Y19714D01*
G37*
G36*
G01X12514Y18714D02*
G01X12362Y18865D01*
G01X12148Y18865D01*
G01X11996Y18714D01*
G01X11996Y18499D01*
G01X12148Y18348D01*
G01X12362Y18348D01*
G01X12514Y18499D01*
G01X12514Y18714D01*
G37*
G36*
G01X12514Y17714D02*
G01X12362Y17865D01*
G01X12148Y17865D01*
G01X11996Y17714D01*
G01X11996Y17499D01*
G01X12148Y17348D01*
G01X12362Y17348D01*
G01X12514Y17499D01*
G01X12514Y17714D01*
G37*
G36*
G01X12514Y16714D02*
G01X12362Y16865D01*
G01X12148Y16865D01*
G01X11996Y16714D01*
G01X11996Y16499D01*
G01X12148Y16348D01*
G01X12362Y16348D01*
G01X12514Y16499D01*
G01X12514Y16714D01*
G37*
G36*
G01X12514Y15714D02*
G01X12362Y15865D01*
G01X12148Y15865D01*
G01X11996Y15714D01*
G01X11996Y15499D01*
G01X12148Y15348D01*
G01X12362Y15348D01*
G01X12514Y15499D01*
G01X12514Y15714D01*
G37*
G36*
G01X12514Y14714D02*
G01X12362Y14865D01*
G01X12148Y14865D01*
G01X11996Y14714D01*
G01X11996Y14499D01*
G01X12148Y14348D01*
G01X12362Y14348D01*
G01X12514Y14499D01*
G01X12514Y14714D01*
G37*
G36*
G01X12514Y13714D02*
G01X12362Y13865D01*
G01X12148Y13865D01*
G01X11996Y13714D01*
G01X11996Y13499D01*
G01X12148Y13348D01*
G01X12362Y13348D01*
G01X12514Y13499D01*
G01X12514Y13714D01*
G37*
G36*
G01X12514Y12714D02*
G01X12362Y12865D01*
G01X12148Y12865D01*
G01X11996Y12714D01*
G01X11996Y12499D01*
G01X12148Y12348D01*
G01X12362Y12348D01*
G01X12514Y12499D01*
G01X12514Y12714D01*
G37*
G36*
G01X12514Y11714D02*
G01X12362Y11865D01*
G01X12148Y11865D01*
G01X11996Y11714D01*
G01X11996Y11499D01*
G01X12148Y11348D01*
G01X12362Y11348D01*
G01X12514Y11499D01*
G01X12514Y11714D01*
G37*
G36*
G01X12514Y10714D02*
G01X12362Y10865D01*
G01X12148Y10865D01*
G01X11996Y10714D01*
G01X11996Y10499D01*
G01X12148Y10348D01*
G01X12362Y10348D01*
G01X12514Y10499D01*
G01X12514Y10714D01*
G37*
G36*
G01X12514Y9714D02*
G01X12362Y9865D01*
G01X12148Y9865D01*
G01X11996Y9714D01*
G01X11996Y9499D01*
G01X12148Y9348D01*
G01X12362Y9348D01*
G01X12514Y9499D01*
G01X12514Y9714D01*
G37*
G36*
G01X12514Y8714D02*
G01X12362Y8865D01*
G01X12148Y8865D01*
G01X11996Y8714D01*
G01X11996Y8499D01*
G01X12148Y8348D01*
G01X12362Y8348D01*
G01X12514Y8499D01*
G01X12514Y8714D01*
G37*
G36*
G01X12514Y7714D02*
G01X12362Y7865D01*
G01X12148Y7865D01*
G01X11996Y7714D01*
G01X11996Y7499D01*
G01X12148Y7348D01*
G01X12362Y7348D01*
G01X12514Y7499D01*
G01X12514Y7714D01*
G37*
G54D19*
G01X5250Y30400D03*
G01X6250Y30400D03*
G01X7250Y30400D03*
G01X8250Y30400D03*
G01X9250Y30400D03*
G01X10250Y30400D03*
G01X11250Y30400D03*
G01X12250Y30400D03*
G01X13250Y30400D03*
G01X14250Y30400D03*
G01X15250Y30400D03*
G01X16250Y30400D03*
G01X17250Y30400D03*
G01X18250Y30400D03*
G01X5250Y33400D03*
G01X6250Y33400D03*
G01X7250Y33400D03*
G01X8250Y33400D03*
G01X9250Y33400D03*
G01X10250Y33400D03*
G01X11250Y33400D03*
G01X12250Y33400D03*
G01X13250Y33400D03*
G01X14250Y33400D03*
G01X15250Y33400D03*
G01X16250Y33400D03*
G01X17250Y33400D03*
G54D20*
G01X18250Y33400D03*
G54D19*
G01X5250Y25400D03*
G01X6250Y25400D03*
G01X7250Y25400D03*
G01X8250Y25400D03*
G01X9250Y25400D03*
G01X10250Y25400D03*
G01X11250Y25400D03*
G01X12250Y25400D03*
G01X13250Y25400D03*
G01X14250Y25400D03*
G01X15250Y25400D03*
G01X16250Y25400D03*
G01X17250Y25400D03*
G01X18250Y25400D03*
G01X5250Y28400D03*
G01X6250Y28400D03*
G01X7250Y28400D03*
G01X8250Y28400D03*
G01X9250Y28400D03*
G01X10250Y28400D03*
G01X11250Y28400D03*
G01X12250Y28400D03*
G01X13250Y28400D03*
G01X14250Y28400D03*
G01X15250Y28400D03*
G01X16250Y28400D03*
G01X17250Y28400D03*
G54D20*
G01X18250Y28400D03*
G54D19*
G01X5250Y35400D03*
G01X6250Y35400D03*
G01X7250Y35400D03*
G01X8250Y35400D03*
G01X9250Y35400D03*
G01X10250Y35400D03*
G01X11250Y35400D03*
G01X12250Y35400D03*
G01X13250Y35400D03*
G01X14250Y35400D03*
G01X15250Y35400D03*
G01X16250Y35400D03*
G01X17250Y35400D03*
G01X18250Y35400D03*
G01X5250Y38400D03*
G01X6250Y38400D03*
G01X7250Y38400D03*
G01X8250Y38400D03*
G01X9250Y38400D03*
G01X10250Y38400D03*
G01X11250Y38400D03*
G01X12250Y38400D03*
G01X13250Y38400D03*
G01X14250Y38400D03*
G01X15250Y38400D03*
G01X16250Y38400D03*
G01X17250Y38400D03*
G54D20*
G01X18250Y38400D03*
G54D15*
G01X55300Y34250D03*
G01X55300Y33250D03*
G01X54300Y34250D03*
G01X54300Y33250D03*
G01X53300Y34250D03*
G01X53300Y33250D03*
G01X52300Y34250D03*
G01X52300Y33250D03*
G01X51300Y34250D03*
G01X51300Y33250D03*
G01X50300Y34250D03*
G01X50300Y33250D03*
G01X49300Y34250D03*
G01X49300Y33250D03*
G01X48300Y34250D03*
G01X48300Y33250D03*
G01X47300Y34250D03*
G01X47300Y33250D03*
G01X46300Y34250D03*
G01X46300Y33250D03*
G01X45300Y34250D03*
G01X45300Y33250D03*
G01X44300Y34250D03*
G01X44300Y33250D03*
G01X43300Y34250D03*
G54D16*
G01X43300Y33250D03*
G54D15*
G01X55350Y28600D03*
G01X55350Y27600D03*
G01X54350Y28600D03*
G01X54350Y27600D03*
G01X53350Y28600D03*
G01X53350Y27600D03*
G01X52350Y28600D03*
G01X52350Y27600D03*
G01X51350Y28600D03*
G01X51350Y27600D03*
G01X50350Y28600D03*
G01X50350Y27600D03*
G01X49350Y28600D03*
G01X49350Y27600D03*
G01X48350Y28600D03*
G01X48350Y27600D03*
G01X47350Y28600D03*
G01X47350Y27600D03*
G01X46350Y28600D03*
G01X46350Y27600D03*
G01X45350Y28600D03*
G01X45350Y27600D03*
G01X44350Y28600D03*
G01X44350Y27600D03*
G01X43350Y28600D03*
G54D16*
G01X43350Y27600D03*
G54D15*
G01X55150Y22750D03*
G01X55150Y21750D03*
G01X54150Y22750D03*
G01X54150Y21750D03*
G01X53150Y22750D03*
G01X53150Y21750D03*
G01X52150Y22750D03*
G01X52150Y21750D03*
G01X51150Y22750D03*
G01X51150Y21750D03*
G01X50150Y22750D03*
G01X50150Y21750D03*
G01X49150Y22750D03*
G01X49150Y21750D03*
G01X48150Y22750D03*
G01X48150Y21750D03*
G01X47150Y22750D03*
G01X47150Y21750D03*
G01X46150Y22750D03*
G01X46150Y21750D03*
G01X45150Y22750D03*
G01X45150Y21750D03*
G01X44150Y22750D03*
G01X44150Y21750D03*
G01X43150Y22750D03*
G54D16*
G01X43150Y21750D03*
G54D15*
G01X55050Y17250D03*
G01X55050Y16250D03*
G01X54050Y17250D03*
G01X54050Y16250D03*
G01X53050Y17250D03*
G01X53050Y16250D03*
G01X52050Y17250D03*
G01X52050Y16250D03*
G01X51050Y17250D03*
G01X51050Y16250D03*
G01X50050Y17250D03*
G01X50050Y16250D03*
G01X49050Y17250D03*
G01X49050Y16250D03*
G01X48050Y17250D03*
G01X48050Y16250D03*
G01X47050Y17250D03*
G01X47050Y16250D03*
G01X46050Y17250D03*
G01X46050Y16250D03*
G01X45050Y17250D03*
G01X45050Y16250D03*
G01X44050Y17250D03*
G01X44050Y16250D03*
G01X43050Y17250D03*
G54D16*
G01X43050Y16250D03*
G54D15*
G01X55250Y11800D03*
G01X55250Y10800D03*
G01X54250Y11800D03*
G01X54250Y10800D03*
G01X53250Y11800D03*
G01X53250Y10800D03*
G01X52250Y11800D03*
G01X52250Y10800D03*
G01X51250Y11800D03*
G01X51250Y10800D03*
G01X50250Y11800D03*
G01X50250Y10800D03*
G01X49250Y11800D03*
G01X49250Y10800D03*
G01X48250Y11800D03*
G01X48250Y10800D03*
G01X47250Y11800D03*
G01X47250Y10800D03*
G01X46250Y11800D03*
G01X46250Y10800D03*
G01X45250Y11800D03*
G01X45250Y10800D03*
G01X44250Y11800D03*
G01X44250Y10800D03*
G01X43250Y11800D03*
G54D16*
G01X43250Y10800D03*
G54D15*
G01X55150Y6100D03*
G01X55150Y5100D03*
G01X54150Y6100D03*
G01X54150Y5100D03*
G01X53150Y6100D03*
G01X53150Y5100D03*
G01X52150Y6100D03*
G01X52150Y5100D03*
G01X51150Y6100D03*
G01X51150Y5100D03*
G01X50150Y6100D03*
G01X50150Y5100D03*
G01X49150Y6100D03*
G01X49150Y5100D03*
G01X48150Y6100D03*
G01X48150Y5100D03*
G01X47150Y6100D03*
G01X47150Y5100D03*
G01X46150Y6100D03*
G01X46150Y5100D03*
G01X45150Y6100D03*
G01X45150Y5100D03*
G01X44150Y6100D03*
G01X44150Y5100D03*
G01X43150Y6100D03*
G54D16*
G01X43150Y5100D03*
G54D15*
G01X36350Y34250D03*
G01X36350Y33250D03*
G01X35350Y34250D03*
G01X35350Y33250D03*
G01X34350Y34250D03*
G01X34350Y33250D03*
G01X33350Y34250D03*
G01X33350Y33250D03*
G01X32350Y34250D03*
G01X32350Y33250D03*
G01X31350Y34250D03*
G01X31350Y33250D03*
G01X30350Y34250D03*
G01X30350Y33250D03*
G01X29350Y34250D03*
G01X29350Y33250D03*
G01X28350Y34250D03*
G01X28350Y33250D03*
G01X27350Y34250D03*
G01X27350Y33250D03*
G01X26350Y34250D03*
G01X26350Y33250D03*
G01X25350Y34250D03*
G01X25350Y33250D03*
G01X24350Y34250D03*
G54D16*
G01X24350Y33250D03*
G54D15*
G01X36300Y17250D03*
G01X36300Y16250D03*
G01X35300Y17250D03*
G01X35300Y16250D03*
G01X34300Y17250D03*
G01X34300Y16250D03*
G01X33300Y17250D03*
G01X33300Y16250D03*
G01X32300Y17250D03*
G01X32300Y16250D03*
G01X31300Y17250D03*
G01X31300Y16250D03*
G01X30300Y17250D03*
G01X30300Y16250D03*
G01X29300Y17250D03*
G01X29300Y16250D03*
G01X28300Y17250D03*
G01X28300Y16250D03*
G01X27300Y17250D03*
G01X27300Y16250D03*
G01X26300Y17250D03*
G01X26300Y16250D03*
G01X25300Y17250D03*
G01X25300Y16250D03*
G01X24300Y17250D03*
G54D16*
G01X24300Y16250D03*
G54D21*
G01X2000Y37500D03*
G01X2050Y2050D03*
G01X57350Y1950D03*
G01X56600Y37500D03*
G54D15*
G01X36350Y22750D03*
G01X36350Y21750D03*
G01X35350Y22750D03*
G01X35350Y21750D03*
G01X34350Y22750D03*
G01X34350Y21750D03*
G01X33350Y22750D03*
G01X33350Y21750D03*
G01X32350Y22750D03*
G01X32350Y21750D03*
G01X31350Y22750D03*
G01X31350Y21750D03*
G01X30350Y22750D03*
G01X30350Y21750D03*
G01X29350Y22750D03*
G01X29350Y21750D03*
G01X28350Y22750D03*
G01X28350Y21750D03*
G01X27350Y22750D03*
G01X27350Y21750D03*
G01X26350Y22750D03*
G01X26350Y21750D03*
G01X25350Y22750D03*
G01X25350Y21750D03*
G01X24350Y22750D03*
G54D16*
G01X24350Y21750D03*
G54D15*
G01X36350Y28600D03*
G01X36350Y27600D03*
G01X35350Y28600D03*
G01X35350Y27600D03*
G01X34350Y28600D03*
G01X34350Y27600D03*
G01X33350Y28600D03*
G01X33350Y27600D03*
G01X32350Y28600D03*
G01X32350Y27600D03*
G01X31350Y28600D03*
G01X31350Y27600D03*
G01X30350Y28600D03*
G01X30350Y27600D03*
G01X29350Y28600D03*
G01X29350Y27600D03*
G01X28350Y28600D03*
G01X28350Y27600D03*
G01X27350Y28600D03*
G01X27350Y27600D03*
G01X26350Y28600D03*
G01X26350Y27600D03*
G01X25350Y28600D03*
G01X25350Y27600D03*
G01X24350Y28600D03*
G54D16*
G01X24350Y27600D03*
G54D22*
G01X37700Y3750D03*
G54D23*
G01X37700Y4750D03*
G54D13*
G01X15207Y12592D03*
G01X17103Y32186D03*
G01X39272Y19388D03*
G01X23481Y6100D03*
G01X20285Y15105D03*
G01X43764Y15200D03*
G01X46563Y17675D03*
G01X36077Y14771D03*
G01X46898Y11151D03*
G01X36085Y10309D03*
G01X34556Y13984D03*
G01X48227Y13984D03*
G01X10192Y32888D03*
G01X17871Y22909D03*
G01X17893Y22465D03*
G01X23189Y15926D03*
G01X13731Y20026D03*
G01X18122Y23567D03*
G01X26817Y16473D03*
G01X35122Y17980D03*
G01X42617Y24430D03*
G01X43956Y23442D03*
G01X46776Y26648D03*
G01X47339Y18463D03*
G01X33757Y14317D03*
G01X44936Y7265D03*
G01X45452Y7663D03*
G01X29607Y26134D03*
G01X36857Y23348D03*
G01X33514Y14771D03*
G01X32850Y21859D03*
G01X30957Y14467D03*
G01X30686Y11361D03*
G01X13928Y21042D03*
G01X18319Y22513D03*
G01X17896Y31671D03*
G01X37689Y19569D03*
G01X36259Y18748D03*
G01X13826Y8607D03*
G01X14597Y30063D03*
G01X35990Y15844D03*
G01X15572Y18773D03*
G01X16668Y17119D03*
G01X17402Y17255D03*
G01X19967Y28992D03*
G01X13431Y20323D03*
G01X16839Y32707D03*
G01X14530Y32171D03*
G01X34647Y6534D03*
G01X5185Y32890D03*
G01X43656Y23151D03*
G01X41193Y27378D03*
G01X44752Y23413D03*
G01X44654Y28198D03*
G01X45492Y22261D03*
G01X45117Y27090D03*
G01X39939Y18846D03*
G01X39702Y16750D03*
G01X52000Y32367D03*
G01X33929Y29578D03*
G01X41573Y23186D03*
G01X38385Y20955D03*
G01X23646Y12392D03*
M00*
M02*
